<?xml version="1.0" encoding="UTF-8"?>
<svg xmlns="http://www.w3.org/2000/svg" xmlns:xlink="http://www.w3.org/1999/xlink" viewBox="0 0 1600 1000">
  <defs>
    <style>
      .cls-1 {
        fill: url(#_무제_그라디언트_245-7);
      }

      .cls-1, .cls-2, .cls-3, .cls-4, .cls-5, .cls-6, .cls-7, .cls-8, .cls-9, .cls-10, .cls-11, .cls-12, .cls-13, .cls-14, .cls-15, .cls-16, .cls-17, .cls-18, .cls-19, .cls-20, .cls-21, .cls-22, .cls-23, .cls-24, .cls-25, .cls-26, .cls-27, .cls-28, .cls-29, .cls-30, .cls-31, .cls-32, .cls-33, .cls-34, .cls-35, .cls-36, .cls-37, .cls-38, .cls-39, .cls-40, .cls-41, .cls-42, .cls-43, .cls-44, .cls-45, .cls-46, .cls-47, .cls-48, .cls-49, .cls-50, .cls-51, .cls-52, .cls-53, .cls-54, .cls-55, .cls-56, .cls-57, .cls-58, .cls-59, .cls-60, .cls-61, .cls-62, .cls-63, .cls-64, .cls-65, .cls-66, .cls-67, .cls-68, .cls-69, .cls-70, .cls-71, .cls-72, .cls-73, .cls-74, .cls-75, .cls-76, .cls-77, .cls-78, .cls-79, .cls-80, .cls-81, .cls-82, .cls-83, .cls-84, .cls-85, .cls-86, .cls-87, .cls-88, .cls-89, .cls-90, .cls-91, .cls-92, .cls-93, .cls-94, .cls-95, .cls-96, .cls-97, .cls-98, .cls-99, .cls-100, .cls-101, .cls-102, .cls-103, .cls-104, .cls-105, .cls-106, .cls-107, .cls-108, .cls-109, .cls-110, .cls-111, .cls-112, .cls-113, .cls-114, .cls-115, .cls-116, .cls-117 {
        stroke-width: 0px;
      }

      .cls-2 {
        fill: url(#_무제_그라디언트_245-6);
      }

      .cls-3 {
        fill: url(#_무제_그라디언트_245-4);
      }

      .cls-4 {
        fill: url(#_무제_그라디언트_245-3);
      }

      .cls-5 {
        fill: url(#_무제_그라디언트_245-2);
      }

      .cls-6 {
        fill: url(#_무제_그라디언트_245-8);
      }

      .cls-7 {
        fill: url(#_무제_그라디언트_245-5);
      }

      .cls-8 {
        fill: url(#_무제_그라디언트_150-2);
      }

      .cls-9 {
        fill: url(#_무제_그라디언트_126-2);
      }

      .cls-10 {
        fill: url(#_무제_그라디언트_126-3);
      }

      .cls-11 {
        fill: url(#_무제_그라디언트_138-3);
      }

      .cls-12 {
        fill: url(#_무제_그라디언트_138-2);
      }

      .cls-13 {
        fill: url(#_무제_그라디언트_138-4);
      }

      .cls-14 {
        fill: url(#_무제_그라디언트_144-2);
      }

      .cls-15 {
        fill: url(#_무제_그라디언트_144-3);
      }

      .cls-16 {
        fill: url(#_무제_그라디언트_129-2);
      }

      .cls-17 {
        fill: url(#_무제_그라디언트_129-3);
      }

      .cls-18 {
        fill: url(#_무제_그라디언트_129-4);
      }

      .cls-19 {
        fill: url(#_무제_그라디언트_129-9);
      }

      .cls-20 {
        fill: url(#_무제_그라디언트_129-5);
      }

      .cls-21 {
        fill: url(#_무제_그라디언트_129-6);
      }

      .cls-22 {
        fill: url(#_무제_그라디언트_129-7);
      }

      .cls-23 {
        fill: url(#_무제_그라디언트_129-8);
      }

      .cls-24 {
        fill: url(#_무제_그라디언트_134-3);
      }

      .cls-25 {
        fill: url(#_무제_그라디언트_134-2);
      }

      .cls-26 {
        fill: url(#_무제_그라디언트_142-2);
      }

      .cls-27 {
        fill: url(#_무제_그라디언트_142-3);
      }

      .cls-28 {
        fill: url(#_무제_그라디언트_142-4);
      }

      .cls-29 {
        fill: url(#_무제_그라디언트_142-7);
      }

      .cls-30 {
        fill: url(#_무제_그라디언트_142-8);
      }

      .cls-31 {
        fill: url(#_무제_그라디언트_142-6);
      }

      .cls-32 {
        fill: url(#_무제_그라디언트_142-5);
      }

      .cls-33 {
        fill: url(#_무제_그라디언트_46-20);
      }

      .cls-34 {
        fill: url(#_무제_그라디언트_46-16);
      }

      .cls-35 {
        fill: url(#_무제_그라디언트_46-14);
      }

      .cls-36 {
        fill: url(#_무제_그라디언트_46-11);
      }

      .cls-37 {
        fill: url(#_무제_그라디언트_46-17);
      }

      .cls-38 {
        fill: url(#_무제_그라디언트_46-18);
      }

      .cls-39 {
        fill: url(#_무제_그라디언트_46-15);
      }

      .cls-40 {
        fill: url(#_무제_그라디언트_46-19);
      }

      .cls-41 {
        fill: url(#_무제_그라디언트_46-13);
      }

      .cls-42 {
        fill: url(#_무제_그라디언트_46-10);
      }

      .cls-43 {
        fill: url(#_무제_그라디언트_46-12);
      }

      .cls-44 {
        fill: url(#_무제_그라디언트_46-22);
      }

      .cls-45 {
        fill: url(#_무제_그라디언트_46-25);
      }

      .cls-46 {
        fill: url(#_무제_그라디언트_46-23);
      }

      .cls-47 {
        fill: url(#_무제_그라디언트_46-24);
      }

      .cls-48 {
        fill: url(#_무제_그라디언트_46-21);
      }

      .cls-49 {
        fill: url(#_무제_그라디언트_134);
      }

      .cls-50 {
        fill: url(#_무제_그라디언트_152);
      }

      .cls-51 {
        fill: url(#_무제_그라디언트_142);
      }

      .cls-52 {
        fill: url(#_무제_그라디언트_148);
      }

      .cls-53 {
        fill: url(#_무제_그라디언트_147);
      }

      .cls-54 {
        fill: url(#_무제_그라디언트_144);
      }

      .cls-55 {
        fill: url(#_무제_그라디언트_138);
      }

      .cls-56 {
        fill: url(#_무제_그라디언트_126);
      }

      .cls-57 {
        fill: url(#_무제_그라디언트_129);
      }

      .cls-58 {
        fill: url(#_무제_그라디언트_150);
      }

      .cls-59 {
        fill: url(#_무제_그라디언트_245);
      }

      .cls-60 {
        fill: #e5952c;
      }

      .cls-61 {
        fill: #3c8d4f;
      }

      .cls-62 {
        fill: url(#_무제_그라디언트_20);
      }

      .cls-63 {
        fill: url(#_무제_그라디언트_28);
      }

      .cls-64 {
        fill: url(#_무제_그라디언트_43);
      }

      .cls-65 {
        fill: url(#_무제_그라디언트_46);
      }

      .cls-66 {
        fill: url(#_무제_그라디언트_58);
      }

      .cls-67 {
        fill: url(#_무제_그라디언트_51);
      }

      .cls-68 {
        fill: url(#_무제_그라디언트_50);
      }

      .cls-69 {
        fill: #e5e5e7;
      }

      .cls-70 {
        fill: #50bc69;
      }

      .cls-118 {
        opacity: .75;
      }

      .cls-71 {
        fill: #285e35;
      }

      .cls-72 {
        fill: #ffedcf;
      }

      .cls-73 {
        fill: #189554;
      }

      .cls-74 {
        fill: #212121;
      }

      .cls-75 {
        fill: url(#_무제_그라디언트_46-8);
      }

      .cls-76 {
        fill: url(#_무제_그라디언트_46-2);
      }

      .cls-77 {
        fill: url(#_무제_그라디언트_46-3);
      }

      .cls-78 {
        fill: url(#_무제_그라디언트_46-5);
      }

      .cls-79 {
        fill: url(#_무제_그라디언트_46-9);
      }

      .cls-80 {
        fill: url(#_무제_그라디언트_46-6);
      }

      .cls-81 {
        fill: url(#_무제_그라디언트_46-7);
      }

      .cls-82 {
        fill: url(#_무제_그라디언트_46-4);
      }

      .cls-83 {
        fill: url(#_무제_그라디언트_28-3);
      }

      .cls-84 {
        fill: url(#_무제_그라디언트_28-2);
      }

      .cls-119 {
        fill: #000;
        font-family: Pretendard-Medium-KSCpc-EUC-H, Pretendard;
        font-size: 43.18px;
        font-weight: 500;
      }

      .cls-85 {
        fill: url(#_무제_그라디언트_129-19);
      }

      .cls-86 {
        fill: url(#_무제_그라디언트_129-17);
      }

      .cls-87 {
        fill: url(#_무제_그라디언트_129-15);
      }

      .cls-88 {
        fill: url(#_무제_그라디언트_129-18);
      }

      .cls-89 {
        fill: url(#_무제_그라디언트_129-16);
      }

      .cls-90 {
        fill: url(#_무제_그라디언트_129-12);
      }

      .cls-91 {
        fill: url(#_무제_그라디언트_129-29);
      }

      .cls-92 {
        fill: url(#_무제_그라디언트_129-10);
      }

      .cls-93 {
        fill: url(#_무제_그라디언트_129-14);
      }

      .cls-94 {
        fill: url(#_무제_그라디언트_129-11);
      }

      .cls-95 {
        fill: url(#_무제_그라디언트_129-13);
      }

      .cls-96 {
        fill: url(#_무제_그라디언트_129-39);
      }

      .cls-97 {
        fill: url(#_무제_그라디언트_129-31);
      }

      .cls-98 {
        fill: url(#_무제_그라디언트_129-32);
      }

      .cls-99 {
        fill: url(#_무제_그라디언트_129-33);
      }

      .cls-100 {
        fill: url(#_무제_그라디언트_129-38);
      }

      .cls-101 {
        fill: url(#_무제_그라디언트_129-22);
      }

      .cls-102 {
        fill: url(#_무제_그라디언트_129-21);
      }

      .cls-103 {
        fill: url(#_무제_그라디언트_129-36);
      }

      .cls-104 {
        fill: url(#_무제_그라디언트_129-37);
      }

      .cls-105 {
        fill: url(#_무제_그라디언트_129-34);
      }

      .cls-106 {
        fill: url(#_무제_그라디언트_129-30);
      }

      .cls-107 {
        fill: url(#_무제_그라디언트_129-35);
      }

      .cls-108 {
        fill: url(#_무제_그라디언트_129-27);
      }

      .cls-109 {
        fill: url(#_무제_그라디언트_129-25);
      }

      .cls-110 {
        fill: url(#_무제_그라디언트_129-41);
      }

      .cls-111 {
        fill: url(#_무제_그라디언트_129-40);
      }

      .cls-112 {
        fill: url(#_무제_그라디언트_129-26);
      }

      .cls-113 {
        fill: url(#_무제_그라디언트_129-23);
      }

      .cls-114 {
        fill: url(#_무제_그라디언트_129-24);
      }

      .cls-115 {
        fill: url(#_무제_그라디언트_129-28);
      }

      .cls-116 {
        fill: url(#_무제_그라디언트_129-20);
      }

      .cls-117 {
        fill: #fff;
      }
    </style>
    <linearGradient id="_무제_그라디언트_46" data-name="무제 그라디언트 46" x1="213.41" y1="-742.72" x2="250.58" y2="-703.06" gradientTransform="translate(602.42 816.54) rotate(-47.03)" gradientUnits="userSpaceOnUse">
      <stop offset="0" stop-color="#25a8f4"/>
      <stop offset="0" stop-color="#ffa409"/>
      <stop offset=".76" stop-color="#ffe66f"/>
    </linearGradient>
    <linearGradient id="_무제_그라디언트_20" data-name="무제 그라디언트 20" x1="242.08" y1="-777.04" x2="321.49" y2="-777.04" gradientTransform="translate(-134.22 832.13) rotate(10.55)" gradientUnits="userSpaceOnUse">
      <stop offset="0" stop-color="#ff2827"/>
      <stop offset=".84" stop-color="#ffbbb2"/>
    </linearGradient>
    <linearGradient id="_무제_그라디언트_51" data-name="무제 그라디언트 51" x1="213" y1="348.39" x2="212.7" y2="427.37" gradientUnits="userSpaceOnUse">
      <stop offset="0" stop-color="#25a8f4"/>
      <stop offset="0" stop-color="#ffa409"/>
      <stop offset=".46" stop-color="#ffe66f"/>
    </linearGradient>
    <linearGradient id="_무제_그라디언트_46-2" data-name="무제 그라디언트 46" x1="192.51" y1="307.22" x2="192.23" y2="344.95" gradientTransform="matrix(1,0,0,1,0,0)" xlink:href="#_무제_그라디언트_46"/>
    <linearGradient id="_무제_그라디언트_46-3" data-name="무제 그라디언트 46" x1="235.74" y1="307.22" x2="235.46" y2="344.95" gradientTransform="matrix(1,0,0,1,0,0)" xlink:href="#_무제_그라디언트_46"/>
    <linearGradient id="_무제_그라디언트_50" data-name="무제 그라디언트 50" x1="270.32" y1="361.01" x2="270.46" y2="382.21" gradientUnits="userSpaceOnUse">
      <stop offset="0" stop-color="#25a8f4"/>
      <stop offset="0" stop-color="#ffa409"/>
      <stop offset=".99" stop-color="#ffe66f"/>
    </linearGradient>
    <linearGradient id="_무제_그라디언트_126" data-name="무제 그라디언트 126" x1="1116.77" y1="725.13" x2="1150.54" y2="724.75" gradientTransform="translate(-.51 .66) rotate(-.03)" gradientUnits="userSpaceOnUse">
      <stop offset="0" stop-color="#c0ecc0"/>
      <stop offset="1" stop-color="#56c072"/>
    </linearGradient>
    <linearGradient id="_무제_그라디언트_126-2" data-name="무제 그라디언트 126" x1="1217.03" y1="725.13" x2="1250.8" y2="724.75" xlink:href="#_무제_그라디언트_126"/>
    <linearGradient id="_무제_그라디언트_126-3" data-name="무제 그라디언트 126" x1="1159.66" y1="711.97" x2="1211.66" y2="710.87" xlink:href="#_무제_그라디언트_126"/>
    <linearGradient id="_무제_그라디언트_46-4" data-name="무제 그라디언트 46" x1="516.12" y1="842.77" x2="516.12" y2="819.54" gradientTransform="matrix(1,0,0,1,0,0)" xlink:href="#_무제_그라디언트_46"/>
    <linearGradient id="_무제_그라디언트_46-5" data-name="무제 그라디언트 46" x1="519.47" y1="923.4" x2="515.92" y2="821.76" gradientTransform="matrix(1,0,0,1,0,0)" xlink:href="#_무제_그라디언트_46"/>
    <linearGradient id="_무제_그라디언트_46-6" data-name="무제 그라디언트 46" x1="624.36" y1="842.77" x2="624.36" y2="819.54" gradientTransform="matrix(1,0,0,1,0,0)" xlink:href="#_무제_그라디언트_46"/>
    <linearGradient id="_무제_그라디언트_46-7" data-name="무제 그라디언트 46" x1="627.71" y1="923.4" x2="624.16" y2="821.76" gradientTransform="matrix(1,0,0,1,0,0)" xlink:href="#_무제_그라디언트_46"/>
    <linearGradient id="_무제_그라디언트_129" data-name="무제 그라디언트 129" x1="158.41" y1="862.2" x2="157.55" y2="743.83" gradientUnits="userSpaceOnUse">
      <stop offset="0" stop-color="#c0ecc0"/>
      <stop offset=".9" stop-color="#56c072"/>
    </linearGradient>
    <linearGradient id="_무제_그라디언트_129-2" data-name="무제 그라디언트 129" x1="157.58" y1="741.32" x2="157.51" y2="725.1" xlink:href="#_무제_그라디언트_129"/>
    <linearGradient id="_무제_그라디언트_152" data-name="무제 그라디언트 152" x1="157.47" y1="722.3" x2="157.66" y2="704.3" gradientUnits="userSpaceOnUse">
      <stop offset="0" stop-color="#c0ecc0"/>
      <stop offset="1" stop-color="#56c072"/>
    </linearGradient>
    <linearGradient id="_무제_그라디언트_28" data-name="무제 그라디언트 28" x1="1280.27" y1="437.89" x2="1281.63" y2="556.26" gradientUnits="userSpaceOnUse">
      <stop offset="0" stop-color="#25a8f4"/>
      <stop offset="0" stop-color="#f49308"/>
      <stop offset=".96" stop-color="#ffe66f"/>
    </linearGradient>
    <linearGradient id="_무제_그라디언트_28-2" data-name="무제 그라디언트 28" x1="1280.47" y1="443.02" x2="1280.66" y2="459.44" xlink:href="#_무제_그라디언트_28"/>
    <linearGradient id="_무제_그라디언트_28-3" data-name="무제 그라디언트 28" x1="1280.28" y1="418.74" x2="1280.51" y2="438.76" xlink:href="#_무제_그라디언트_28"/>
    <linearGradient id="_무제_그라디언트_150" data-name="무제 그라디언트 150" x1="1049.25" y1="526.63" x2="1047.53" y2="614.14" gradientUnits="userSpaceOnUse">
      <stop offset="0" stop-color="#25a8f4"/>
      <stop offset="0" stop-color="#ffa409"/>
      <stop offset="1" stop-color="#ffe66f"/>
    </linearGradient>
    <linearGradient id="_무제_그라디언트_150-2" data-name="무제 그라디언트 150" x1="885.55" y1="733.56" x2="883.83" y2="821.06" xlink:href="#_무제_그라디언트_150"/>
    <linearGradient id="_무제_그라디언트_129-3" data-name="무제 그라디언트 129" x1="334.25" y1="755.16" x2="333.78" y2="667.64" xlink:href="#_무제_그라디언트_129"/>
    <linearGradient id="_무제_그라디언트_138" data-name="무제 그라디언트 138" x1="334.13" y1="732.71" x2="333.89" y2="687.27" gradientUnits="userSpaceOnUse">
      <stop offset="0" stop-color="#c0ecc0"/>
      <stop offset="0" stop-color="#4d985f"/>
    </linearGradient>
    <linearGradient id="_무제_그라디언트_129-4" data-name="무제 그라디언트 129" x1="987.25" y1="304.16" x2="986.78" y2="216.64" xlink:href="#_무제_그라디언트_129"/>
    <linearGradient id="_무제_그라디언트_138-2" data-name="무제 그라디언트 138" x1="987.13" y1="281.71" x2="986.89" y2="236.27" xlink:href="#_무제_그라디언트_138"/>
    <linearGradient id="_무제_그라디언트_129-5" data-name="무제 그라디언트 129" x1="98.25" y1="571.16" x2="97.78" y2="483.64" xlink:href="#_무제_그라디언트_129"/>
    <linearGradient id="_무제_그라디언트_138-3" data-name="무제 그라디언트 138" x1="98.13" y1="548.71" x2="97.89" y2="503.27" xlink:href="#_무제_그라디언트_138"/>
    <linearGradient id="_무제_그라디언트_129-6" data-name="무제 그라디언트 129" x1="347.25" y1="302.16" x2="346.78" y2="214.64" xlink:href="#_무제_그라디언트_129"/>
    <linearGradient id="_무제_그라디언트_138-4" data-name="무제 그라디언트 138" x1="347.13" y1="279.71" x2="346.89" y2="234.27" xlink:href="#_무제_그라디언트_138"/>
    <linearGradient id="_무제_그라디언트_144" data-name="무제 그라디언트 144" x1="596.43" y1="348.22" x2="596.76" y2="377.58" gradientUnits="userSpaceOnUse">
      <stop offset="0" stop-color="#25a8f4"/>
      <stop offset="0" stop-color="#ffa409"/>
      <stop offset=".96" stop-color="#ffe66f"/>
    </linearGradient>
    <linearGradient id="_무제_그라디언트_46-8" data-name="무제 그라디언트 46" x1="508.37" y1="305.1" x2="508.29" y2="326.81" gradientTransform="matrix(1,0,0,1,0,0)" xlink:href="#_무제_그라디언트_46"/>
    <linearGradient id="_무제_그라디언트_46-9" data-name="무제 그라디언트 46" x1="538.37" y1="305.1" x2="538.29" y2="326.81" gradientTransform="matrix(1,0,0,1,0,0)" xlink:href="#_무제_그라디언트_46"/>
    <linearGradient id="_무제_그라디언트_46-10" data-name="무제 그라디언트 46" x1="568.37" y1="305.1" x2="568.29" y2="326.81" gradientTransform="matrix(1,0,0,1,0,0)" xlink:href="#_무제_그라디언트_46"/>
    <linearGradient id="_무제_그라디언트_46-11" data-name="무제 그라디언트 46" x1="597.37" y1="305.1" x2="597.29" y2="326.81" gradientTransform="matrix(1,0,0,1,0,0)" xlink:href="#_무제_그라디언트_46"/>
    <linearGradient id="_무제_그라디언트_46-12" data-name="무제 그라디언트 46" x1="560.36" y1="281.89" x2="560.36" y2="294.35" gradientTransform="matrix(1,0,0,1,0,0)" xlink:href="#_무제_그라디언트_46"/>
    <linearGradient id="_무제_그라디언트_46-13" data-name="무제 그라디언트 46" x1="560.32" y1="296.47" x2="560.43" y2="309.24" gradientTransform="matrix(1,0,0,1,0,0)" xlink:href="#_무제_그라디언트_46"/>
    <linearGradient id="_무제_그라디언트_245" data-name="무제 그라디언트 245" x1="520.46" y1="360.25" x2="520.54" y2="341.62" gradientUnits="userSpaceOnUse">
      <stop offset="0" stop-color="#25a8f4"/>
      <stop offset="0" stop-color="#fff" stop-opacity=".55"/>
      <stop offset="1" stop-color="#2eaef1" stop-opacity=".55"/>
    </linearGradient>
    <linearGradient id="_무제_그라디언트_142" data-name="무제 그라디언트 142" x1="557.58" y1="367.15" x2="557.46" y2="324.92" gradientUnits="userSpaceOnUse">
      <stop offset="0" stop-color="#25a8f4"/>
      <stop offset="0" stop-color="#fff" stop-opacity=".55"/>
      <stop offset=".73" stop-color="#2eaef1" stop-opacity=".55"/>
    </linearGradient>
    <linearGradient id="_무제_그라디언트_144-2" data-name="무제 그라디언트 144" x1="1179.43" y1="344.22" x2="1179.76" y2="373.58" xlink:href="#_무제_그라디언트_144"/>
    <linearGradient id="_무제_그라디언트_46-14" data-name="무제 그라디언트 46" x1="1091.37" y1="301.1" x2="1091.29" y2="322.81" gradientTransform="matrix(1,0,0,1,0,0)" xlink:href="#_무제_그라디언트_46"/>
    <linearGradient id="_무제_그라디언트_46-15" data-name="무제 그라디언트 46" x1="1121.37" y1="301.1" x2="1121.29" y2="322.81" gradientTransform="matrix(1,0,0,1,0,0)" xlink:href="#_무제_그라디언트_46"/>
    <linearGradient id="_무제_그라디언트_46-16" data-name="무제 그라디언트 46" x1="1151.37" y1="301.1" x2="1151.29" y2="322.81" gradientTransform="matrix(1,0,0,1,0,0)" xlink:href="#_무제_그라디언트_46"/>
    <linearGradient id="_무제_그라디언트_46-17" data-name="무제 그라디언트 46" x1="1180.37" y1="301.1" x2="1180.29" y2="322.81" gradientTransform="matrix(1,0,0,1,0,0)" xlink:href="#_무제_그라디언트_46"/>
    <linearGradient id="_무제_그라디언트_46-18" data-name="무제 그라디언트 46" x1="1143.36" y1="277.89" x2="1143.36" y2="290.35" gradientTransform="matrix(1,0,0,1,0,0)" xlink:href="#_무제_그라디언트_46"/>
    <linearGradient id="_무제_그라디언트_46-19" data-name="무제 그라디언트 46" x1="1143.32" y1="292.47" x2="1143.43" y2="305.24" gradientTransform="matrix(1,0,0,1,0,0)" xlink:href="#_무제_그라디언트_46"/>
    <linearGradient id="_무제_그라디언트_245-2" data-name="무제 그라디언트 245" x1="1103.46" y1="356.25" x2="1103.54" y2="337.62" xlink:href="#_무제_그라디언트_245"/>
    <linearGradient id="_무제_그라디언트_142-2" data-name="무제 그라디언트 142" x1="1140.58" y1="363.15" x2="1140.46" y2="320.92" xlink:href="#_무제_그라디언트_142"/>
    <linearGradient id="_무제_그라디언트_144-3" data-name="무제 그라디언트 144" x1="516.43" y1="148.22" x2="516.76" y2="177.58" xlink:href="#_무제_그라디언트_144"/>
    <linearGradient id="_무제_그라디언트_46-20" data-name="무제 그라디언트 46" x1="428.37" y1="105.1" x2="428.29" y2="126.81" gradientTransform="matrix(1,0,0,1,0,0)" xlink:href="#_무제_그라디언트_46"/>
    <linearGradient id="_무제_그라디언트_46-21" data-name="무제 그라디언트 46" x1="458.37" y1="105.1" x2="458.29" y2="126.81" gradientTransform="matrix(1,0,0,1,0,0)" xlink:href="#_무제_그라디언트_46"/>
    <linearGradient id="_무제_그라디언트_46-22" data-name="무제 그라디언트 46" x1="488.37" y1="105.1" x2="488.29" y2="126.81" gradientTransform="matrix(1,0,0,1,0,0)" xlink:href="#_무제_그라디언트_46"/>
    <linearGradient id="_무제_그라디언트_46-23" data-name="무제 그라디언트 46" x1="517.37" y1="105.1" x2="517.29" y2="126.81" gradientTransform="matrix(1,0,0,1,0,0)" xlink:href="#_무제_그라디언트_46"/>
    <linearGradient id="_무제_그라디언트_46-24" data-name="무제 그라디언트 46" x1="480.36" y1="81.89" x2="480.36" y2="94.35" gradientTransform="matrix(1,0,0,1,0,0)" xlink:href="#_무제_그라디언트_46"/>
    <linearGradient id="_무제_그라디언트_46-25" data-name="무제 그라디언트 46" x1="480.32" y1="96.47" x2="480.43" y2="109.24" gradientTransform="matrix(1,0,0,1,0,0)" xlink:href="#_무제_그라디언트_46"/>
    <linearGradient id="_무제_그라디언트_245-3" data-name="무제 그라디언트 245" x1="440.46" y1="160.25" x2="440.54" y2="141.62" xlink:href="#_무제_그라디언트_245"/>
    <linearGradient id="_무제_그라디언트_142-3" data-name="무제 그라디언트 142" x1="477.58" y1="167.15" x2="477.46" y2="124.92" xlink:href="#_무제_그라디언트_142"/>
    <linearGradient id="_무제_그라디언트_129-7" data-name="무제 그라디언트 129" x1="455.87" y1="523.75" x2="455.41" y2="494.39" xlink:href="#_무제_그라디언트_129"/>
    <linearGradient id="_무제_그라디언트_129-8" data-name="무제 그라디언트 129" x1="367.24" y1="471.76" x2="367.38" y2="450.05" xlink:href="#_무제_그라디언트_129"/>
    <linearGradient id="_무제_그라디언트_129-9" data-name="무제 그라디언트 129" x1="397.2" y1="471.76" x2="397.35" y2="450.05" xlink:href="#_무제_그라디언트_129"/>
    <linearGradient id="_무제_그라디언트_129-10" data-name="무제 그라디언트 129" x1="427.17" y1="471.76" x2="427.31" y2="450.05" xlink:href="#_무제_그라디언트_129"/>
    <linearGradient id="_무제_그라디언트_129-11" data-name="무제 그라디언트 129" x1="456.71" y1="471.76" x2="456.85" y2="450.05" xlink:href="#_무제_그라디언트_129"/>
    <linearGradient id="_무제_그라디언트_129-12" data-name="무제 그라디언트 129" x1="419.37" y1="439.47" x2="419.35" y2="427.01" xlink:href="#_무제_그라디언트_129"/>
    <linearGradient id="_무제_그라디언트_129-13" data-name="무제 그라디언트 129" x1="419.12" y1="451.91" x2="419.47" y2="439.14" xlink:href="#_무제_그라디언트_129"/>
    <linearGradient id="_무제_그라디언트_245-4" data-name="무제 그라디언트 245" x1="379.46" y1="502.25" x2="379.54" y2="483.62" xlink:href="#_무제_그라디언트_245"/>
    <linearGradient id="_무제_그라디언트_142-4" data-name="무제 그라디언트 142" x1="416.58" y1="509.15" x2="416.46" y2="466.92" xlink:href="#_무제_그라디언트_142"/>
    <linearGradient id="_무제_그라디언트_129-14" data-name="무제 그라디언트 129" x1="757.87" y1="457.75" x2="757.41" y2="428.39" xlink:href="#_무제_그라디언트_129"/>
    <linearGradient id="_무제_그라디언트_129-15" data-name="무제 그라디언트 129" x1="669.24" y1="405.76" x2="669.38" y2="384.05" xlink:href="#_무제_그라디언트_129"/>
    <linearGradient id="_무제_그라디언트_129-16" data-name="무제 그라디언트 129" x1="699.2" y1="405.76" x2="699.35" y2="384.05" xlink:href="#_무제_그라디언트_129"/>
    <linearGradient id="_무제_그라디언트_129-17" data-name="무제 그라디언트 129" x1="729.17" y1="405.76" x2="729.31" y2="384.05" xlink:href="#_무제_그라디언트_129"/>
    <linearGradient id="_무제_그라디언트_129-18" data-name="무제 그라디언트 129" x1="758.71" y1="405.76" x2="758.85" y2="384.05" xlink:href="#_무제_그라디언트_129"/>
    <linearGradient id="_무제_그라디언트_129-19" data-name="무제 그라디언트 129" x1="721.37" y1="373.47" x2="721.35" y2="361.01" xlink:href="#_무제_그라디언트_129"/>
    <linearGradient id="_무제_그라디언트_129-20" data-name="무제 그라디언트 129" x1="721.12" y1="385.91" x2="721.47" y2="373.14" xlink:href="#_무제_그라디언트_129"/>
    <linearGradient id="_무제_그라디언트_245-5" data-name="무제 그라디언트 245" x1="681.46" y1="436.25" x2="681.54" y2="417.62" xlink:href="#_무제_그라디언트_245"/>
    <linearGradient id="_무제_그라디언트_142-5" data-name="무제 그라디언트 142" x1="718.58" y1="443.15" x2="718.46" y2="400.92" xlink:href="#_무제_그라디언트_142"/>
    <linearGradient id="_무제_그라디언트_129-21" data-name="무제 그라디언트 129" x1="1082.87" y1="890.75" x2="1082.41" y2="861.39" xlink:href="#_무제_그라디언트_129"/>
    <linearGradient id="_무제_그라디언트_129-22" data-name="무제 그라디언트 129" x1="994.24" y1="838.76" x2="994.38" y2="817.05" xlink:href="#_무제_그라디언트_129"/>
    <linearGradient id="_무제_그라디언트_129-23" data-name="무제 그라디언트 129" x1="1024.2" y1="838.76" x2="1024.35" y2="817.05" xlink:href="#_무제_그라디언트_129"/>
    <linearGradient id="_무제_그라디언트_129-24" data-name="무제 그라디언트 129" x1="1054.17" y1="838.76" x2="1054.31" y2="817.05" xlink:href="#_무제_그라디언트_129"/>
    <linearGradient id="_무제_그라디언트_129-25" data-name="무제 그라디언트 129" x1="1083.71" y1="838.76" x2="1083.85" y2="817.05" xlink:href="#_무제_그라디언트_129"/>
    <linearGradient id="_무제_그라디언트_129-26" data-name="무제 그라디언트 129" x1="1046.37" y1="806.47" x2="1046.35" y2="794.01" xlink:href="#_무제_그라디언트_129"/>
    <linearGradient id="_무제_그라디언트_129-27" data-name="무제 그라디언트 129" x1="1046.12" y1="818.91" x2="1046.47" y2="806.14" xlink:href="#_무제_그라디언트_129"/>
    <linearGradient id="_무제_그라디언트_245-6" data-name="무제 그라디언트 245" x1="1006.46" y1="869.25" x2="1006.54" y2="850.62" xlink:href="#_무제_그라디언트_245"/>
    <linearGradient id="_무제_그라디언트_142-6" data-name="무제 그라디언트 142" x1="1043.58" y1="876.15" x2="1043.46" y2="833.92" xlink:href="#_무제_그라디언트_142"/>
    <linearGradient id="_무제_그라디언트_129-28" data-name="무제 그라디언트 129" x1="698.87" y1="718.75" x2="698.41" y2="689.39" xlink:href="#_무제_그라디언트_129"/>
    <linearGradient id="_무제_그라디언트_129-29" data-name="무제 그라디언트 129" x1="610.24" y1="666.76" x2="610.38" y2="645.05" xlink:href="#_무제_그라디언트_129"/>
    <linearGradient id="_무제_그라디언트_129-30" data-name="무제 그라디언트 129" x1="640.2" y1="666.76" x2="640.35" y2="645.05" xlink:href="#_무제_그라디언트_129"/>
    <linearGradient id="_무제_그라디언트_129-31" data-name="무제 그라디언트 129" x1="670.17" y1="666.76" x2="670.31" y2="645.05" xlink:href="#_무제_그라디언트_129"/>
    <linearGradient id="_무제_그라디언트_129-32" data-name="무제 그라디언트 129" x1="699.71" y1="666.76" x2="699.85" y2="645.05" xlink:href="#_무제_그라디언트_129"/>
    <linearGradient id="_무제_그라디언트_129-33" data-name="무제 그라디언트 129" x1="662.37" y1="634.47" x2="662.35" y2="622.01" xlink:href="#_무제_그라디언트_129"/>
    <linearGradient id="_무제_그라디언트_129-34" data-name="무제 그라디언트 129" x1="662.12" y1="646.91" x2="662.47" y2="634.14" xlink:href="#_무제_그라디언트_129"/>
    <linearGradient id="_무제_그라디언트_245-7" data-name="무제 그라디언트 245" x1="622.46" y1="697.25" x2="622.54" y2="678.62" xlink:href="#_무제_그라디언트_245"/>
    <linearGradient id="_무제_그라디언트_142-7" data-name="무제 그라디언트 142" x1="659.58" y1="704.15" x2="659.46" y2="661.92" xlink:href="#_무제_그라디언트_142"/>
    <linearGradient id="_무제_그라디언트_129-35" data-name="무제 그라디언트 129" x1="690.87" y1="126.75" x2="690.41" y2="97.39" xlink:href="#_무제_그라디언트_129"/>
    <linearGradient id="_무제_그라디언트_129-36" data-name="무제 그라디언트 129" x1="602.24" y1="74.76" x2="602.38" y2="53.05" xlink:href="#_무제_그라디언트_129"/>
    <linearGradient id="_무제_그라디언트_129-37" data-name="무제 그라디언트 129" x1="632.2" y1="74.76" x2="632.35" y2="53.05" xlink:href="#_무제_그라디언트_129"/>
    <linearGradient id="_무제_그라디언트_129-38" data-name="무제 그라디언트 129" x1="662.17" y1="74.76" x2="662.31" y2="53.05" xlink:href="#_무제_그라디언트_129"/>
    <linearGradient id="_무제_그라디언트_129-39" data-name="무제 그라디언트 129" x1="691.71" y1="74.76" x2="691.85" y2="53.05" xlink:href="#_무제_그라디언트_129"/>
    <linearGradient id="_무제_그라디언트_129-40" data-name="무제 그라디언트 129" x1="654.37" y1="42.47" x2="654.35" y2="30.01" xlink:href="#_무제_그라디언트_129"/>
    <linearGradient id="_무제_그라디언트_129-41" data-name="무제 그라디언트 129" x1="654.12" y1="54.91" x2="654.47" y2="42.14" xlink:href="#_무제_그라디언트_129"/>
    <linearGradient id="_무제_그라디언트_245-8" data-name="무제 그라디언트 245" x1="614.46" y1="105.25" x2="614.54" y2="86.62" xlink:href="#_무제_그라디언트_245"/>
    <linearGradient id="_무제_그라디언트_142-8" data-name="무제 그라디언트 142" x1="651.58" y1="112.15" x2="651.46" y2="69.92" xlink:href="#_무제_그라디언트_142"/>
    <linearGradient id="_무제_그라디언트_43" data-name="무제 그라디언트 43" x1="-6596.1" y1="-1255.92" x2="-6517.36" y2="-1255.92" gradientTransform="translate(-1802.19 6463.45) rotate(97.25)" gradientUnits="userSpaceOnUse">
      <stop offset="0" stop-color="#25a8f4"/>
      <stop offset="0" stop-color="#ffa409"/>
      <stop offset="1" stop-color="#ffe66f"/>
    </linearGradient>
    <linearGradient id="_무제_그라디언트_134" data-name="무제 그라디언트 134" x1="81.02" y1="-258.73" x2="80.87" y2="-222.54" gradientTransform="translate(161.35 339.28) rotate(7.25)" gradientUnits="userSpaceOnUse">
      <stop offset="0" stop-color="#25a8f4"/>
      <stop offset="0" stop-color="#ffa409"/>
      <stop offset="1" stop-color="#ffe66f"/>
    </linearGradient>
    <linearGradient id="_무제_그라디언트_134-2" data-name="무제 그라디언트 134" x1="103.22" y1="-241.75" x2="100.54" y2="-241.68" xlink:href="#_무제_그라디언트_134"/>
    <linearGradient id="_무제_그라디언트_134-3" data-name="무제 그라디언트 134" x1="58.88" y1="-241.69" x2="61.56" y2="-241.69" xlink:href="#_무제_그라디언트_134"/>
    <linearGradient id="_무제_그라디언트_58" data-name="무제 그라디언트 58" x1="831.12" y1="186.59" x2="831.63" y2="213.23" gradientUnits="userSpaceOnUse">
      <stop offset="0" stop-color="#ff2827"/>
      <stop offset="1" stop-color="#ffbbb2"/>
    </linearGradient>
    <linearGradient id="_무제_그라디언트_148" data-name="무제 그라디언트 148" x1="832.7" y1="185.71" x2="832.26" y2="273.43" gradientUnits="userSpaceOnUse">
      <stop offset=".21" stop-color="#ff2827"/>
      <stop offset=".45" stop-color="#ffbbb2"/>
    </linearGradient>
    <linearGradient id="_무제_그라디언트_147" data-name="무제 그라디언트 147" x1="833.64" y1="120.24" x2="833.72" y2="219.44" gradientUnits="userSpaceOnUse">
      <stop offset="0" stop-color="#ff2827"/>
      <stop offset="1" stop-color="#ffbbb2"/>
    </linearGradient>
  </defs>
  <g id="_길" data-name="길">
    <path class="cls-69" d="M386.51-38.41c32.45,37.55,65.31,74.75,98.56,111.6,33.25,36.85,66.9,73.33,100.94,109.45,34.04,36.12,68.46,71.88,103.27,107.26,34.81,35.38,69.99,70.39,105.55,105.01,35.56,34.62,71.49,68.87,107.79,102.72,4.57,4.26,9.14,8.52,13.72,12.76,5.75,5.34,15.59,6.12,21.21,0,5.33-5.8,6.14-15.51,0-21.21-36.38-33.76-72.41-67.9-108.06-102.43-35.65-34.53-70.93-69.44-105.83-104.73-34.9-35.29-69.42-70.95-103.56-106.98-34.13-36.03-67.88-72.43-101.23-109.18S452.55-8,420-45.46c-4.1-4.72-8.19-9.44-12.27-14.16-5.15-5.96-16.01-5.67-21.21,0-5.83,6.35-5.49,14.86,0,21.21h0Z"/>
    <path class="cls-69" d="M914.01,493.64c-23.09,44.14-45.71,88.52-67.85,133.15-22.04,44.43-43.59,89.09-64.67,133.98-21.17,45.09-41.86,90.41-62.05,135.95-20.45,46.11-40.38,92.45-59.84,138.99-19.22,45.96-37.94,92.12-56.16,138.48-2.28,5.8-4.55,11.59-6.81,17.39-2.86,7.33,3.14,16.78,10.48,18.45,8.61,1.96,15.39-2.63,18.45-10.48,18.02-46.2,36.53-92.21,55.53-138.02,4.77-11.5,9.58-22.99,14.41-34.47.26-.61.52-1.23.78-1.84.07-.17.93-2.21.28-.67-.71,1.68.38-.9.54-1.28.26-.61.52-1.23.78-1.84,1.21-2.87,2.43-5.73,3.64-8.6,2.43-5.73,4.87-11.46,7.32-17.18,9.8-22.9,19.71-45.75,29.76-68.54,19.99-45.38,40.47-90.55,61.44-135.49,20.87-44.74,42.22-89.26,64.04-133.54,21.92-44.48,44.32-88.73,67.19-132.73,2.87-5.52,5.75-11.05,8.64-16.56,3.63-6.95,2.01-16.62-5.38-20.52-6.91-3.65-16.64-2.04-20.52,5.38h0Z"/>
    <path class="cls-69" d="M1457.31,401.8c-41.11-29.66-82.03-59.58-122.84-89.65-40.36-29.74-80.61-59.62-120.84-89.53-39.83-29.61-79.64-59.24-119.53-88.77-39.37-29.15-78.82-58.2-118.44-87.03-39.47-28.72-79.1-57.21-118.98-85.34-4.93-3.48-9.86-6.94-14.79-10.41-6.44-4.52-16.95-1.37-20.52,5.38-4.06,7.69-1.49,15.7,5.38,20.52,39.91,28.02,79.56,56.41,119.04,85.05,39.77,28.85,79.37,57.95,118.88,87.16,39.86,29.47,79.64,59.06,119.42,88.64,40.02,29.75,80.04,59.5,120.16,89.11s81.55,59.99,122.55,89.67c5.12,3.7,10.24,7.41,15.36,11.1,6.38,4.61,16.99,1.31,20.52-5.38,4.1-7.77,1.43-15.61-5.38-20.52h0Z"/>
    <path class="cls-69" d="M693.01,280.64c-24.39,46.63-48.29,93.52-71.68,140.67-23.28,46.93-46.06,94.12-68.32,141.54-22.37,47.64-44.22,95.51-65.55,143.62-21.57,48.65-42.6,97.54-63.13,146.64-20.3,48.55-40.08,97.32-59.33,146.3-2.41,6.12-4.8,12.25-7.19,18.38-2.86,7.33,3.14,16.78,10.48,18.45,8.61,1.96,15.39-2.63,18.45-10.48,19.04-48.81,38.59-97.42,58.67-145.81,5.04-12.15,10.12-24.29,15.22-36.42.27-.65.55-1.3.82-1.95.04-.11.95-2.25.34-.81-.67,1.59.47-1.11.61-1.45.27-.65.55-1.3.82-1.95,1.28-3.03,2.56-6.06,3.85-9.09,2.57-6.06,5.15-12.11,7.74-18.16,10.35-24.19,20.83-48.33,31.44-72.41,21.12-47.94,42.76-95.66,64.91-143.14,22.05-47.27,44.6-94.3,67.66-141.08,23.16-46.99,46.82-93.74,70.98-140.23,3.03-5.84,6.08-11.67,9.13-17.5,3.63-6.95,2.01-16.62-5.38-20.52-6.91-3.65-16.64-2.04-20.52,5.38h0Z"/>
    <path class="cls-69" d="M1683.02,384.39c-49.68,3.94-99.33,8.4-148.91,13.4-49.34,4.98-98.63,10.49-147.85,16.53-50.31,6.17-100.55,12.88-150.71,20.13-49.08,7.09-98.09,14.71-147.01,22.85-49.16,8.18-98.24,16.9-147.21,26.14-6.09,1.15-12.18,2.31-18.27,3.47-7.72,1.48-12.83,11.17-10.48,18.45,2.67,8.24,10.18,12.06,18.45,10.48,97.41-18.65,195.23-35.22,293.35-49.67,24.53-3.61,49.08-7.09,73.65-10.44,2.95-.4,5.9-.8,8.85-1.2.18-.02,5.03-.68,1.91-.26,1.47-.2,2.95-.4,4.42-.59,6.39-.85,12.78-1.7,19.17-2.53,12.29-1.61,24.59-3.18,36.89-4.72,49.21-6.16,98.48-11.79,147.81-16.89,55.25-5.71,110.56-10.75,165.93-15.14,7.8-.62,15.38-6.46,15-15-.34-7.6-6.62-15.66-15-15h0Z"/>
    <path class="cls-69" d="M897.75,536.12c-45.67,4.53-91.29,9.54-136.86,15.05-46.48,5.62-92.9,11.74-139.25,18.34-45.51,6.48-90.96,13.45-136.32,20.91-45.4,7.46-90.72,15.41-135.96,23.84s-90.45,17.36-135.53,26.76c-5.61,1.17-11.22,2.35-16.82,3.53-7.69,1.62-12.87,11.07-10.48,18.45,2.63,8.12,10.21,12.22,18.45,10.48,44.84-9.47,89.77-18.47,134.79-26.99,44.99-8.51,90.07-16.55,135.23-24.1,45.35-7.59,90.78-14.69,136.28-21.3,11.31-1.64,22.63-3.26,33.95-4.84,5.66-.79,11.32-1.58,16.98-2.35,2.72-.37,5.44-.74,8.15-1.11,1.36-.18,2.72-.37,4.08-.55.68-.09,1.36-.18,2.04-.28.29-.04,3.12-.42,1.4-.19s.53-.07.72-.1c.68-.09,1.36-.18,2.04-.27,1.36-.18,2.72-.36,4.08-.54,2.95-.39,5.89-.78,8.84-1.17,5.66-.75,11.33-1.48,17-2.21,11.33-1.46,22.66-2.89,34-4.29,45.33-5.59,90.71-10.7,136.15-15.33,5.68-.58,11.35-1.15,17.03-1.71,7.78-.77,15.39-6.35,15-15-.33-7.46-6.64-15.83-15-15h0Z"/>
    <path class="cls-69" d="M1140.42,1032.33c32.3-37.86,64.2-76.06,95.68-114.61s62.54-77.43,93.19-116.64c31.07-39.77,61.74-79.85,91.96-120.28,29.8-39.86,59.17-80.04,88.1-120.53,28.93-40.49,57.43-81.3,85.48-122.4,3.47-5.08,6.92-10.16,10.38-15.25,4.42-6.51,1.45-16.91-5.38-20.52-7.59-4.01-15.81-1.57-20.52,5.38-27.84,41.02-56.11,81.75-84.82,122.16-28.71,40.41-57.85,80.52-87.43,120.31-14.79,19.89-29.68,39.71-44.68,59.44-7.56,9.94-15.14,19.87-22.75,29.77-1.76,2.29-3.51,4.57-5.27,6.85-.94,1.22-1.88,2.43-2.82,3.65-.47.61-.94,1.22-1.41,1.83-1.34,1.74,2.18-2.82-.12.16-3.76,4.86-7.53,9.72-11.3,14.58-30.43,39.14-61.27,77.95-92.53,116.43-31.26,38.48-62.93,76.62-95.01,114.41-3.98,4.69-7.96,9.37-11.96,14.05-5.09,5.96-6.29,15.44,0,21.21,5.6,5.14,15.77,6.37,21.21,0h0Z"/>
    <path class="cls-69" d="M461.39,823.48c20.58,1.65,41.18,3.01,61.79,4.11,19.7,1.05,39.42,1.85,59.14,2.49,19.49.63,38.98,1.09,58.47,1.48s39.09.71,58.63,1.04c20.26.35,40.52.72,60.78,1.21,2.6.06,5.2.13,7.8.19,3.78.1,7.95-1.74,10.61-4.39s4.56-6.87,4.39-10.61-1.45-7.9-4.39-10.61-6.51-4.29-10.61-4.39c-20.37-.51-40.74-.91-61.11-1.27-19.6-.35-39.19-.66-58.79-1.03s-38.97-.81-58.45-1.39c-19.65-.59-39.3-1.35-58.94-2.33-20.49-1.03-40.97-2.3-61.42-3.87-2.63-.2-5.27-.41-7.9-.62-3.65-.29-8.1,1.88-10.61,4.39s-4.56,6.87-4.39,10.61,1.45,7.9,4.39,10.61,6.45,4.06,10.61,4.39h0Z"/>
    <path class="cls-69" d="M-10.39,858.61c61.3-52.58,122.05-105.82,182.21-159.71,59.75-53.52,118.92-107.68,177.51-162.47,58.8-54.99,117.02-110.61,174.62-166.86,57.62-56.25,114.63-113.12,171.03-170.6,56.4-57.49,112.19-115.58,167.35-174.26,6.77-7.21,13.54-14.42,20.29-21.65,5.36-5.73,6.11-15.61,0-21.21s-15.49-6.12-21.21,0c-55.2,59.03-111.03,117.48-167.48,175.31-56.05,57.42-112.72,114.24-169.99,170.44-57.46,56.39-115.53,112.17-174.19,167.32-58.65,55.14-117.89,109.65-177.71,163.51-59.81,53.86-120.2,107.07-181.16,159.62-7.49,6.45-14.98,12.9-22.48,19.33-5.98,5.13-5.66,16.02,0,21.21,6.36,5.84,14.84,5.47,21.21,0h0Z"/>
  </g>
  <g id="_지하철_길" data-name="지하철 길">
    <rect class="cls-65" x="206.42" y="-363.2" width="27" height="1034.63" transform="translate(232.12 -114.16) rotate(57.58)"/>
  </g>
  <g id="_건물" data-name="건물">
    <g>
      <circle class="cls-62" cx="271.9" cy="117.35" r="39.7"/>
      <circle class="cls-117" cx="271.9" cy="117.35" r="32.28"/>
      <text class="cls-119" transform="translate(256.7 128.84) rotate(10.55)"><tspan x="0" y="0">2</tspan></text>
    </g>
    <g>
      <rect class="cls-67" x="173.34" y="350.12" width="79.12" height="52.2"/>
      <path class="cls-76" d="M192.37,308c-10.42,0-18.86,8.45-18.86,18.86s8.45,18.86,18.86,18.86,18.86-8.45,18.86-18.86-8.45-18.86-18.86-18.86ZM192.37,337.03c-5.61,0-10.17-4.55-10.17-10.17s4.55-10.17,10.17-10.17,10.17,4.55,10.17,10.17-4.55,10.17-10.17,10.17Z"/>
      <path class="cls-77" d="M235.59,308c-10.42,0-18.86,8.45-18.86,18.86s8.45,18.86,18.86,18.86,18.86-8.45,18.86-18.86-8.45-18.86-18.86-18.86ZM235.59,337.03c-5.61,0-10.17-4.55-10.17-10.17s4.55-10.17,10.17-10.17,10.17,4.55,10.17,10.17-4.55,10.17-10.17,10.17Z"/>
      <path class="cls-68" d="M268.77,369.41h-8.97v13.62h8.97c2.37,4.38,6.94,7.4,12.23,7.55v-28.73c-5.29.16-9.87,3.17-12.23,7.55Z"/>
    </g>
    <g>
      <g>
        <g>
          <polygon class="cls-56" points="1154.65 707.97 1154.12 707.45 1154.12 707 1153.67 707 1131.48 685.25 1113.57 707.03 1113.38 707.03 1113.38 707.25 1112.85 707.9 1113.38 707.9 1113.42 764.4 1154.15 764.38 1154.12 707.97 1154.65 707.97"/>
          <g>
            <g>
              <path class="cls-71" d="M1131.33,687.92l1.95-2.06c-.66.69-1.31,1.38-1.95,2.06Z"/>
              <path class="cls-61" d="M1133.45,690.05c.57-.6,1.14-1.2,1.71-1.8.08-.09.16-.17.25-.26.29-.27.5-.59.62-.97.19-.36.27-.74.26-1.16.02-.41-.07-.8-.26-1.16-.12-.37-.33-.69-.62-.97l-.61-.47c-.47-.27-.97-.41-1.51-.41l-.8.11c-.51.14-.95.4-1.32.77-.65.69-1.3,1.38-1.95,2.06-.29.27-.5.59-.62.97-.19.36-.27.74-.26,1.16-.02.41.07.8.26,1.16.12.37.33.69.62.97l.61.47c.47.27.97.41,1.51.41l.8-.11c.51-.14.95-.4,1.32-.77.65-.69,1.3-1.38,1.95-2.06l-4.24-4.24c-.57.6-1.14,1.2-1.71,1.8-.08.09-.16.17-.25.26-.29.27-.5.59-.62.97-.19.36-.27.74-.26,1.16-.02.41.07.8.26,1.16.12.37.33.69.62.97l.61.47c.47.27.97.41,1.51.41l.8-.11c.51-.14.95-.4,1.32-.77Z"/>
            </g>
            <g>
              <path class="cls-71" d="M1131.33,687.92l-19.67,20.77c6.68-6.83,12.93-13.63,19.67-20.77Z"/>
              <path class="cls-61" d="M1129.21,685.8c-5.73,6.05-11.46,12.1-17.19,18.15-.83.87-1.65,1.75-2.48,2.62-1.11,1.18-1.17,3.07,0,4.24s3.11,1.16,4.24,0c6.67-6.82,13.12-13.84,19.67-20.77,1.11-1.18,1.17-3.07,0-4.24s-3.13-1.18-4.24,0c-6.55,6.93-13,13.95-19.67,20.77l4.24,4.24c5.73-6.05,11.46-12.1,17.19-18.15.83-.87,1.65-1.75,2.48-2.62,1.11-1.18,1.17-3.07,0-4.24s-3.12-1.18-4.24,0Z"/>
            </g>
            <g>
              <path class="cls-71" d="M1153.75,705.94l2.03,1.99c-.68-.67-1.35-1.33-2.03-1.99Z"/>
              <path class="cls-61" d="M1151.63,708.06c.59.58,1.18,1.16,1.77,1.74.08.08.17.16.25.25.27.29.59.5.97.62.36.19.74.27,1.16.26.41.02.8-.07,1.16-.26.37-.12.69-.33.97-.62l.47-.61c.27-.47.41-.97.41-1.51l-.11-.8c-.14-.51-.4-.95-.77-1.32-.67-.66-1.35-1.33-2.03-1.99-.27-.29-.59-.5-.97-.62-.36-.19-.74-.27-1.16-.26-.41-.02-.8.07-1.16.26-.37.12-.69.33-.97.62l-.47.61c-.27.47-.41.97-.41,1.51l.11.8c.14.51.4.95.77,1.32.68.66,1.35,1.32,2.03,1.99l4.24-4.24c-.59-.58-1.18-1.16-1.77-1.74-.08-.08-.17-.16-.25-.25-.27-.29-.59-.5-.97-.62-.36-.19-.74-.27-1.16-.26-.41-.02-.8.07-1.16.26-.37.12-.69.33-.97.62l-.47.61c-.27.47-.41.97-.41,1.51l.11.8c.14.51.4.95.77,1.32Z"/>
            </g>
            <g>
              <path class="cls-71" d="M1153.75,705.94l-20.41-20.03c6.71,6.8,13.39,13.16,20.41,20.03Z"/>
              <path class="cls-61" d="M1155.87,703.82c-5.96-5.85-11.91-11.69-17.87-17.54-.85-.83-1.69-1.66-2.54-2.49-2.76-2.71-6.96,1.49-4.24,4.24,6.7,6.78,13.59,13.36,20.41,20.03,1.16,1.13,3.09,1.15,4.24,0s1.16-3.11,0-4.24c-6.81-6.67-13.71-13.25-20.41-20.03l-4.24,4.24c5.96,5.85,11.91,11.69,17.87,17.54.85.83,1.69,1.66,2.54,2.49,1.16,1.13,3.09,1.15,4.24,0s1.16-3.1,0-4.24Z"/>
            </g>
          </g>
          <g class="cls-118">
            <rect class="cls-117" x="1120.5" y="716.56" width="7.1" height="7.1"/>
            <rect class="cls-117" x="1130.92" y="716.55" width="16.1" height="7.1"/>
          </g>
          <g class="cls-118">
            <rect class="cls-117" x="1120.5" y="728.75" width="7.1" height="7.1"/>
            <rect class="cls-117" x="1130.92" y="728.74" width="16.1" height="7.1"/>
          </g>
        </g>
        <g class="cls-118">
          <rect class="cls-117" x="1120.51" y="741.23" width="7.1" height="7.1"/>
          <rect class="cls-117" x="1130.93" y="741.22" width="16.1" height="7.1"/>
        </g>
      </g>
      <g>
        <g>
          <polygon class="cls-9" points="1254.92 707.91 1254.39 707.39 1254.39 706.94 1253.93 706.95 1231.74 685.19 1213.84 706.97 1213.65 706.97 1213.65 707.19 1213.12 707.84 1213.65 707.84 1213.69 764.35 1254.42 764.32 1254.39 707.91 1254.92 707.91"/>
          <g>
            <g>
              <path class="cls-71" d="M1231.59,687.87l1.95-2.06c-.66.69-1.31,1.38-1.95,2.06Z"/>
              <path class="cls-61" d="M1233.72,689.99c.57-.6,1.14-1.2,1.71-1.8.08-.09.16-.17.25-.26.29-.27.5-.59.62-.97.19-.36.27-.74.26-1.16.02-.41-.07-.8-.26-1.16-.12-.37-.33-.69-.62-.97l-.61-.47c-.47-.27-.97-.41-1.51-.41l-.8.11c-.51.14-.95.4-1.32.77-.65.69-1.3,1.38-1.95,2.06-.29.27-.5.59-.62.97-.19.36-.27.74-.26,1.16-.02.41.07.8.26,1.16.12.37.33.69.62.97l.61.47c.47.27.97.41,1.51.41l.8-.11c.51-.14.95-.4,1.32-.77.65-.69,1.3-1.38,1.95-2.06l-4.24-4.24c-.57.6-1.14,1.2-1.71,1.8-.08.09-.16.17-.25.26-.29.27-.5.59-.62.97-.19.36-.27.74-.26,1.16-.02.41.07.8.26,1.16.12.37.33.69.62.97l.61.47c.47.27.97.41,1.51.41l.8-.11c.51-.14.95-.4,1.32-.77Z"/>
            </g>
            <g>
              <path class="cls-71" d="M1231.59,687.87l-19.67,20.77c6.68-6.83,12.93-13.63,19.67-20.77Z"/>
              <path class="cls-61" d="M1229.47,685.74c-5.73,6.05-11.46,12.1-17.19,18.15-.83.87-1.65,1.75-2.48,2.62-1.11,1.18-1.17,3.07,0,4.24s3.11,1.16,4.24,0c6.67-6.82,13.12-13.84,19.67-20.77,1.11-1.18,1.17-3.07,0-4.24s-3.13-1.18-4.24,0c-6.55,6.93-13,13.95-19.67,20.77l4.24,4.24c5.73-6.05,11.46-12.1,17.19-18.15.83-.87,1.65-1.75,2.48-2.62,1.11-1.18,1.17-3.07,0-4.24s-3.12-1.18-4.24,0Z"/>
            </g>
            <g>
              <path class="cls-71" d="M1254.02,705.88l2.03,1.99c-.68-.67-1.35-1.33-2.03-1.99Z"/>
              <path class="cls-61" d="M1251.9,708c.59.58,1.18,1.16,1.77,1.74.08.08.17.16.25.25.27.29.59.5.97.62.36.19.74.27,1.16.26.41.02.8-.07,1.16-.26.37-.12.69-.33.97-.62l.47-.61c.27-.47.41-.97.41-1.51l-.11-.8c-.14-.51-.4-.95-.77-1.32-.67-.66-1.35-1.33-2.03-1.99-.27-.29-.59-.5-.97-.62-.36-.19-.74-.27-1.16-.26-.41-.02-.8.07-1.16.26-.37.12-.69.33-.97.62l-.47.61c-.27.47-.41.97-.41,1.51l.11.8c.14.51.4.95.77,1.32.68.66,1.35,1.32,2.03,1.99l4.24-4.24c-.59-.58-1.18-1.16-1.77-1.74-.08-.08-.17-.16-.25-.25-.27-.29-.59-.5-.97-.62-.36-.19-.74-.27-1.16-.26-.41-.02-.8.07-1.16.26-.37.12-.69.33-.97.62l-.47.61c-.27.47-.41.97-.41,1.51l.11.8c.14.51.4.95.77,1.32Z"/>
            </g>
            <g>
              <path class="cls-71" d="M1254.02,705.88l-20.41-20.03c6.71,6.8,13.39,13.16,20.41,20.03Z"/>
              <path class="cls-61" d="M1256.14,703.76c-5.96-5.85-11.91-11.69-17.87-17.54-.85-.83-1.69-1.66-2.54-2.49-2.76-2.71-6.96,1.49-4.24,4.24,6.7,6.78,13.59,13.36,20.41,20.03,1.16,1.13,3.09,1.15,4.24,0s1.16-3.11,0-4.24c-6.81-6.67-13.71-13.25-20.41-20.03l-4.24,4.24c5.96,5.85,11.91,11.69,17.87,17.54.85.83,1.69,1.66,2.54,2.49,1.16,1.13,3.09,1.15,4.24,0s1.16-3.1,0-4.24Z"/>
            </g>
          </g>
          <g class="cls-118">
            <rect class="cls-117" x="1220.76" y="716.5" width="7.1" height="7.1"/>
            <rect class="cls-117" x="1231.18" y="716.49" width="16.1" height="7.1"/>
          </g>
          <g class="cls-118">
            <rect class="cls-117" x="1220.77" y="728.69" width="7.1" height="7.1"/>
            <rect class="cls-117" x="1231.19" y="728.68" width="16.1" height="7.1"/>
          </g>
        </g>
        <g class="cls-118">
          <rect class="cls-117" x="1220.78" y="741.17" width="7.1" height="7.1"/>
          <rect class="cls-117" x="1231.2" y="741.16" width="16.1" height="7.1"/>
        </g>
      </g>
      <polygon class="cls-10" points="1216.43 685.16 1215.61 684.36 1215.61 683.67 1214.91 683.67 1180.74 650.17 1153.17 683.71 1152.88 683.71 1152.88 684.06 1152.06 685.05 1152.88 685.05 1152.93 772.07 1215.66 772.03 1215.61 685.16 1216.43 685.16"/>
      <g>
        <g>
          <path class="cls-71" d="M1181.18,652.19l2.96-3.07c-1,1.03-1.98,2.05-2.96,3.07Z"/>
          <path class="cls-61" d="M1184.36,655.38c.86-.9,1.73-1.79,2.59-2.69.12-.13.24-.25.37-.38.44-.41.75-.89.93-1.45.28-.54.41-1.11.39-1.73.02-.62-.11-1.2-.39-1.73-.18-.56-.49-1.04-.93-1.45l-.91-.7c-.7-.41-1.46-.61-2.27-.61l-1.2.16c-.76.21-1.42.6-1.99,1.16-.99,1.02-1.97,2.05-2.96,3.07-.44.41-.75.89-.93,1.45-.28.54-.41,1.11-.39,1.73-.02.62.11,1.2.39,1.73.18.56.49,1.04.93,1.45l.91.7c.7.41,1.46.61,2.27.61l1.2-.16c.76-.21,1.42-.6,1.99-1.16.99-1.02,1.97-2.05,2.96-3.07l-6.36-6.36c-.86.9-1.73,1.79-2.59,2.69-.12.13-.24.25-.37.38-.44.41-.75.89-.93,1.45-.28.54-.41,1.11-.39,1.73-.02.62.11,1.2.39,1.73.18.56.49,1.04.93,1.45l.91.7c.7.41,1.46.61,2.27.61l1.2-.16c.76-.21,1.42-.6,1.99-1.16Z"/>
        </g>
        <g>
          <path class="cls-71" d="M1181.18,652.19l-29.79,30.9c10.11-10.15,19.58-20.28,29.79-30.9Z"/>
          <path class="cls-61" d="M1178,649.01c-3.35,3.47-6.69,6.94-10.04,10.41-5.34,5.54-10.69,11.09-16.03,16.63-1.24,1.29-2.48,2.57-3.72,3.86-1.64,1.7-1.81,4.7,0,6.36s4.59,1.78,6.36,0c10.09-10.14,19.87-20.59,29.79-30.9,1.63-1.7,1.82-4.7,0-6.36s-4.62-1.81-6.36,0c-9.92,10.31-19.7,20.76-29.79,30.9l6.36,6.36c3.35-3.47,6.69-6.94,10.04-10.41,5.34-5.54,10.69-11.09,16.03-16.63,1.24-1.29,2.48-2.57,3.72-3.86,1.64-1.7,1.81-4.7,0-6.36s-4.62-1.81-6.36,0Z"/>
        </g>
        <g>
          <path class="cls-71" d="M1215.14,678.98l3.07,2.96c-1.03-.99-2.05-1.98-3.07-2.96Z"/>
          <path class="cls-61" d="M1211.96,682.17c.9.86,1.79,1.73,2.69,2.59.13.12.25.24.38.37.41.44.89.75,1.45.93.54.28,1.11.41,1.73.39.62.02,1.2-.11,1.73-.39.56-.18,1.04-.49,1.45-.93l.7-.91c.41-.7.61-1.46.61-2.27l-.16-1.2c-.21-.76-.6-1.42-1.16-1.99-1.02-.99-2.04-1.97-3.07-2.96-.41-.44-.89-.75-1.45-.93-.54-.28-1.11-.41-1.73-.39-.62-.02-1.2.11-1.73.39-.56.18-1.04.49-1.45.93l-.7.91c-.41.7-.61,1.46-.61,2.27l.16,1.2c.21.76.6,1.42,1.16,1.99,1.02.98,2.05,1.97,3.07,2.96l6.36-6.36c-.9-.86-1.79-1.73-2.69-2.59-.13-.12-.25-.24-.38-.37-.41-.44-.89-.75-1.45-.93-.54-.28-1.11-.41-1.73-.39-.62-.02-1.2.11-1.73.39-.56.18-1.04.49-1.45.93l-.7.91c-.41.7-.61,1.46-.61,2.27l.16,1.2c.21.76.6,1.42,1.16,1.99Z"/>
        </g>
        <g>
          <path class="cls-71" d="M1215.14,678.98l-30.9-29.79c10.16,10.11,20.28,19.58,30.9,29.79Z"/>
          <path class="cls-61" d="M1218.32,675.8c-3.47-3.35-6.94-6.69-10.41-10.04-5.54-5.34-11.09-10.69-16.63-16.03-1.29-1.24-2.57-2.48-3.86-3.72-1.7-1.64-4.7-1.81-6.36,0s-1.78,4.59,0,6.36c10.14,10.09,20.59,19.88,30.9,29.79,1.7,1.63,4.7,1.82,6.36,0s1.81-4.62,0-6.36c-10.32-9.92-20.76-19.7-30.9-29.79l-6.36,6.36c3.47,3.35,6.94,6.69,10.41,10.04,5.54,5.34,11.09,10.69,16.63,16.03,1.29,1.24,2.57,2.48,3.86,3.72,1.7,1.64,4.7,1.81,6.36,0s1.81-4.62,0-6.36Z"/>
        </g>
      </g>
      <g class="cls-118">
        <rect class="cls-117" x="1163.89" y="691.58" width="13.76" height="9.18"/>
        <rect class="cls-117" x="1190.86" y="691.57" width="13.76" height="9.18"/>
      </g>
      <g class="cls-118">
        <rect class="cls-117" x="1163.9" y="709.46" width="13.76" height="9.18"/>
        <rect class="cls-117" x="1190.87" y="709.45" width="13.76" height="9.18"/>
      </g>
      <path class="cls-117" d="M1193.07,762.79v-21.13c-.02-4.41-3.19-7.98-7.1-7.98h-3.79c-3.91,0-7.08,3.58-7.08,7.99v21.13s17.97-.01,17.97-.01Z"/>
      <g>
        <circle class="cls-117" cx="1184.84" cy="677.13" r="8.02"/>
        <g>
          <path class="cls-70" d="M1185.79,679.58v-4.56c0-.95-.42-1.72-.94-1.72h-.5c-.51,0-.93.77-.93,1.72v4.56s2.37,0,2.37,0Z"/>
          <path class="cls-70" d="M1183.43,679.58h4.56c.95,0,1.72-.42,1.72-.94v-.5c0-.51-.77-.93-1.72-.93h-4.56s0,2.37,0,2.37Z"/>
        </g>
      </g>
    </g>
    <g>
      <circle class="cls-82" cx="516.12" cy="831.15" r="11.62"/>
      <path class="cls-78" d="M552.24,823.78c-1.92-1.42-4.64-.99-6.24.78l-19.54,21.82c-1.49,1.66-3.61,2.61-5.85,2.61h-8.47c-2.56,0-5.01-1.09-6.72-3l-19.19-21.43c-1.59-1.78-4.31-2.2-6.24-.78-2.2,1.63-2.49,4.75-.7,6.74l21.59,24.1v29.5c-.01.12-.04.23-.04.35v34.66c0,2.21,1.79,4,4,4h5.21c2.21,0,4-1.79,4-4v-26.47h4.06v26.47c0,2.21,1.79,4,4,4h5.21c2.21,0,4-1.79,4-4v-26.47h.04v-38.04l21.59-24.1c1.78-1.99,1.5-5.11-.7-6.74Z"/>
    </g>
    <g>
      <circle class="cls-80" cx="624.36" cy="831.15" r="11.62"/>
      <path class="cls-81" d="M660.49,823.78c-1.92-1.42-4.64-.99-6.24.78l-19.54,21.82c-1.49,1.66-3.61,2.61-5.85,2.61h-8.47c-2.56,0-5.01-1.09-6.72-3l-19.19-21.43c-1.59-1.78-4.31-2.2-6.24-.78-2.2,1.63-2.49,4.75-.7,6.74l21.59,24.1v29.5c-.01.12-.04.23-.04.35v34.66c0,2.21,1.79,4,4,4h5.21c2.21,0,4-1.79,4-4v-26.47h4.06v26.47c0,2.21,1.79,4,4,4h5.21c2.21,0,4-1.79,4-4v-26.47h.04v-38.04l21.59-24.1c1.78-1.99,1.5-5.11-.7-6.74Z"/>
    </g>
    <g>
      <path class="cls-74" d="M155.47,836.48c-.86,9.96.23,20.74,4.03,30.05,1.65,4.04,4.71,8.42,9.66,8s7.95-4.8,9.18-9.06c1.44-5.01.93-10.29,1.34-15.42.3-3.78,1.33-8.14,4.6-10.09.75-.45,1.24-.67,2.18-.78-.33.04.76.03.88.05-.45-.06.77.24.47.12,1.57.6,2.62,2.27,3.17,3.85.78,2.24.84,4.62.87,6.97.04,2.78.06,5.57.09,8.36.13,12.2.26,24.4.38,36.59.04,3.86,6.04,3.87,6,0-.11-10.88-.23-21.76-.34-32.64-.06-5.32.22-10.77-.31-16.06-.47-4.72-2.23-10.03-6.84-12.25-4.3-2.07-9.25-.47-12.42,2.88-3.4,3.6-4.43,8.64-4.76,13.43s.37,9.95-1.44,14.44c-.54,1.35-1.57,2.81-2.74,3.43-.3.16-.3.12-.79.25.14-.04-.1,0-.36-.06-.6-.12-1.09-.53-1.65-1.2-1.16-1.39-1.87-3.59-2.47-5.5-.86-2.72-1.54-5.5-2.05-8.32-1-5.61-1.17-11.36-.68-17.03.14-1.62-1.48-3-3-3-1.74,0-2.86,1.38-3,3h0Z"/>
      <path class="cls-57" d="M159.68,838.89h-5.59c-6.37,0-11.7-4.83-12.32-11.17l-8.62-87.62c-.72-7.28,5-13.59,12.32-13.59h24.1c7.39,0,13.13,6.43,12.3,13.77l-9.89,87.62c-.71,6.26-6,10.99-12.3,10.99Z"/>
      <path class="cls-117" d="M182.07,738.66c1.94-3.7,3.04-7.89,3.04-12.33,0-14.9-12.35-26.99-27.59-26.99s-27.59,12.08-27.59,26.99c0,4.44,1.1,8.63,3.04,12.33h49.11Z"/>
      <path class="cls-16" d="M130.06,723.65c-.09.88-.14,1.78-.14,2.68,0,4.44,1.1,8.63,3.04,12.33h49.11c1.94-3.7,3.04-7.89,3.04-12.33,0-.91-.05-1.8-.14-2.68h-54.92Z"/>
      <path class="cls-50" d="M183.8,718.07c-3.57-10.86-13.98-18.73-26.28-18.73s-22.71,7.86-26.28,18.73h52.55Z"/>
      <rect class="cls-117" x="132.21" y="738.66" width="50.61" height="5.58"/>
    </g>
    <g>
      <path class="cls-74" d="M1278.47,557.48c-.86,9.96.23,20.74,4.03,30.05,1.65,4.04,4.71,8.42,9.66,8s7.95-4.8,9.18-9.06c1.44-5.01.93-10.29,1.34-15.42.3-3.78,1.33-8.14,4.6-10.09.75-.45,1.24-.67,2.18-.78-.33.04.76.03.88.05-.45-.06.77.24.47.12,1.57.6,2.62,2.27,3.17,3.85.78,2.24.84,4.62.87,6.97.04,2.78.06,5.57.09,8.36.13,12.2.26,24.4.38,36.59.04,3.86,6.04,3.87,6,0-.11-10.88-.23-21.76-.34-32.64-.06-5.32.22-10.77-.31-16.06-.47-4.72-2.23-10.03-6.84-12.25-4.3-2.07-9.25-.47-12.42,2.88-3.4,3.6-4.43,8.64-4.76,13.43s.37,9.95-1.44,14.44c-.54,1.35-1.57,2.81-2.74,3.43-.3.16-.3.12-.79.25.14-.04-.1,0-.36-.06-.6-.12-1.09-.53-1.65-1.2-1.16-1.39-1.87-3.59-2.47-5.5-.86-2.72-1.54-5.5-2.05-8.32-1-5.61-1.17-11.36-.68-17.03.14-1.62-1.48-3-3-3-1.74,0-2.86,1.38-3,3h0Z"/>
      <g>
        <path class="cls-63" d="M1282.68,559.89h-5.59c-6.37,0-11.7-4.83-12.32-11.17l-8.62-87.62c-.72-7.28,5-13.59,12.32-13.59h24.1c7.39,0,13.13,6.43,12.3,13.77l-9.89,87.62c-.71,6.26-6,10.99-12.3,10.99Z"/>
        <g>
          <path class="cls-117" d="M1305.07,459.66c1.94-3.7,3.04-7.89,3.04-12.33,0-14.9-12.35-26.99-27.59-26.99s-27.59,12.08-27.59,26.99c0,4.44,1.1,8.63,3.04,12.33h49.11Z"/>
          <g>
            <path class="cls-84" d="M1253.06,444.65c-.09.88-.14,1.78-.14,2.68,0,4.44,1.1,8.63,3.04,12.33h49.11c1.94-3.7,3.04-7.89,3.04-12.33,0-.91-.05-1.8-.14-2.68h-54.92Z"/>
            <path class="cls-83" d="M1306.8,439.07c-3.57-10.86-13.98-18.73-26.28-18.73s-22.71,7.86-26.28,18.73h52.55Z"/>
          </g>
        </g>
        <rect class="cls-117" x="1255.21" y="459.66" width="50.61" height="5.58"/>
      </g>
    </g>
    <g>
      <circle class="cls-58" cx="1048.37" cy="571.74" r="43.76"/>
      <circle class="cls-60" cx="1048.37" cy="571.74" r="22.72"/>
      <path class="cls-117" d="M1024.17,528.09c0-12.28-7.48-22.24-16.71-22.24s-16.71,9.96-16.71,22.24c0,10.63,5.6,19.51,13.08,21.72l-1.34,74.14c0,1.24.96,2.26,2.14,2.26h8.37c1.18,0,2.14-1.02,2.14-2.26l-2.53-74.69c6.71-2.89,11.57-11.27,11.57-21.17Z"/>
      <path class="cls-117" d="M1096.97,511.17h-.37c-1.58,0-2.87,1.29-2.87,2.87v15.78c0,.87-.71,1.58-1.58,1.58s-1.58-.71-1.58-1.58v-15.78c0-1.58-1.29-2.87-2.87-2.87h-.37c-1.58,0-2.87,1.29-2.87,2.87v15.78c0,.87-.71,1.58-1.58,1.58s-1.58-.71-1.58-1.58v-15.78c0-1.58-1.29-2.87-2.87-2.87h-.37c-1.58,0-2.87,1.29-2.87,2.87v27.64c0,1.58,1.29,2.87,2.87,2.87h4.31l-1.43,79.31c0,1.29,1,2.35,2.22,2.35h8.7c1.22,0,2.22-1.06,2.22-2.35l-2.69-79.31h5.57c1.58,0,2.87-1.29,2.87-2.87v-27.64c0-1.58-1.29-2.87-2.87-2.87Z"/>
    </g>
    <g>
      <circle class="cls-8" cx="884.66" cy="778.67" r="43.76"/>
      <circle class="cls-60" cx="884.66" cy="778.67" r="22.72"/>
      <path class="cls-117" d="M860.47,735.01c0-12.28-7.48-22.24-16.71-22.24s-16.71,9.96-16.71,22.24c0,10.63,5.6,19.51,13.08,21.72l-1.34,74.14c0,1.24.96,2.26,2.14,2.26h8.37c1.18,0,2.14-1.02,2.14-2.26l-2.53-74.69c6.71-2.89,11.57-11.27,11.57-21.17Z"/>
      <path class="cls-117" d="M933.27,718.1h-.37c-1.58,0-2.87,1.29-2.87,2.87v15.78c0,.87-.71,1.58-1.58,1.58s-1.58-.71-1.58-1.58v-15.78c0-1.58-1.29-2.87-2.87-2.87h-.37c-1.58,0-2.87,1.29-2.87,2.87v15.78c0,.87-.71,1.58-1.58,1.58s-1.58-.71-1.58-1.58v-15.78c0-1.58-1.29-2.87-2.87-2.87h-.37c-1.58,0-2.87,1.29-2.87,2.87v27.64c0,1.58,1.29,2.87,2.87,2.87h4.31l-1.43,79.31c0,1.29,1,2.35,2.22,2.35h8.7c1.22,0,2.22-1.06,2.22-2.35l-2.69-79.31h5.57c1.58,0,2.87-1.29,2.87-2.87v-27.64c0-1.58-1.29-2.87-2.87-2.87Z"/>
    </g>
    <g>
      <g>
        <circle class="cls-17" cx="334" cy="708.47" r="43.76"/>
        <circle class="cls-55" cx="334" cy="708.47" r="22.72"/>
      </g>
      <path class="cls-117" d="M309.8,664.82c0-12.28-7.48-22.24-16.71-22.24s-16.71,9.96-16.71,22.24c0,10.63,5.6,19.51,13.08,21.72l-1.34,74.14c0,1.24.96,2.26,2.14,2.26h8.37c1.18,0,2.14-1.02,2.14-2.26l-2.53-74.69c6.71-2.89,11.57-11.27,11.57-21.17Z"/>
      <path class="cls-117" d="M382.61,647.91h-.37c-1.58,0-2.87,1.29-2.87,2.87v15.78c0,.87-.71,1.58-1.58,1.58s-1.58-.71-1.58-1.58v-15.78c0-1.58-1.29-2.87-2.87-2.87h-.37c-1.58,0-2.87,1.29-2.87,2.87v15.78c0,.87-.71,1.58-1.58,1.58s-1.58-.71-1.58-1.58v-15.78c0-1.58-1.29-2.87-2.87-2.87h-.37c-1.58,0-2.87,1.29-2.87,2.87v27.64c0,1.58,1.29,2.87,2.87,2.87h4.31l-1.43,79.31c0,1.29,1,2.35,2.22,2.35h8.7c1.22,0,2.22-1.06,2.22-2.35l-2.69-79.31h5.57c1.58,0,2.87-1.29,2.87-2.87v-27.64c0-1.58-1.29-2.87-2.87-2.87Z"/>
    </g>
    <g>
      <g>
        <circle class="cls-18" cx="987" cy="257.47" r="43.76"/>
        <circle class="cls-12" cx="987" cy="257.47" r="22.72"/>
      </g>
      <path class="cls-117" d="M962.8,213.82c0-12.28-7.48-22.24-16.71-22.24s-16.71,9.96-16.71,22.24c0,10.63,5.6,19.51,13.08,21.72l-1.34,74.14c0,1.24.96,2.26,2.14,2.26h8.37c1.18,0,2.14-1.02,2.14-2.26l-2.53-74.69c6.71-2.89,11.57-11.27,11.57-21.17Z"/>
      <path class="cls-117" d="M1035.61,196.91h-.37c-1.58,0-2.87,1.29-2.87,2.87v15.78c0,.87-.71,1.58-1.58,1.58s-1.58-.71-1.58-1.58v-15.78c0-1.58-1.29-2.87-2.87-2.87h-.37c-1.58,0-2.87,1.29-2.87,2.87v15.78c0,.87-.71,1.58-1.58,1.58s-1.58-.71-1.58-1.58v-15.78c0-1.58-1.29-2.87-2.87-2.87h-.37c-1.58,0-2.87,1.29-2.87,2.87v27.64c0,1.58,1.29,2.87,2.87,2.87h4.31l-1.43,79.31c0,1.29,1,2.35,2.22,2.35h8.7c1.22,0,2.22-1.06,2.22-2.35l-2.69-79.31h5.57c1.58,0,2.87-1.29,2.87-2.87v-27.64c0-1.58-1.29-2.87-2.87-2.87Z"/>
    </g>
    <g>
      <g>
        <circle class="cls-20" cx="98" cy="524.47" r="43.76"/>
        <circle class="cls-11" cx="98" cy="524.47" r="22.72"/>
      </g>
      <path class="cls-117" d="M73.8,480.82c0-12.28-7.48-22.24-16.71-22.24s-16.71,9.96-16.71,22.24c0,10.63,5.6,19.51,13.08,21.72l-1.34,74.14c0,1.24.96,2.26,2.14,2.26h8.37c1.18,0,2.14-1.02,2.14-2.26l-2.53-74.69c6.71-2.89,11.57-11.27,11.57-21.17Z"/>
      <path class="cls-117" d="M146.61,463.91h-.37c-1.58,0-2.87,1.29-2.87,2.87v15.78c0,.87-.71,1.58-1.58,1.58s-1.58-.71-1.58-1.58v-15.78c0-1.58-1.29-2.87-2.87-2.87h-.37c-1.58,0-2.87,1.29-2.87,2.87v15.78c0,.87-.71,1.58-1.58,1.58s-1.58-.71-1.58-1.58v-15.78c0-1.58-1.29-2.87-2.87-2.87h-.37c-1.58,0-2.87,1.29-2.87,2.87v27.64c0,1.58,1.29,2.87,2.87,2.87h4.31l-1.43,79.31c0,1.29,1,2.35,2.22,2.35h8.7c1.22,0,2.22-1.06,2.22-2.35l-2.69-79.31h5.57c1.58,0,2.87-1.29,2.87-2.87v-27.64c0-1.58-1.29-2.87-2.87-2.87Z"/>
    </g>
    <g>
      <g>
        <circle class="cls-21" cx="347" cy="255.47" r="43.76"/>
        <circle class="cls-13" cx="347" cy="255.47" r="22.72"/>
      </g>
      <path class="cls-117" d="M322.8,211.82c0-12.28-7.48-22.24-16.71-22.24s-16.71,9.96-16.71,22.24c0,10.63,5.6,19.51,13.08,21.72l-1.34,74.14c0,1.24.96,2.26,2.14,2.26h8.37c1.18,0,2.14-1.02,2.14-2.26l-2.53-74.69c6.71-2.89,11.57-11.27,11.57-21.17Z"/>
      <path class="cls-117" d="M395.61,194.91h-.37c-1.58,0-2.87,1.29-2.87,2.87v15.78c0,.87-.71,1.58-1.58,1.58s-1.58-.71-1.58-1.58v-15.78c0-1.58-1.29-2.87-2.87-2.87h-.37c-1.58,0-2.87,1.29-2.87,2.87v15.78c0,.87-.71,1.58-1.58,1.58s-1.58-.71-1.58-1.58v-15.78c0-1.58-1.29-2.87-2.87-2.87h-.37c-1.58,0-2.87,1.29-2.87,2.87v27.64c0,1.58,1.29,2.87,2.87,2.87h4.31l-1.43,79.31c0,1.29,1,2.35,2.22,2.35h8.7c1.22,0,2.22-1.06,2.22-2.35l-2.69-79.31h5.57c1.58,0,2.87-1.29,2.87-2.87v-27.64c0-1.58-1.29-2.87-2.87-2.87Z"/>
    </g>
    <g>
      <rect class="cls-72" x="500.7" y="305.25" width="119.32" height="72.39"/>
      <path class="cls-54" d="M605.71,377.81v-21.31c0-4.45-3.2-8.05-7.16-8.05h-3.83c-3.95,0-7.16,3.6-7.16,8.05v21.31h18.14Z"/>
      <path class="cls-75" d="M500.69,305.13v18.26c0,3.81,2.7,6.9,6.03,6.9h3.23c3.33,0,6.03-3.09,6.03-6.9v-18.26h-15.29Z"/>
      <path class="cls-79" d="M530.69,305.13v18.26c0,3.81,2.7,6.9,6.03,6.9h3.23c3.33,0,6.03-3.09,6.03-6.9v-18.26h-15.29Z"/>
      <path class="cls-42" d="M560.69,305.13v18.26c0,3.81,2.7,6.9,6.03,6.9h3.23c3.33,0,6.03-3.09,6.03-6.9v-18.26h-15.29Z"/>
      <path class="cls-36" d="M589.69,305.13v18.26c0,3.81,2.7,6.9,6.03,6.9h3.23c3.33,0,6.03-3.09,6.03-6.9v-18.26h-15.29Z"/>
      <path class="cls-117" d="M515.56,305.13v18.26c0,3.81,2.7,6.9,6.03,6.9h3.23c3.33,0,6.03-3.09,6.03-6.9v-18.26h-15.29Z"/>
      <path class="cls-117" d="M545.3,305.13v18.26c0,3.81,2.7,6.9,6.03,6.9h3.23c3.33,0,6.03-3.09,6.03-6.9v-18.26h-15.29Z"/>
      <path class="cls-117" d="M575.04,305.13v18.26c0,3.81,2.7,6.9,6.03,6.9h3.23c3.33,0,6.03-3.09,6.03-6.9v-18.26h-15.29Z"/>
      <path class="cls-117" d="M604.78,305.13v18.26c0,3.81,2.7,6.9,6.03,6.9h3.23c3.33,0,6.03-3.09,6.03-6.9v-18.26h-15.29Z"/>
      <rect class="cls-43" x="500.7" y="282.18" width="119.32" height="15.91"/>
      <rect class="cls-41" x="500.7" y="297.29" width="119.32" height="7.95"/>
      <path class="cls-60" d="M500.7,379.19c0,2.66,1.35,4.81,3.01,4.81h113.31c1.66,0,3.01-2.15,3.01-4.81v-1.55h-119.32v1.55Z"/>
      <g>
        <g>
          <rect class="cls-59" x="511.18" y="341.26" width="18.63" height="18.63"/>
          <path class="cls-117" d="M529.32,341.76v17.63h-17.63v-17.63h17.63M530.32,340.76h-19.63v19.63h19.63v-19.63h0Z"/>
        </g>
        <g>
          <rect class="cls-51" x="537.05" y="341.26" width="40.97" height="18.63"/>
          <path class="cls-117" d="M577.52,341.76v17.63h-39.97v-17.63h39.97M578.52,340.76h-41.97v19.63h41.97v-19.63h0Z"/>
        </g>
      </g>
    </g>
    <g>
      <rect class="cls-72" x="1083.7" y="301.25" width="119.32" height="72.39"/>
      <path class="cls-14" d="M1188.71,373.81v-21.31c0-4.45-3.2-8.05-7.16-8.05h-3.83c-3.95,0-7.16,3.6-7.16,8.05v21.31h18.14Z"/>
      <path class="cls-35" d="M1083.69,301.13v18.26c0,3.81,2.7,6.9,6.03,6.9h3.23c3.33,0,6.03-3.09,6.03-6.9v-18.26h-15.29Z"/>
      <path class="cls-39" d="M1113.69,301.13v18.26c0,3.81,2.7,6.9,6.03,6.9h3.23c3.33,0,6.03-3.09,6.03-6.9v-18.26h-15.29Z"/>
      <path class="cls-34" d="M1143.69,301.13v18.26c0,3.81,2.7,6.9,6.03,6.9h3.23c3.33,0,6.03-3.09,6.03-6.9v-18.26h-15.29Z"/>
      <path class="cls-37" d="M1172.69,301.13v18.26c0,3.81,2.7,6.9,6.03,6.9h3.23c3.33,0,6.03-3.09,6.03-6.9v-18.26h-15.29Z"/>
      <path class="cls-117" d="M1098.56,301.13v18.26c0,3.81,2.7,6.9,6.03,6.9h3.23c3.33,0,6.03-3.09,6.03-6.9v-18.26h-15.29Z"/>
      <path class="cls-117" d="M1128.3,301.13v18.26c0,3.81,2.7,6.9,6.03,6.9h3.23c3.33,0,6.03-3.09,6.03-6.9v-18.26h-15.29Z"/>
      <path class="cls-117" d="M1158.04,301.13v18.26c0,3.81,2.7,6.9,6.03,6.9h3.23c3.33,0,6.03-3.09,6.03-6.9v-18.26h-15.29Z"/>
      <path class="cls-117" d="M1187.78,301.13v18.26c0,3.81,2.7,6.9,6.03,6.9h3.23c3.33,0,6.03-3.09,6.03-6.9v-18.26h-15.29Z"/>
      <rect class="cls-38" x="1083.7" y="278.18" width="119.32" height="15.91"/>
      <rect class="cls-40" x="1083.7" y="293.29" width="119.32" height="7.95"/>
      <path class="cls-60" d="M1083.7,375.19c0,2.66,1.35,4.81,3.01,4.81h113.31c1.66,0,3.01-2.15,3.01-4.81v-1.55h-119.32v1.55Z"/>
      <g>
        <g>
          <rect class="cls-5" x="1094.18" y="337.26" width="18.63" height="18.63"/>
          <path class="cls-117" d="M1112.32,337.76v17.63h-17.63v-17.63h17.63M1113.32,336.76h-19.63v19.63h19.63v-19.63h0Z"/>
        </g>
        <g>
          <rect class="cls-26" x="1120.05" y="337.26" width="40.97" height="18.63"/>
          <path class="cls-117" d="M1160.52,337.76v17.63h-39.97v-17.63h39.97M1161.52,336.76h-41.97v19.63h41.97v-19.63h0Z"/>
        </g>
      </g>
    </g>
    <g>
      <rect class="cls-72" x="420.7" y="105.25" width="119.32" height="72.39"/>
      <path class="cls-15" d="M525.71,177.81v-21.31c0-4.45-3.2-8.05-7.16-8.05h-3.83c-3.95,0-7.16,3.6-7.16,8.05v21.31h18.14Z"/>
      <path class="cls-33" d="M420.69,105.13v18.26c0,3.81,2.7,6.9,6.03,6.9h3.23c3.33,0,6.03-3.09,6.03-6.9v-18.26h-15.29Z"/>
      <path class="cls-48" d="M450.69,105.13v18.26c0,3.81,2.7,6.9,6.03,6.9h3.23c3.33,0,6.03-3.09,6.03-6.9v-18.26h-15.29Z"/>
      <path class="cls-44" d="M480.69,105.13v18.26c0,3.81,2.7,6.9,6.03,6.9h3.23c3.33,0,6.03-3.09,6.03-6.9v-18.26h-15.29Z"/>
      <path class="cls-46" d="M509.69,105.13v18.26c0,3.81,2.7,6.9,6.03,6.9h3.23c3.33,0,6.03-3.09,6.03-6.9v-18.26h-15.29Z"/>
      <path class="cls-117" d="M435.56,105.13v18.26c0,3.81,2.7,6.9,6.03,6.9h3.23c3.33,0,6.03-3.09,6.03-6.9v-18.26h-15.29Z"/>
      <path class="cls-117" d="M465.3,105.13v18.26c0,3.81,2.7,6.9,6.03,6.9h3.23c3.33,0,6.03-3.09,6.03-6.9v-18.26h-15.29Z"/>
      <path class="cls-117" d="M495.04,105.13v18.26c0,3.81,2.7,6.9,6.03,6.9h3.23c3.33,0,6.03-3.09,6.03-6.9v-18.26h-15.29Z"/>
      <path class="cls-117" d="M524.78,105.13v18.26c0,3.81,2.7,6.9,6.03,6.9h3.23c3.33,0,6.03-3.09,6.03-6.9v-18.26h-15.29Z"/>
      <rect class="cls-47" x="420.7" y="82.18" width="119.32" height="15.91"/>
      <rect class="cls-45" x="420.7" y="97.29" width="119.32" height="7.95"/>
      <path class="cls-60" d="M420.7,179.19c0,2.66,1.35,4.81,3.01,4.81h113.31c1.66,0,3.01-2.15,3.01-4.81v-1.55h-119.32v1.55Z"/>
      <g>
        <g>
          <rect class="cls-4" x="431.18" y="141.26" width="18.63" height="18.63"/>
          <path class="cls-117" d="M449.32,141.76v17.63h-17.63v-17.63h17.63M450.32,140.76h-19.63v19.63h19.63v-19.63h0Z"/>
        </g>
        <g>
          <rect class="cls-27" x="457.05" y="141.26" width="40.97" height="18.63"/>
          <path class="cls-117" d="M497.52,141.76v17.63h-39.97v-17.63h39.97M498.52,140.76h-41.97v19.63h41.97v-19.63h0Z"/>
        </g>
      </g>
    </g>
    <g>
      <rect class="cls-72" x="359.7" y="447.25" width="119.32" height="72.39"/>
      <path class="cls-22" d="M464.71,519.81v-21.31c0-4.45-3.2-8.05-7.16-8.05h-3.83c-3.95,0-7.16,3.6-7.16,8.05v21.31h18.14Z"/>
      <path class="cls-23" d="M359.69,447.13v18.26c0,3.81,2.7,6.9,6.03,6.9h3.23c3.33,0,6.03-3.09,6.03-6.9v-18.26h-15.29Z"/>
      <path class="cls-19" d="M389.66,447.13v18.26c0,3.81,2.7,6.9,6.03,6.9h3.23c3.33,0,6.03-3.09,6.03-6.9v-18.26h-15.29Z"/>
      <path class="cls-92" d="M419.63,447.13v18.26c0,3.81,2.7,6.9,6.03,6.9h3.23c3.33,0,6.03-3.09,6.03-6.9v-18.26h-15.29Z"/>
      <path class="cls-94" d="M448.74,447.13v18.26c0,3.81,2.85,6.9,6.37,6.9h3.41c3.52,0,6.37-3.09,6.37-6.9v-18.26h-16.15Z"/>
      <path class="cls-117" d="M374.56,447.13v18.26c0,3.81,2.7,6.9,6.03,6.9h3.23c3.33,0,6.03-3.09,6.03-6.9v-18.26h-15.29Z"/>
      <path class="cls-117" d="M404.3,447.13v18.26c0,3.81,2.7,6.9,6.03,6.9h3.23c3.33,0,6.03-3.09,6.03-6.9v-18.26h-15.29Z"/>
      <path class="cls-117" d="M434.04,447.13v18.26c0,3.81,2.7,6.9,6.03,6.9h3.23c3.33,0,6.03-3.09,6.03-6.9v-18.26h-15.29Z"/>
      <path class="cls-117" d="M463.78,447.13v18.26c0,3.81,2.7,6.9,6.03,6.9h3.23c3.33,0,6.03-3.09,6.03-6.9v-18.26h-15.29Z"/>
      <rect class="cls-90" x="359.7" y="424.18" width="119.32" height="15.91"/>
      <rect class="cls-95" x="359.7" y="439.29" width="119.32" height="7.95"/>
      <path class="cls-73" d="M359.7,521.19c0,2.66,1.35,4.81,3.01,4.81h113.31c1.66,0,3.01-2.15,3.01-4.81v-1.55h-119.32v1.55Z"/>
      <g>
        <g>
          <rect class="cls-3" x="370.18" y="483.26" width="18.63" height="18.63"/>
          <path class="cls-117" d="M388.32,483.76v17.63h-17.63v-17.63h17.63M389.32,482.76h-19.63v19.63h19.63v-19.63h0Z"/>
        </g>
        <g>
          <rect class="cls-28" x="396.05" y="483.26" width="40.97" height="18.63"/>
          <path class="cls-117" d="M436.52,483.76v17.63h-39.97v-17.63h39.97M437.52,482.76h-41.97v19.63h41.97v-19.63h0Z"/>
        </g>
      </g>
    </g>
    <g>
      <rect class="cls-72" x="661.7" y="381.25" width="119.32" height="72.39"/>
      <path class="cls-93" d="M766.71,453.81v-21.31c0-4.45-3.2-8.05-7.16-8.05h-3.83c-3.95,0-7.16,3.6-7.16,8.05v21.31h18.14Z"/>
      <path class="cls-87" d="M661.69,381.13v18.26c0,3.81,2.7,6.9,6.03,6.9h3.23c3.33,0,6.03-3.09,6.03-6.9v-18.26h-15.29Z"/>
      <path class="cls-89" d="M691.66,381.13v18.26c0,3.81,2.7,6.9,6.03,6.9h3.23c3.33,0,6.03-3.09,6.03-6.9v-18.26h-15.29Z"/>
      <path class="cls-86" d="M721.63,381.13v18.26c0,3.81,2.7,6.9,6.03,6.9h3.23c3.33,0,6.03-3.09,6.03-6.9v-18.26h-15.29Z"/>
      <path class="cls-88" d="M750.74,381.13v18.26c0,3.81,2.85,6.9,6.37,6.9h3.41c3.52,0,6.37-3.09,6.37-6.9v-18.26h-16.15Z"/>
      <path class="cls-117" d="M676.56,381.13v18.26c0,3.81,2.7,6.9,6.03,6.9h3.23c3.33,0,6.03-3.09,6.03-6.9v-18.26h-15.29Z"/>
      <path class="cls-117" d="M706.3,381.13v18.26c0,3.81,2.7,6.9,6.03,6.9h3.23c3.33,0,6.03-3.09,6.03-6.9v-18.26h-15.29Z"/>
      <path class="cls-117" d="M736.04,381.13v18.26c0,3.81,2.7,6.9,6.03,6.9h3.23c3.33,0,6.03-3.09,6.03-6.9v-18.26h-15.29Z"/>
      <path class="cls-117" d="M765.78,381.13v18.26c0,3.81,2.7,6.9,6.03,6.9h3.23c3.33,0,6.03-3.09,6.03-6.9v-18.26h-15.29Z"/>
      <rect class="cls-85" x="661.7" y="358.18" width="119.32" height="15.91"/>
      <rect class="cls-116" x="661.7" y="373.29" width="119.32" height="7.95"/>
      <path class="cls-73" d="M661.7,455.19c0,2.66,1.35,4.81,3.01,4.81h113.31c1.66,0,3.01-2.15,3.01-4.81v-1.55h-119.32v1.55Z"/>
      <g>
        <g>
          <rect class="cls-7" x="672.18" y="417.26" width="18.63" height="18.63"/>
          <path class="cls-117" d="M690.32,417.76v17.63h-17.63v-17.63h17.63M691.32,416.76h-19.63v19.63h19.63v-19.63h0Z"/>
        </g>
        <g>
          <rect class="cls-32" x="698.05" y="417.26" width="40.97" height="18.63"/>
          <path class="cls-117" d="M738.52,417.76v17.63h-39.97v-17.63h39.97M739.52,416.76h-41.97v19.63h41.97v-19.63h0Z"/>
        </g>
      </g>
    </g>
    <g>
      <rect class="cls-72" x="986.7" y="814.25" width="119.32" height="72.39"/>
      <path class="cls-102" d="M1091.71,886.81v-21.31c0-4.45-3.2-8.05-7.16-8.05h-3.83c-3.95,0-7.16,3.6-7.16,8.05v21.31h18.14Z"/>
      <path class="cls-101" d="M986.69,814.13v18.26c0,3.81,2.7,6.9,6.03,6.9h3.23c3.33,0,6.03-3.09,6.03-6.9v-18.26h-15.29Z"/>
      <path class="cls-113" d="M1016.66,814.13v18.26c0,3.81,2.7,6.9,6.03,6.9h3.23c3.33,0,6.03-3.09,6.03-6.9v-18.26h-15.29Z"/>
      <path class="cls-114" d="M1046.63,814.13v18.26c0,3.81,2.7,6.9,6.03,6.9h3.23c3.33,0,6.03-3.09,6.03-6.9v-18.26h-15.29Z"/>
      <path class="cls-109" d="M1075.74,814.13v18.26c0,3.81,2.85,6.9,6.37,6.9h3.41c3.52,0,6.37-3.09,6.37-6.9v-18.26h-16.15Z"/>
      <path class="cls-117" d="M1001.56,814.13v18.26c0,3.81,2.7,6.9,6.03,6.9h3.23c3.33,0,6.03-3.09,6.03-6.9v-18.26h-15.29Z"/>
      <path class="cls-117" d="M1031.3,814.13v18.26c0,3.81,2.7,6.9,6.03,6.9h3.23c3.33,0,6.03-3.09,6.03-6.9v-18.26h-15.29Z"/>
      <path class="cls-117" d="M1061.04,814.13v18.26c0,3.81,2.7,6.9,6.03,6.9h3.23c3.33,0,6.03-3.09,6.03-6.9v-18.26h-15.29Z"/>
      <path class="cls-117" d="M1090.78,814.13v18.26c0,3.81,2.7,6.9,6.03,6.9h3.23c3.33,0,6.03-3.09,6.03-6.9v-18.26h-15.29Z"/>
      <rect class="cls-112" x="986.7" y="791.18" width="119.32" height="15.91"/>
      <rect class="cls-108" x="986.7" y="806.29" width="119.32" height="7.95"/>
      <path class="cls-73" d="M986.7,888.19c0,2.66,1.35,4.81,3.01,4.81h113.31c1.66,0,3.01-2.15,3.01-4.81v-1.55h-119.32v1.55Z"/>
      <g>
        <g>
          <rect class="cls-2" x="997.18" y="850.26" width="18.63" height="18.63"/>
          <path class="cls-117" d="M1015.32,850.76v17.63h-17.63v-17.63h17.63M1016.32,849.76h-19.63v19.63h19.63v-19.63h0Z"/>
        </g>
        <g>
          <rect class="cls-31" x="1023.05" y="850.26" width="40.97" height="18.63"/>
          <path class="cls-117" d="M1063.52,850.76v17.63h-39.97v-17.63h39.97M1064.52,849.76h-41.97v19.63h41.97v-19.63h0Z"/>
        </g>
      </g>
    </g>
    <g>
      <rect class="cls-72" x="602.7" y="642.25" width="119.32" height="72.39"/>
      <path class="cls-115" d="M707.71,714.81v-21.31c0-4.45-3.2-8.05-7.16-8.05h-3.83c-3.95,0-7.16,3.6-7.16,8.05v21.31h18.14Z"/>
      <path class="cls-91" d="M602.69,642.13v18.26c0,3.81,2.7,6.9,6.03,6.9h3.23c3.33,0,6.03-3.09,6.03-6.9v-18.26h-15.29Z"/>
      <path class="cls-106" d="M632.66,642.13v18.26c0,3.81,2.7,6.9,6.03,6.9h3.23c3.33,0,6.03-3.09,6.03-6.9v-18.26h-15.29Z"/>
      <path class="cls-97" d="M662.63,642.13v18.26c0,3.81,2.7,6.9,6.03,6.9h3.23c3.33,0,6.03-3.09,6.03-6.9v-18.26h-15.29Z"/>
      <path class="cls-98" d="M691.74,642.13v18.26c0,3.81,2.85,6.9,6.37,6.9h3.41c3.52,0,6.37-3.09,6.37-6.9v-18.26h-16.15Z"/>
      <path class="cls-117" d="M617.56,642.13v18.26c0,3.81,2.7,6.9,6.03,6.9h3.23c3.33,0,6.03-3.09,6.03-6.9v-18.26h-15.29Z"/>
      <path class="cls-117" d="M647.3,642.13v18.26c0,3.81,2.7,6.9,6.03,6.9h3.23c3.33,0,6.03-3.09,6.03-6.9v-18.26h-15.29Z"/>
      <path class="cls-117" d="M677.04,642.13v18.26c0,3.81,2.7,6.9,6.03,6.9h3.23c3.33,0,6.03-3.09,6.03-6.9v-18.26h-15.29Z"/>
      <path class="cls-117" d="M706.78,642.13v18.26c0,3.81,2.7,6.9,6.03,6.9h3.23c3.33,0,6.03-3.09,6.03-6.9v-18.26h-15.29Z"/>
      <rect class="cls-99" x="602.7" y="619.18" width="119.32" height="15.91"/>
      <rect class="cls-105" x="602.7" y="634.29" width="119.32" height="7.95"/>
      <path class="cls-73" d="M602.7,716.19c0,2.66,1.35,4.81,3.01,4.81h113.31c1.66,0,3.01-2.15,3.01-4.81v-1.55h-119.32v1.55Z"/>
      <g>
        <g>
          <rect class="cls-1" x="613.18" y="678.26" width="18.63" height="18.63"/>
          <path class="cls-117" d="M631.32,678.76v17.63h-17.63v-17.63h17.63M632.32,677.76h-19.63v19.63h19.63v-19.63h0Z"/>
        </g>
        <g>
          <rect class="cls-29" x="639.05" y="678.26" width="40.97" height="18.63"/>
          <path class="cls-117" d="M679.52,678.76v17.63h-39.97v-17.63h39.97M680.52,677.76h-41.97v19.63h41.97v-19.63h0Z"/>
        </g>
      </g>
    </g>
    <g>
      <rect class="cls-72" x="594.7" y="50.25" width="119.32" height="72.39"/>
      <path class="cls-107" d="M699.71,122.81v-21.31c0-4.45-3.2-8.05-7.16-8.05h-3.83c-3.95,0-7.16,3.6-7.16,8.05v21.31h18.14Z"/>
      <path class="cls-103" d="M594.69,50.13v18.26c0,3.81,2.7,6.9,6.03,6.9h3.23c3.33,0,6.03-3.09,6.03-6.9v-18.26h-15.29Z"/>
      <path class="cls-104" d="M624.66,50.13v18.26c0,3.81,2.7,6.9,6.03,6.9h3.23c3.33,0,6.03-3.09,6.03-6.9v-18.26h-15.29Z"/>
      <path class="cls-100" d="M654.63,50.13v18.26c0,3.81,2.7,6.9,6.03,6.9h3.23c3.33,0,6.03-3.09,6.03-6.9v-18.26h-15.29Z"/>
      <path class="cls-96" d="M683.74,50.13v18.26c0,3.81,2.85,6.9,6.37,6.9h3.41c3.52,0,6.37-3.09,6.37-6.9v-18.26h-16.15Z"/>
      <path class="cls-117" d="M609.56,50.13v18.26c0,3.81,2.7,6.9,6.03,6.9h3.23c3.33,0,6.03-3.09,6.03-6.9v-18.26h-15.29Z"/>
      <path class="cls-117" d="M639.3,50.13v18.26c0,3.81,2.7,6.9,6.03,6.9h3.23c3.33,0,6.03-3.09,6.03-6.9v-18.26h-15.29Z"/>
      <path class="cls-117" d="M669.04,50.13v18.26c0,3.81,2.7,6.9,6.03,6.9h3.23c3.33,0,6.03-3.09,6.03-6.9v-18.26h-15.29Z"/>
      <path class="cls-117" d="M698.78,50.13v18.26c0,3.81,2.7,6.9,6.03,6.9h3.23c3.33,0,6.03-3.09,6.03-6.9v-18.26h-15.29Z"/>
      <rect class="cls-111" x="594.7" y="27.18" width="119.32" height="15.91"/>
      <rect class="cls-110" x="594.7" y="42.29" width="119.32" height="7.95"/>
      <path class="cls-73" d="M594.7,124.19c0,2.66,1.35,4.81,3.01,4.81h113.31c1.66,0,3.01-2.15,3.01-4.81v-1.55h-119.32v1.55Z"/>
      <g>
        <g>
          <rect class="cls-6" x="605.18" y="86.26" width="18.63" height="18.63"/>
          <path class="cls-117" d="M623.32,86.76v17.63h-17.63v-17.63h17.63M624.32,85.76h-19.63v19.63h19.63v-19.63h0Z"/>
        </g>
        <g>
          <rect class="cls-30" x="631.05" y="86.26" width="40.97" height="18.63"/>
          <path class="cls-117" d="M671.52,86.76v17.63h-39.97v-17.63h39.97M672.52,85.76h-41.97v19.63h41.97v-19.63h0Z"/>
        </g>
      </g>
    </g>
    <g>
      <g>
        <circle class="cls-64" cx="271.12" cy="117.63" r="39.37"/>
        <circle class="cls-117" cx="271.12" cy="117.63" r="36.2"/>
      </g>
      <g>
        <g>
          <rect class="cls-74" x="256.83" y="130.95" width="6.69" height="9.69" rx="2.99" ry="2.99" transform="translate(19.22 -31.75) rotate(7.25)"/>
          <rect class="cls-74" x="273.82" y="133.11" width="6.69" height="9.69" rx="2.99" ry="2.99" transform="translate(19.62 -33.87) rotate(7.25)"/>
        </g>
        <path class="cls-49" d="M280.07,94.33l-11.79-1.5c-6.63-.84-12.67,3.27-13.41,9.13l-.24,1.91-1.07,8.42-2.04,16.01c-.25,2,1.37,3.85,3.62,4.13l27.73,3.53c2.26.29,4.29-1.1,4.54-3.09l2.04-16.01,1.07-8.42.24-1.91c.75-5.87-4.07-11.36-10.7-12.2Z"/>
        <rect class="cls-117" x="256.49" y="101.95" width="30.85" height="18.83" transform="translate(16.23 -33.42) rotate(7.25)"/>
        <rect class="cls-117" x="268.89" y="96.05" width="9.64" height="2.5" transform="translate(14.47 -33.76) rotate(7.25)"/>
        <g>
          <circle class="cls-117" cx="257.59" cy="125.56" r="2.96"/>
          <circle class="cls-117" cx="282.23" cy="128.69" r="2.96"/>
        </g>
        <g>
          <path class="cls-25" d="M293.21,108.01l-1.33-.17-1.1,8.66,1.33.17c.73.09,1.37-.11,1.41-.45l.95-7.43c.04-.34-.52-.69-1.25-.78Z"/>
          <path class="cls-24" d="M252.14,102.78l1.33.17-1.1,8.66-1.33-.17c-.73-.09-1.3-.45-1.25-.78l.95-7.43c.04-.34.68-.54,1.41-.45Z"/>
        </g>
      </g>
    </g>
    <g>
      <rect class="cls-66" x="813.9" y="189.22" width="34.89" height="19.07" rx="3.87" ry="3.87"/>
      <rect class="cls-52" x="788.75" y="206.26" width="87.64" height="9.74" rx="3.87" ry="3.87"/>
      <rect class="cls-53" x="772.19" y="99.25" width="122.94" height="92.51" rx="8.29" ry="8.29"/>
      <rect class="cls-117" x="781.04" y="107.67" width="105.09" height="73.44" rx="8.29" ry="8.29"/>
    </g>
  </g>
</svg>