<?xml version="1.0" encoding="UTF-8"?>
<svg id="_건물" data-name="건물" xmlns="http://www.w3.org/2000/svg" xmlns:xlink="http://www.w3.org/1999/xlink" viewBox="0 0 1814 1196">
  <defs>
    <style>
      .cls-1 {
        fill: url(#_무제_그라디언트_34);
      }

      .cls-1, .cls-2, .cls-3, .cls-4, .cls-5 {
        stroke-width: 0px;
      }

      .cls-2 {
        fill: url(#_무제_그라디언트_33);
      }

      .cls-3 {
        fill: url(#_무제_그라디언트_37);
      }

      .cls-4 {
        fill: #fff;
      }

      .cls-5 {
        fill: #e6e6e6;
      }
    </style>
    <linearGradient id="_무제_그라디언트_34" data-name="무제 그라디언트 34" x1="925.61" y1="1113.93" x2="918.9" y2="601.92" gradientUnits="userSpaceOnUse">
      <stop offset=".21" stop-color="#c0ecc0"/>
      <stop offset=".88" stop-color="#56c072"/>
    </linearGradient>
    <linearGradient id="_무제_그라디언트_33" data-name="무제 그라디언트 33" x1="916.4" y1="815.5" x2="918.29" y2="333.96" gradientUnits="userSpaceOnUse">
      <stop offset=".42" stop-color="#c0ecc0"/>
      <stop offset=".88" stop-color="#56c072"/>
    </linearGradient>
    <linearGradient id="_무제_그라디언트_37" data-name="무제 그라디언트 37" x1="916.86" y1="633.24" x2="919.16" y2="164.77" gradientUnits="userSpaceOnUse">
      <stop offset="0" stop-color="#25a8f4"/>
      <stop offset=".07" stop-color="#fff" stop-opacity=".55"/>
      <stop offset=".74" stop-color="#6fbcca" stop-opacity=".55"/>
    </linearGradient>
  </defs>
  <path class="cls-4" d="M656.53,494.45l54.49,494.45c2.39,21.72,14.85,41.02,33.62,52.23,35.89,21.45,96.33,48.51,174.44,47.85,75.58-.64,133.98-26.95,169.08-48,18.6-11.15,30.99-30.26,33.48-51.8l57.16-494.36c4.78-41.36-174.12,41.96-215.76,41.96l-108.88,21.47c-41.49,0-202.16-105.04-197.61-63.8Z"/>
  <g>
    <path class="cls-1" d="M683.4,514.51l48.87,455.99c2.15,20.03,13.32,37.83,30.15,48.17,32.2,19.78,86.41,44.74,156.47,44.13,67.8-.59,120.18-24.86,151.67-44.27,16.68-10.28,27.79-27.91,30.03-47.78l51.27-455.91c4.29-38.15-24.72-71.61-62.07-71.61h-344.3c-31.99,0-57.88,24.56-61.94,55.61-.66,5.07-.74,10.32-.17,15.66Z"/>
    <ellipse class="cls-2" cx="917.66" cy="494.61" rx="234.19" ry="100.45"/>
  </g>
  <g>
    <path class="cls-4" d="M673.27,489.05l-1.82,1.74c-2.92,2.8-4.57,6.67-4.57,10.72v42.06c0,5.94,3.53,11.32,9,13.65,27.81,11.84,119.2,44.75,262.25,37.57,7.88-.4,14.06-6.94,14.06-14.83v-27.43c0-8.31-6.81-15-15.11-14.84-46.5.87-194.95,1.47-251.06-46.9-5.83-5.03-7.18-7.06-12.74-1.73Z"/>
    <path class="cls-4" d="M1162.04,489.05l1.82,1.74c2.92,2.8,4.57,6.67,4.57,10.72v42.06c0,5.94-3.53,11.32-9,13.65-27.81,11.84-119.2,44.75-262.25,37.57-7.88-.4-14.06-6.94-14.06-14.83v-27.43c0-8.31,6.81-15,15.11-14.84,46.5.87,187.64-.7,243.75-49.07,5.83-5.03,14.49-4.88,20.05.44Z"/>
  </g>
  <g>
    <g>
      <path class="cls-4" d="M923.93,440.86c-.51,2.61-2.38,4.75-4.92,5.57-7.02,2.25-19.31,4.85-33.84,1.51-12.43-2.85-21.33-8.85-26.56-13.22-2.03-1.69-2.94-4.37-2.44-6.96,19.37-100.14,38.74-200.28,58.11-300.42.77-3.96,4.6-6.56,8.57-5.79l53.4,10.33c3.96.77,6.56,4.6,5.79,8.57l-58.11,300.41Z"/>
      <path class="cls-3" d="M917.66,213.34c-144.5,0-261.64,115.5-261.64,257.99s523.27,142.48,523.27,0-117.14-257.99-261.64-257.99ZM917.66,302.65c-35.58,0-64.42-12.93-64.42-28.88s28.84-28.88,64.42-28.88,64.42,12.93,64.42,28.88-28.84,28.88-64.42,28.88Z"/>
      <polygon class="cls-4" points="897.51 214.14 891.06 247.46 960.42 252.16 967.59 214.87 897.91 212.03 897.51 214.14"/>
    </g>
    <ellipse class="cls-5" cx="948.58" cy="132.94" rx="15.34" ry="34.2" transform="translate(637.91 1039.01) rotate(-79.05)"/>
  </g>
</svg>