<?xml version="1.0" encoding="UTF-8"?>
<svg id="_건물" data-name="건물" xmlns="http://www.w3.org/2000/svg" xmlns:xlink="http://www.w3.org/1999/xlink" viewBox="0 0 1814 1196">
  <defs>
    <style>
      .cls-1 {
        fill: url(#_무제_그라디언트_129-2);
      }

      .cls-1, .cls-2, .cls-3, .cls-4, .cls-5 {
        stroke-width: 0px;
      }

      .cls-2 {
        fill: url(#_무제_그라디언트_126);
      }

      .cls-3 {
        fill: url(#_무제_그라디언트_129);
      }

      .cls-4 {
        fill: #212121;
      }

      .cls-5 {
        fill: #fff;
      }
    </style>
    <linearGradient id="_무제_그라디언트_129" data-name="무제 그라디언트 129" x1="847.87" y1="906.42" x2="843.78" y2="340.63" gradientUnits="userSpaceOnUse">
      <stop offset="0" stop-color="#c0ecc0"/>
      <stop offset=".9" stop-color="#56c072"/>
    </linearGradient>
    <linearGradient id="_무제_그라디언트_129-2" data-name="무제 그라디언트 129" x1="843.9" y1="328.65" x2="843.59" y2="251.09" xlink:href="#_무제_그라디언트_129"/>
    <linearGradient id="_무제_그라디언트_126" data-name="무제 그라디언트 126" x1="843.4" y1="237.72" x2="844.29" y2="151.65" gradientUnits="userSpaceOnUse">
      <stop offset="0" stop-color="#c0ecc0"/>
      <stop offset="1" stop-color="#56c072"/>
    </linearGradient>
  </defs>
  <path class="cls-4" d="M839.18,783.45c-2.05,22.95-1.63,46.1,1.26,68.96,2.94,23.28,7.95,46.4,15.97,68.49,3.48,9.6,7.85,18.87,14.57,26.66s16.45,13.01,26.75,12.53c22.23-1.03,36.37-23.28,41.14-42.84,5.61-23.01,3.45-46.77,5.43-70.15.23-2.66.51-5.31.86-7.96l-.32,2.39c1.19-8.83,3.18-17.57,6.65-25.8l-.91,2.15c2.02-4.7,4.47-9.2,7.58-13.27l-1.41,1.82c2.65-3.41,5.7-6.47,9.1-9.13l-1.82,1.41c3.13-2.4,6.51-4.42,10.14-5.97l-2.15.91c3.04-1.26,6.19-2.16,9.45-2.61l-2.39.32c2.7-.34,5.4-.37,8.09-.03l-2.39-.32c2.62.36,5.14,1.05,7.58,2.06l-2.15-.91c2.48,1.07,4.78,2.44,6.94,4.07l-1.82-1.41c2.72,2.1,5.11,4.56,7.23,7.26l-1.41-1.82c2.77,3.6,5,7.55,6.78,11.72l-.91-2.15c2.58,6.14,4.07,12.65,4.98,19.23l-.32-2.39c.97,7.28,1.22,14.62,1.33,21.95s.17,15.27.25,22.9c.16,15.57.33,31.15.49,46.72.33,30.96.65,61.92.98,92.88.18,17.53.37,35.06.55,52.59.05,4.71,4.1,9.22,9,9s9.05-3.96,9-9c-.34-32.64-.69-65.27-1.03-97.91-.34-32.64-.69-65.27-1.03-97.91-.17-16.23.36-32.72-2.7-48.74-1.38-7.26-3.77-14.35-7.27-20.87-3.11-5.8-7.28-11.38-12.41-15.55-5.49-4.46-11.81-7.97-18.9-9.02s-14.14-.58-20.86,1.86c-13.32,4.83-24.31,14.69-31.09,27.08-14.89,27.22-11.45,58.98-13.46,88.78-.25,3.77-.61,7.54-1.11,11.29l.32-2.39c-1.05,7.69-2.62,15.41-5.64,22.59l.91-2.15c-1.9,4.42-4.28,8.62-7.2,12.45l1.41-1.82c-2.23,2.88-4.75,5.51-7.63,7.74l1.82-1.41c-2.03,1.53-4.2,2.84-6.54,3.83l2.15-.91c-1.83.75-3.72,1.28-5.67,1.57l2.39-.32c-2,.27-3.99.27-6,0l2.39.32c-1.98-.29-3.88-.82-5.72-1.58l2.15.91c-2.03-.87-3.9-2-5.66-3.33l1.82,1.41c-2.51-1.95-4.69-4.26-6.63-6.77l1.41,1.82c-3.53-4.65-6.23-9.85-8.5-15.21l.91,2.15c-3.41-8.12-5.99-16.62-8.38-25.09-2.59-9.21-4.77-18.53-6.52-27.93-.99-5.31-1.84-10.65-2.57-16l.32,2.39c-2.46-18.42-3.37-37.04-2.63-55.62.21-5.32.56-10.63,1.03-15.93.19-2.18-1.14-4.87-2.64-6.36s-4.12-2.74-6.36-2.64-4.74.87-6.36,2.64-2.41,3.87-2.64,6.36h0Z"/>
  <path class="cls-3" d="M853.94,795h-26.71c-30.44,0-55.91-23.09-58.89-53.38l-41.22-418.81c-3.43-34.81,23.92-64.97,58.89-64.97h115.19c35.31,0,62.76,30.73,58.8,65.81l-47.26,418.81c-3.38,29.92-28.69,52.54-58.8,52.54Z"/>
  <path class="cls-5" d="M960.97,315.93c9.29-17.66,14.54-37.7,14.54-58.93,0-71.24-59.05-128.99-131.9-128.99s-131.9,57.75-131.9,128.99c0,21.23,5.25,41.27,14.54,58.93h234.71Z"/>
  <path class="cls-1" d="M712.36,244.17c-.43,4.22-.65,8.5-.65,12.83,0,21.23,5.25,41.27,14.54,58.93h234.71c9.29-17.66,14.54-37.7,14.54-58.93,0-4.33-.22-8.61-.65-12.83h-262.5Z"/>
  <path class="cls-2" d="M969.21,217.52c-17.05-51.93-66.83-89.52-125.6-89.52s-108.54,37.59-125.6,89.52h251.19Z"/>
  <rect class="cls-5" x="722.65" y="315.93" width="241.93" height="26.65"/>
</svg>