<?xml version="1.0" encoding="UTF-8"?>
<svg id="_건물" data-name="건물" xmlns="http://www.w3.org/2000/svg" xmlns:xlink="http://www.w3.org/1999/xlink" viewBox="0 0 1814 1196">
  <defs>
    <style>
      .cls-1 {
        fill: #86eae7;
      }

      .cls-1, .cls-2, .cls-3, .cls-4, .cls-5, .cls-6, .cls-7 {
        stroke-width: 0px;
      }

      .cls-2 {
        fill: url(#_무제_그라디언트_140);
      }

      .cls-3 {
        fill: url(#_무제_그라디언트_126);
      }

      .cls-4 {
        fill: #efea41;
      }

      .cls-5 {
        fill: #ffedcf;
      }

      .cls-6 {
        fill: #fff;
      }

      .cls-7 {
        fill: #f27d66;
      }
    </style>
    <linearGradient id="_무제_그라디언트_140" data-name="무제 그라디언트 140" x1="821.58" y1="784.22" x2="828.73" y2="374.97" gradientUnits="userSpaceOnUse">
      <stop offset="0" stop-color="#c0ecc0"/>
      <stop offset=".88" stop-color="#56c072"/>
    </linearGradient>
    <linearGradient id="_무제_그라디언트_126" data-name="무제 그라디언트 126" x1="-5495.01" y1="11710.56" x2="-5723.12" y2="11936.37" gradientTransform="translate(13562.32 -3593.63) rotate(45)" gradientUnits="userSpaceOnUse">
      <stop offset="0" stop-color="#c0ecc0"/>
      <stop offset="1" stop-color="#56c072"/>
    </linearGradient>
  </defs>
  <path class="cls-2" d="M1148.11,563.55c-4.53,104.45-87.75,215.65-157.06,211.68-78.23-4.48-102.52-153.64-170.71-150.23-69.89,3.5-80.91,162.01-153.64,170.71-66.93,8.01-162.06-113.74-163.88-232.17-2.32-150.55,145.93-310.64,322.65-310.7,178.07-.06,329.08,162.38,322.65,310.7Z"/>
  <circle class="cls-6" cx="601.83" cy="532.83" r="54.63"/>
  <circle class="cls-4" cx="700.85" cy="406.5" r="54.63"/>
  <circle class="cls-7" cx="864.73" cy="362.11" r="54.63"/>
  <circle class="cls-1" cx="1025.2" cy="450.88" r="54.63"/>
  <rect class="cls-3" x="1020.51" y="768.78" width="419.13" height="63.62" rx="4.58" ry="4.58" transform="translate(926.38 -635.31) rotate(45)"/>
  <path class="cls-5" d="M962.64,562.48c8.16,37.67,48.03,190.62,144.56,113.92,14.35-11.4,22.72-29.01,22.14-47.33-.93-29.5-17.25-67.45-100.42-51.72-9.86,1.87-20.07.57-29.08-3.86l-31.47-15.49c-3.04-1.49-6.45,1.18-5.73,4.48Z"/>
</svg>