<?xml version="1.0" encoding="UTF-8"?>
<svg id="_건물" data-name="건물" xmlns="http://www.w3.org/2000/svg" xmlns:xlink="http://www.w3.org/1999/xlink" viewBox="0 0 1814 1196">
  <defs>
    <style>
      .cls-1 {
        fill: url(#_무제_그라디언트_28);
      }

      .cls-1, .cls-2, .cls-3, .cls-4, .cls-5, .cls-6, .cls-7, .cls-8, .cls-9, .cls-10, .cls-11, .cls-12, .cls-13, .cls-14, .cls-15 {
        stroke-width: 0px;
      }

      .cls-2 {
        fill: url(#_무제_그라디언트_46);
      }

      .cls-3 {
        fill: url(#_무제_그라디언트_46-8);
      }

      .cls-4 {
        fill: url(#_무제_그라디언트_46-2);
      }

      .cls-5 {
        fill: url(#_무제_그라디언트_46-3);
      }

      .cls-6 {
        fill: url(#_무제_그라디언트_46-5);
      }

      .cls-7 {
        fill: url(#_무제_그라디언트_46-6);
      }

      .cls-8 {
        fill: url(#_무제_그라디언트_46-7);
      }

      .cls-9 {
        fill: url(#_무제_그라디언트_46-4);
      }

      .cls-10 {
        fill: url(#_무제_그라디언트_28-3);
      }

      .cls-11 {
        fill: url(#_무제_그라디언트_28-2);
      }

      .cls-12 {
        fill: url(#_무제_그라디언트_28-4);
      }

      .cls-13 {
        fill: url(#_무제_그라디언트_28-6);
      }

      .cls-14 {
        fill: url(#_무제_그라디언트_28-5);
      }

      .cls-15 {
        fill: #fff;
      }
    </style>
    <linearGradient id="_무제_그라디언트_46" data-name="무제 그라디언트 46" x1="702.79" y1="268.91" x2="702.79" y2="195.98" gradientUnits="userSpaceOnUse">
      <stop offset="0" stop-color="#25a8f4"/>
      <stop offset="0" stop-color="#ffa409"/>
      <stop offset=".76" stop-color="#ffe66f"/>
    </linearGradient>
    <linearGradient id="_무제_그라디언트_46-2" data-name="무제 그라디언트 46" x1="713.31" y1="522.04" x2="702.17" y2="202.97" xlink:href="#_무제_그라디언트_46"/>
    <linearGradient id="_무제_그라디언트_28" data-name="무제 그라디언트 28" x1="816.07" y1="146.97" x2="817.54" y2="274.42" gradientUnits="userSpaceOnUse">
      <stop offset="0" stop-color="#25a8f4"/>
      <stop offset="0" stop-color="#f49308"/>
      <stop offset=".96" stop-color="#ffe66f"/>
    </linearGradient>
    <linearGradient id="_무제_그라디언트_28-2" data-name="무제 그라디언트 28" x1="816.29" y1="152.49" x2="816.49" y2="170.17" xlink:href="#_무제_그라디언트_28"/>
    <linearGradient id="_무제_그라디언트_28-3" data-name="무제 그라디언트 28" x1="816.09" y1="126.35" x2="816.34" y2="147.9" xlink:href="#_무제_그라디언트_28"/>
    <linearGradient id="_무제_그라디언트_46-3" data-name="무제 그라디언트 46" x1="1042.61" x2="1042.61" xlink:href="#_무제_그라디언트_46"/>
    <linearGradient id="_무제_그라디언트_46-4" data-name="무제 그라디언트 46" x1="1053.13" y1="522.04" x2="1041.98" y2="202.97" xlink:href="#_무제_그라디언트_46"/>
    <linearGradient id="_무제_그라디언트_28-4" data-name="무제 그라디언트 28" x1="1155.89" x2="1157.36" xlink:href="#_무제_그라디언트_28"/>
    <linearGradient id="_무제_그라디언트_28-5" data-name="무제 그라디언트 28" x1="1156.11" y1="152.49" x2="1156.31" y2="170.17" xlink:href="#_무제_그라디언트_28"/>
    <linearGradient id="_무제_그라디언트_28-6" data-name="무제 그라디언트 28" x1="1155.91" y1="126.35" x2="1156.16" y2="147.9" xlink:href="#_무제_그라디언트_28"/>
    <linearGradient id="_무제_그라디언트_46-5" data-name="무제 그라디언트 46" x1="705.79" y1="770.91" x2="705.79" y2="697.98" xlink:href="#_무제_그라디언트_46"/>
    <linearGradient id="_무제_그라디언트_46-6" data-name="무제 그라디언트 46" x1="716.31" y1="1024.04" x2="705.17" y2="704.97" xlink:href="#_무제_그라디언트_46"/>
    <linearGradient id="_무제_그라디언트_46-7" data-name="무제 그라디언트 46" x1="1045.61" y1="770.91" x2="1045.61" y2="697.98" xlink:href="#_무제_그라디언트_46"/>
    <linearGradient id="_무제_그라디언트_46-8" data-name="무제 그라디언트 46" x1="1056.13" y1="1024.04" x2="1044.98" y2="704.97" xlink:href="#_무제_그라디언트_46"/>
  </defs>
  <g>
    <g>
      <circle class="cls-2" cx="702.79" cy="232.45" r="36.47"/>
      <path class="cls-4" d="M816.19,209.29c-6.03-4.45-14.58-3.12-19.58,2.46l-61.35,68.48c-4.67,5.22-11.35,8.2-18.35,8.2h-26.61c-8.05,0-15.72-3.43-21.09-9.42l-60.26-67.26c-5-5.58-13.54-6.91-19.57-2.46-6.92,5.1-7.8,14.9-2.21,21.15l67.79,75.67v92.6c-.03.37-.11.73-.11,1.11v108.8c0,6.93,5.62,12.55,12.55,12.55h16.34c6.93,0,12.55-5.62,12.55-12.55v-83.09h12.75v83.09c0,6.93,5.62,12.55,12.55,12.55h16.34c6.93,0,12.55-5.62,12.55-12.55v-83.09h.11v-119.42l67.79-75.67c5.6-6.25,4.71-16.05-2.21-21.15Z"/>
    </g>
    <g>
      <path class="cls-1" d="M818.67,278.33h-6.02c-6.86,0-12.6-5.2-13.27-12.03l-9.29-94.34c-.77-7.84,5.39-14.64,13.27-14.64h25.95c7.95,0,14.14,6.92,13.25,14.83l-10.65,94.34c-.76,6.74-6.46,11.84-13.25,11.84Z"/>
      <g>
        <path class="cls-15" d="M842.78,170.41c2.09-3.98,3.28-8.49,3.28-13.28,0-16.05-13.3-29.06-29.71-29.06s-29.71,13.01-29.71,29.06c0,4.78,1.18,9.3,3.28,13.28h52.87Z"/>
        <g>
          <path class="cls-11" d="M786.78,154.24c-.1.95-.15,1.91-.15,2.89,0,4.78,1.18,9.3,3.28,13.28h52.87c2.09-3.98,3.28-8.49,3.28-13.28,0-.98-.05-1.94-.15-2.89h-59.13Z"/>
          <path class="cls-10" d="M844.64,148.24c-3.84-11.7-15.06-20.17-28.29-20.17s-24.45,8.47-28.29,20.17h56.59Z"/>
        </g>
      </g>
      <rect class="cls-15" x="789.09" y="170.41" width="54.5" height="6"/>
    </g>
  </g>
  <g>
    <g>
      <circle class="cls-5" cx="1042.61" cy="232.45" r="36.47"/>
      <path class="cls-9" d="M1156.01,209.29c-6.03-4.45-14.58-3.12-19.58,2.46l-61.35,68.48c-4.67,5.22-11.35,8.2-18.35,8.2h-26.61c-8.05,0-15.72-3.43-21.09-9.42l-60.26-67.26c-5-5.58-13.54-6.91-19.57-2.46-6.92,5.1-7.8,14.9-2.21,21.15l67.79,75.67v92.6c-.03.37-.11.73-.11,1.11v108.8c0,6.93,5.62,12.55,12.55,12.55h16.34c6.93,0,12.55-5.62,12.55-12.55v-83.09h12.75v83.09c0,6.93,5.62,12.55,12.55,12.55h16.34c6.93,0,12.55-5.62,12.55-12.55v-83.09h.11v-119.42l67.79-75.67c5.6-6.25,4.71-16.05-2.21-21.15Z"/>
    </g>
    <g>
      <path class="cls-12" d="M1158.49,278.33h-6.02c-6.86,0-12.6-5.2-13.27-12.03l-9.29-94.34c-.77-7.84,5.39-14.64,13.27-14.64h25.95c7.95,0,14.14,6.92,13.25,14.83l-10.65,94.34c-.76,6.74-6.46,11.84-13.25,11.84Z"/>
      <g>
        <path class="cls-15" d="M1182.6,170.41c2.09-3.98,3.28-8.49,3.28-13.28,0-16.05-13.3-29.06-29.71-29.06s-29.71,13.01-29.71,29.06c0,4.78,1.18,9.3,3.28,13.28h52.87Z"/>
        <g>
          <path class="cls-14" d="M1126.59,154.24c-.1.95-.15,1.91-.15,2.89,0,4.78,1.18,9.3,3.28,13.28h52.87c2.09-3.98,3.28-8.49,3.28-13.28,0-.98-.05-1.94-.15-2.89h-59.13Z"/>
          <path class="cls-13" d="M1184.45,148.24c-3.84-11.7-15.06-20.17-28.29-20.17s-24.45,8.47-28.29,20.17h56.59Z"/>
        </g>
      </g>
      <rect class="cls-15" x="1128.91" y="170.41" width="54.5" height="6"/>
    </g>
  </g>
  <g>
    <circle class="cls-6" cx="705.79" cy="734.45" r="36.47"/>
    <path class="cls-7" d="M819.19,711.29c-6.03-4.45-14.58-3.12-19.58,2.46l-61.35,68.48c-4.67,5.22-11.35,8.2-18.35,8.2h-26.61c-8.05,0-15.72-3.43-21.09-9.42l-60.26-67.26c-5-5.58-13.54-6.91-19.57-2.46-6.92,5.1-7.8,14.9-2.21,21.15l67.79,75.67v92.6c-.03.37-.11.73-.11,1.11v108.8c0,6.93,5.62,12.55,12.55,12.55h16.34c6.93,0,12.55-5.62,12.55-12.55v-83.09h12.75v83.09c0,6.93,5.62,12.55,12.55,12.55h16.34c6.93,0,12.55-5.62,12.55-12.55v-83.09h.11v-119.42l67.79-75.67c5.6-6.25,4.71-16.05-2.21-21.15Z"/>
  </g>
  <g>
    <circle class="cls-8" cx="1045.61" cy="734.45" r="36.47"/>
    <path class="cls-3" d="M1159.01,711.29c-6.03-4.45-14.58-3.12-19.58,2.46l-61.35,68.48c-4.67,5.22-11.35,8.2-18.35,8.2h-26.61c-8.05,0-15.72-3.43-21.09-9.42l-60.26-67.26c-5-5.58-13.54-6.91-19.57-2.46-6.92,5.1-7.8,14.9-2.21,21.15l67.79,75.67v92.6c-.03.37-.11.73-.11,1.11v108.8c0,6.93,5.62,12.55,12.55,12.55h16.34c6.93,0,12.55-5.62,12.55-12.55v-83.09h12.75v83.09c0,6.93,5.62,12.55,12.55,12.55h16.34c6.93,0,12.55-5.62,12.55-12.55v-83.09h.11v-119.42l67.79-75.67c5.6-6.25,4.71-16.05-2.21-21.15Z"/>
  </g>
</svg>