<?xml version="1.0" encoding="UTF-8"?>
<svg id="_건물" data-name="건물" xmlns="http://www.w3.org/2000/svg" xmlns:xlink="http://www.w3.org/1999/xlink" viewBox="0 0 1814 1196">
  <defs>
    <style>
      .cls-1 {
        fill: url(#_무제_그라디언트_138);
      }

      .cls-1, .cls-2, .cls-3 {
        stroke-width: 0px;
      }

      .cls-2 {
        fill: url(#_무제_그라디언트_129);
      }

      .cls-3 {
        fill: #fff;
      }
    </style>
    <linearGradient id="_무제_그라디언트_129" data-name="무제 그라디언트 129" x1="877.49" y1="889.23" x2="874.36" y2="309.15" gradientUnits="userSpaceOnUse">
      <stop offset="0" stop-color="#c0ecc0"/>
      <stop offset=".9" stop-color="#56c072"/>
    </linearGradient>
    <linearGradient id="_무제_그라디언트_138" data-name="무제 그라디언트 138" x1="876.69" y1="740.46" x2="875.06" y2="439.26" gradientUnits="userSpaceOnUse">
      <stop offset="0" stop-color="#c0ecc0"/>
      <stop offset="0" stop-color="#4d985f"/>
    </linearGradient>
  </defs>
  <g>
    <circle class="cls-2" cx="875.82" cy="579.79" r="290.04"/>
    <circle class="cls-1" cx="875.82" cy="579.79" r="150.6"/>
  </g>
  <path class="cls-3" d="M715.45,290.43c0-81.42-49.59-147.43-110.76-147.43s-110.76,66.01-110.76,147.43c0,70.43,37.11,129.32,86.72,143.93l-8.89,491.4c0,8.25,6.38,14.99,14.17,14.99h55.48c7.79,0,14.17-6.75,14.17-14.99l-16.78-495.04c44.48-19.14,76.65-74.71,76.65-140.3Z"/>
  <path class="cls-3" d="M1197.99,178.35h-2.42c-10.45,0-19.01,8.55-19.01,19.01v104.59c0,5.8-4.7,10.5-10.5,10.5s-10.5-4.7-10.5-10.5v-104.59c0-10.45-8.55-19.01-19.01-19.01h-2.42c-10.45,0-19.01,8.55-19.01,19.01v104.59c0,5.8-4.7,10.5-10.5,10.5s-10.5-4.7-10.5-10.5v-104.59c0-10.45-8.55-19.01-19.01-19.01h-2.42c-10.45,0-19.01,8.55-19.01,19.01v183.17c0,10.45,8.55,19.01,19.01,19.01h28.6l-9.5,525.65c0,8.57,6.62,15.58,14.72,15.58h57.65c8.1,0,14.72-7.01,14.72-15.58l-17.82-525.65h36.92c10.45,0,19.01-8.55,19.01-19.01v-183.17c0-10.45-8.55-19.01-19.01-19.01Z"/>
</svg>