<?xml version="1.0" encoding="UTF-8"?>
<svg id="_건물" data-name="건물" xmlns="http://www.w3.org/2000/svg" xmlns:xlink="http://www.w3.org/1999/xlink" viewBox="0 0 1814 1196">
  <defs>
    <style>
      .cls-1 {
        fill: url(#_무제_그라디언트_46);
      }

      .cls-1, .cls-2, .cls-3, .cls-4 {
        stroke-width: 0px;
      }

      .cls-2 {
        fill: url(#_무제_그라디언트_51);
      }

      .cls-3 {
        fill: url(#_무제_그라디언트_50);
      }

      .cls-4 {
        fill: url(#_무제_그라디언트_46-2);
      }
    </style>
    <linearGradient id="_무제_그라디언트_51" data-name="무제 그라디언트 51" x1="804.48" y1="550.56" x2="802.05" y2="1184.87" gradientUnits="userSpaceOnUse">
      <stop offset="0" stop-color="#25a8f4"/>
      <stop offset="0" stop-color="#ffa409"/>
      <stop offset=".46" stop-color="#ffe66f"/>
    </linearGradient>
    <linearGradient id="_무제_그라디언트_46" data-name="무제 그라디언트 46" x1="639.92" y1="219.89" x2="637.67" y2="522.88" gradientUnits="userSpaceOnUse">
      <stop offset="0" stop-color="#25a8f4"/>
      <stop offset="0" stop-color="#ffa409"/>
      <stop offset=".76" stop-color="#ffe66f"/>
    </linearGradient>
    <linearGradient id="_무제_그라디언트_46-2" data-name="무제 그라디언트 46" x1="987.11" x2="984.85" y2="522.88" xlink:href="#_무제_그라디언트_46"/>
    <linearGradient id="_무제_그라디언트_50" data-name="무제 그라디언트 50" x1="1264.83" y1="651.87" x2="1265.98" y2="822.19" gradientUnits="userSpaceOnUse">
      <stop offset="0" stop-color="#25a8f4"/>
      <stop offset="0" stop-color="#ffa409"/>
      <stop offset=".99" stop-color="#ffe66f"/>
    </linearGradient>
  </defs>
  <rect class="cls-2" x="485.92" y="564.47" width="635.42" height="419.25"/>
  <path class="cls-1" d="M638.75,226.14c-83.67,0-151.5,67.83-151.5,151.5s67.83,151.5,151.5,151.5,151.5-67.83,151.5-151.5-67.83-151.5-151.5-151.5ZM638.75,459.29c-45.09,0-81.64-36.55-81.64-81.64s36.55-81.64,81.64-81.64,81.64,36.55,81.64,81.64-36.55,81.64-81.64,81.64Z"/>
  <path class="cls-4" d="M985.94,226.14c-83.67,0-151.5,67.83-151.5,151.5s67.83,151.5,151.5,151.5,151.5-67.83,151.5-151.5-67.83-151.5-151.5-151.5ZM985.94,459.29c-45.09,0-81.64-36.55-81.64-81.64s36.55-81.64,81.64-81.64,81.64,36.55,81.64,81.64-36.55,81.64-81.64,81.64Z"/>
  <path class="cls-3" d="M1252.36,719.4h-72.07v109.39h72.07c19,35.19,55.73,59.4,98.25,60.68v-230.75c-42.52,1.28-79.25,25.48-98.25,60.68Z"/>
</svg>