<?xml version="1.0" encoding="UTF-8"?>
<svg id="_건물" data-name="건물" xmlns="http://www.w3.org/2000/svg" xmlns:xlink="http://www.w3.org/1999/xlink" viewBox="0 0 1814 1196">
  <defs>
    <style>
      .cls-1 {
        fill: #a88869;
      }

      .cls-1, .cls-2, .cls-3, .cls-4, .cls-5, .cls-6, .cls-7, .cls-8, .cls-9, .cls-10, .cls-11, .cls-12, .cls-13, .cls-14, .cls-15, .cls-16 {
        stroke-width: 0px;
      }

      .cls-2 {
        fill: url(#_무제_그라디언트_129-2);
      }

      .cls-3 {
        fill: url(#_무제_그라디언트_129-3);
      }

      .cls-4 {
        fill: url(#_무제_그라디언트_129-4);
      }

      .cls-5 {
        fill: url(#_무제_그라디언트_129-9);
      }

      .cls-6 {
        fill: url(#_무제_그라디언트_129-5);
      }

      .cls-7 {
        fill: url(#_무제_그라디언트_129-6);
      }

      .cls-8 {
        fill: url(#_무제_그라디언트_129-7);
      }

      .cls-9 {
        fill: url(#_무제_그라디언트_129-8);
      }

      .cls-10 {
        fill: url(#_무제_그라디언트_129);
      }

      .cls-11 {
        fill: url(#_무제_그라디언트_245);
      }

      .cls-12 {
        fill: #fddfab;
      }

      .cls-13 {
        fill: #eacca0;
      }

      .cls-14 {
        fill: #ffedcf;
      }

      .cls-15 {
        fill: #189554;
      }

      .cls-16 {
        fill: #fff;
      }
    </style>
    <linearGradient id="_무제_그라디언트_129" data-name="무제 그라디언트 129" x1="1072.96" y1="944.74" x2="1068.69" y2="668.22" gradientUnits="userSpaceOnUse">
      <stop offset="0" stop-color="#c0ecc0"/>
      <stop offset=".9" stop-color="#56c072"/>
    </linearGradient>
    <linearGradient id="_무제_그라디언트_245" data-name="무제 그라디언트 245" x1="802.4" y1="870.14" x2="587.86" y2="498.55" gradientUnits="userSpaceOnUse">
      <stop offset="0" stop-color="#25a8f4"/>
      <stop offset="0" stop-color="#fff" stop-opacity=".55"/>
      <stop offset="1" stop-color="#2eaef1" stop-opacity=".55"/>
    </linearGradient>
    <linearGradient id="_무제_그라디언트_129-2" data-name="무제 그라디언트 129" x1="541.59" y1="584.76" x2="542.02" y2="520.43" xlink:href="#_무제_그라디언트_129"/>
    <linearGradient id="_무제_그라디언트_129-3" data-name="무제 그라디언트 129" x1="629.83" y1="584.76" x2="630.25" y2="520.43" xlink:href="#_무제_그라디언트_129"/>
    <linearGradient id="_무제_그라디언트_129-4" data-name="무제 그라디언트 129" x1="718.07" y1="584.76" x2="718.49" y2="520.43" xlink:href="#_무제_그라디언트_129"/>
    <linearGradient id="_무제_그라디언트_129-5" data-name="무제 그라디언트 129" x1="805.04" y1="584.76" x2="805.47" y2="520.43" xlink:href="#_무제_그라디언트_129"/>
    <linearGradient id="_무제_그라디언트_129-6" data-name="무제 그라디언트 129" x1="856.36" y1="403.53" x2="856.26" y2="325.72" xlink:href="#_무제_그라디언트_129"/>
    <linearGradient id="_무제_그라디언트_129-7" data-name="무제 그라디언트 129" x1="854.81" y1="481.28" x2="857.01" y2="401.5" xlink:href="#_무제_그라디언트_129"/>
    <linearGradient id="_무제_그라디언트_129-8" data-name="무제 그라디언트 129" x1="596.93" y1="847.19" x2="662.76" y2="847.19" xlink:href="#_무제_그라디언트_129"/>
    <linearGradient id="_무제_그라디언트_129-9" data-name="무제 그라디언트 129" x1="855.34" y1="847.19" x2="921.17" y2="847.19" xlink:href="#_무제_그라디언트_129"/>
  </defs>
  <rect class="cls-14" x="483.54" y="452.14" width="745.53" height="452.29"/>
  <path class="cls-10" d="M1156.14,907.62v-200.72c0-41.88-30.13-75.84-67.29-75.84h-36.03c-37.16,0-67.29,33.95-67.29,75.84v200.72h170.61Z"/>
  <g>
    <rect class="cls-11" x="544.81" y="523.4" width="300.65" height="321.88"/>
    <path class="cls-16" d="M844.96,523.91v320.88h-299.65v-320.88h299.65M845.96,522.91h-301.65v322.88h301.65v-322.88h0Z"/>
  </g>
  <path class="cls-2" d="M519.39,511.78v54.11c0,11.29,7.95,20.44,17.76,20.44h9.51c9.81,0,17.76-9.15,17.76-20.44v-54.11h-45.02Z"/>
  <path class="cls-3" d="M607.62,511.78v54.11c0,11.29,7.95,20.44,17.76,20.44h9.51c9.81,0,17.76-9.15,17.76-20.44v-54.11h-45.02Z"/>
  <path class="cls-4" d="M695.86,511.78v54.11c0,11.29,7.95,20.44,17.76,20.44h9.51c9.81,0,17.76-9.15,17.76-20.44v-54.11h-45.02Z"/>
  <path class="cls-6" d="M781.58,511.78v54.11c0,11.29,8.39,20.44,18.75,20.44h10.04c10.36,0,18.75-9.15,18.75-20.44v-54.11h-47.54Z"/>
  <path class="cls-16" d="M563.17,511.78v54.11c0,11.29,7.95,20.44,17.76,20.44h9.51c9.81,0,17.76-9.15,17.76-20.44v-54.11h-45.02Z"/>
  <path class="cls-16" d="M650.73,511.78v54.11c0,11.29,7.95,20.44,17.76,20.44h9.51c9.81,0,17.76-9.15,17.76-20.44v-54.11h-45.02Z"/>
  <path class="cls-16" d="M738.3,511.78v54.11c0,11.29,7.95,20.44,17.76,20.44h9.51c9.81,0,17.76-9.15,17.76-20.44v-54.11h-45.02Z"/>
  <path class="cls-16" d="M825.86,511.78v54.11c0,11.29,7.95,20.44,17.76,20.44h9.51c9.81,0,17.76-9.15,17.76-20.44v-54.11h-45.02Z"/>
  <rect class="cls-7" x="483.54" y="308" width="745.53" height="99.4"/>
  <rect class="cls-8" x="483.54" y="402.43" width="745.53" height="49.7"/>
  <g>
    <rect class="cls-1" x="751.71" y="793.35" width="13.57" height="101.77"/>
    <g>
      <ellipse class="cls-13" cx="758.49" cy="790.62" rx="61.06" ry="5.09"/>
      <rect class="cls-13" x="697.43" y="780.45" width="122.12" height="10.18"/>
      <ellipse class="cls-12" cx="758.49" cy="780.45" rx="61.06" ry="5.09"/>
    </g>
    <path class="cls-1" d="M709.95,903.98c8.57,2.87,18.11,2.65,26.48-.81,7.35-3.04,13.6-8.37,17.81-15.11.51-.82-.78-1.58-1.3-.76-4.06,6.5-10.15,11.7-17.27,14.57-8.05,3.25-17.11,3.42-25.32.66-.92-.31-1.31,1.14-.4,1.45h0Z"/>
    <path class="cls-1" d="M807.67,902.53c-8.21,2.75-17.27,2.58-25.32-.66-7.12-2.87-13.21-8.06-17.27-14.57-.51-.82-1.81-.06-1.3.76,4.21,6.74,10.46,12.07,17.81,15.11,8.37,3.46,17.91,3.68,26.48.81.91-.31.52-1.75-.4-1.45h0Z"/>
  </g>
  <g>
    <g>
      <path class="cls-1" d="M616.11,849.69c5.07,14.78,2.8,31.6-5.49,44.79-2.37,3.77-5.23,7.2-8.51,10.2-.48.44.23,1.14.71.71,11.75-10.77,17.91-27.01,16.87-42.86-.29-4.46-1.17-8.87-2.62-13.1-.21-.61-1.17-.35-.96.27h0Z"/>
      <path class="cls-1" d="M642.62,849.43c-5.17,15.08-2.81,32.3,5.68,45.72,2.39,3.78,5.27,7.23,8.57,10.25.47.43,1.18-.27.71-.71-11.52-10.56-17.56-26.43-16.59-41.97.28-4.44,1.15-8.81,2.6-13.02.21-.61-.76-.87-.96-.27h0Z"/>
    </g>
    <path class="cls-9" d="M596.93,843.08v5.49c0,1.51,14.74,2.74,32.91,2.74s32.91-1.23,32.91-2.74v-5.49h-65.83Z"/>
    <ellipse class="cls-15" cx="629.84" cy="843.08" rx="32.91" ry="2.74"/>
    <rect class="cls-1" x="619.41" y="867.01" width="21.66" height="5.42"/>
    <polygon class="cls-1" points="648.18 893.74 611.65 893.74 613.68 888.68 646.49 888.68 648.18 893.74"/>
  </g>
  <g>
    <g>
      <path class="cls-1" d="M874.52,849.69c5.07,14.78,2.8,31.6-5.49,44.79-2.37,3.77-5.23,7.2-8.51,10.2-.48.44.23,1.14.71.71,11.75-10.77,17.91-27.01,16.87-42.86-.29-4.46-1.17-8.87-2.62-13.1-.21-.61-1.17-.35-.96.27h0Z"/>
      <path class="cls-1" d="M901.03,849.43c-5.17,15.08-2.81,32.3,5.68,45.72,2.39,3.78,5.27,7.23,8.57,10.25.47.43,1.18-.27.71-.71-11.52-10.56-17.56-26.43-16.59-41.97.28-4.44,1.15-8.81,2.6-13.02.21-.61-.76-.87-.96-.27h0Z"/>
    </g>
    <path class="cls-5" d="M855.34,843.08v5.49c0,1.51,14.74,2.74,32.91,2.74s32.91-1.23,32.91-2.74v-5.49h-65.83Z"/>
    <ellipse class="cls-15" cx="888.25" cy="843.08" rx="32.91" ry="2.74"/>
    <rect class="cls-1" x="877.82" y="867.01" width="21.66" height="5.42"/>
    <polygon class="cls-1" points="906.59 893.74 870.06 893.74 872.09 888.68 904.9 888.68 906.59 893.74"/>
  </g>
  <path class="cls-15" d="M483.54,914.12c0,16.6,8.41,30.07,18.79,30.07h707.95c10.38,0,18.79-13.46,18.79-30.07v-9.7H483.54v9.7Z"/>
</svg>