<?xml version="1.0" encoding="UTF-8"?>
<svg id="_건물" data-name="건물" xmlns="http://www.w3.org/2000/svg" xmlns:xlink="http://www.w3.org/1999/xlink" viewBox="0 0 1814 1196">
  <defs>
    <style>
      .cls-1 {
        fill: url(#_무제_그라디언트_126-2);
      }

      .cls-1, .cls-2, .cls-3, .cls-4, .cls-5, .cls-6, .cls-7 {
        stroke-width: 0px;
      }

      .cls-2 {
        fill: url(#_무제_그라디언트_126-3);
      }

      .cls-3 {
        fill: url(#_무제_그라디언트_126);
      }

      .cls-4 {
        fill: #3c8d4f;
      }

      .cls-5 {
        fill: #50bc69;
      }

      .cls-8 {
        opacity: .75;
      }

      .cls-6 {
        fill: #285e35;
      }

      .cls-7 {
        fill: #fff;
      }
    </style>
    <linearGradient id="_무제_그라디언트_126" data-name="무제 그라디언트 126" x1="438.8" y1="685.37" x2="662.5" y2="682.87" gradientUnits="userSpaceOnUse">
      <stop offset="0" stop-color="#c0ecc0"/>
      <stop offset="1" stop-color="#56c072"/>
    </linearGradient>
    <linearGradient id="_무제_그라디언트_126-2" data-name="무제 그라디언트 126" x1="1102.99" x2="1326.69" y2="682.87" xlink:href="#_무제_그라디언트_126"/>
    <linearGradient id="_무제_그라디언트_126-3" data-name="무제 그라디언트 126" x1="722.94" y1="598.21" x2="1067.36" y2="590.93" xlink:href="#_무제_그라디언트_126"/>
  </defs>
  <g>
    <g>
      <polygon class="cls-3" points="690.36 571.91 686.83 568.45 686.83 565.5 683.83 565.5 536.92 421.29 418.22 565.5 417 565.5 417 566.99 413.47 571.27 417 571.28 417 945.58 686.83 945.58 686.83 571.91 690.36 571.91"/>
      <g>
        <g>
          <path class="cls-6" d="M535.93,439.03l12.96-13.67c-4.36,4.58-8.67,9.13-12.96,13.67Z"/>
          <path class="cls-4" d="M538.05,441.15c3.77-3.98,7.55-7.96,11.32-11.94.55-.57,1.09-1.15,1.64-1.72,1.08-1.14,1.22-3.13,0-4.24s-3.09-1.21-4.24,0c-4.33,4.55-8.64,9.11-12.96,13.67-1.08,1.14-1.22,3.13,0,4.24s3.09,1.22,4.24,0c4.31-4.56,8.63-9.12,12.96-13.67l-4.24-4.24c-3.77,3.98-7.55,7.96-11.32,11.94-.55.57-1.09,1.15-1.64,1.72-1.08,1.14-1.22,3.13,0,4.24s3.09,1.22,4.24,0Z"/>
        </g>
        <g>
          <path class="cls-6" d="M535.93,439.03l-130.37,137.54c44.26-45.2,85.68-90.27,130.37-137.54Z"/>
          <path class="cls-4" d="M533.81,436.91c-1.16,1.22-2.32,2.45-3.48,3.67-3.16,3.33-6.31,6.66-9.47,9.99-4.69,4.95-9.39,9.9-14.08,14.85-5.7,6.02-11.4,12.03-17.11,18.05-6.24,6.59-12.49,13.18-18.73,19.76s-12.61,13.3-18.91,19.95c-5.88,6.2-11.76,12.4-17.64,18.6-4.97,5.24-9.94,10.49-14.91,15.73-3.59,3.79-7.18,7.57-10.77,11.36-1.69,1.78-3.41,3.54-5.07,5.35-.07.08-.14.15-.22.23-2.65,2.8,1.53,7.01,4.24,4.24,17.18-17.55,34.15-35.3,51.02-53.14s33.53-35.66,50.27-53.5c9.68-10.31,19.36-20.62,29.08-30.9,2.65-2.8-1.58-7.06-4.24-4.24-17.16,18.16-34.23,36.4-51.33,54.62-16.66,17.76-33.35,35.5-50.19,53.09-9.57,10-19.18,19.94-28.86,29.83l4.24,4.24c1.16-1.22,2.32-2.45,3.48-3.67,3.16-3.33,6.31-6.66,9.47-9.99,4.69-4.95,9.39-9.9,14.08-14.85,5.7-6.02,11.4-12.03,17.11-18.05,6.24-6.59,12.49-13.18,18.73-19.76s12.61-13.3,18.91-19.95c5.88-6.2,11.76-12.4,17.64-18.6,4.97-5.24,9.94-10.49,14.91-15.73,3.59-3.79,7.18-7.57,10.77-11.36,1.69-1.78,3.41-3.54,5.07-5.35.07-.08.14-.15.22-.23,2.66-2.8-1.58-7.05-4.24-4.24Z"/>
        </g>
        <g>
          <path class="cls-6" d="M684.4,558.43l13.41,13.18c-4.49-4.43-8.96-8.82-13.41-13.18Z"/>
          <path class="cls-4" d="M682.28,560.55c3.91,3.85,7.83,7.69,11.74,11.54.56.55,1.11,1.09,1.67,1.64,1.12,1.1,3.14,1.2,4.24,0s1.19-3.07,0-4.24c-4.46-4.4-8.94-8.79-13.41-13.18-1.12-1.1-3.14-1.2-4.24,0s-1.2,3.07,0,4.24c4.48,4.39,8.95,8.78,13.41,13.18l4.24-4.24c-3.91-3.85-7.83-7.69-11.74-11.54-.56-.55-1.11-1.09-1.67-1.64-1.12-1.1-3.14-1.2-4.24,0s-1.2,3.07,0,4.24Z"/>
        </g>
        <g>
          <path class="cls-6" d="M684.4,558.43l-135.09-132.76c44.39,45.07,88.66,87.25,135.09,132.76Z"/>
          <path class="cls-4" d="M686.52,556.31c-1.2-1.18-2.41-2.37-3.61-3.55-3.28-3.22-6.55-6.44-9.83-9.66-4.85-4.76-9.69-9.52-14.54-14.29-5.91-5.81-11.82-11.62-17.74-17.43-6.48-6.36-12.95-12.73-19.43-19.09s-13.07-12.85-19.61-19.27c-6.1-5.99-12.19-11.98-18.29-17.97-5.15-5.06-10.3-10.12-15.45-15.19-3.7-3.64-7.41-7.28-11.11-10.92-1.75-1.72-3.47-3.49-5.26-5.17-.08-.07-.15-.15-.22-.22-2.76-2.71-6.96,1.49-4.24,4.24,17.23,17.49,34.66,34.77,52.19,51.95s35.02,34.14,52.55,51.19c10.13,9.85,20.25,19.72,30.35,29.61,2.76,2.71,7.01-1.53,4.24-4.24-17.83-17.48-35.75-34.86-53.65-52.27-17.45-16.97-34.87-33.96-52.14-51.11-9.82-9.74-19.59-19.53-29.3-29.39l-4.24,4.24c1.2,1.18,2.41,2.37,3.61,3.55,3.28,3.22,6.55,6.44,9.83,9.66,4.85,4.76,9.69,9.52,14.54,14.29,5.91,5.81,11.82,11.62,17.74,17.43,6.48,6.36,12.95,12.73,19.43,19.09s13.07,12.85,19.61,19.27c6.1,5.99,12.19,11.98,18.29,17.97,5.15,5.06,10.3,10.12,15.45,15.19l11.11,10.92c1.75,1.72,3.47,3.49,5.26,5.17.08.07.15.15.22.22,2.76,2.71,7-1.53,4.24-4.24Z"/>
        </g>
      </g>
      <g class="cls-8">
        <rect class="cls-7" x="464.07" y="628.68" width="47.06" height="47.06"/>
        <rect class="cls-7" x="533.09" y="628.68" width="106.67" height="47.06"/>
      </g>
      <g class="cls-8">
        <rect class="cls-7" x="464.07" y="709.44" width="47.06" height="47.06"/>
        <rect class="cls-7" x="533.09" y="709.44" width="106.67" height="47.06"/>
      </g>
    </g>
    <g class="cls-8">
      <rect class="cls-7" x="464.07" y="792.12" width="47.06" height="47.06"/>
      <rect class="cls-7" x="533.09" y="792.12" width="106.67" height="47.06"/>
    </g>
  </g>
  <g>
    <g>
      <polygon class="cls-1" points="1354.55 571.91 1351.02 568.45 1351.02 565.5 1348.02 565.5 1201.11 421.29 1082.41 565.5 1081.19 565.5 1081.19 566.99 1077.66 571.27 1081.19 571.28 1081.19 945.58 1351.02 945.58 1351.02 571.91 1354.55 571.91"/>
      <g>
        <g>
          <path class="cls-6" d="M1200.12,439.03l12.96-13.67c-4.36,4.58-8.67,9.13-12.96,13.67Z"/>
          <path class="cls-4" d="M1202.24,441.15c3.77-3.98,7.55-7.96,11.32-11.94.55-.57,1.09-1.15,1.64-1.72,1.08-1.14,1.22-3.13,0-4.24s-3.09-1.21-4.24,0c-4.33,4.55-8.64,9.11-12.96,13.67-1.08,1.14-1.22,3.13,0,4.24s3.09,1.22,4.24,0c4.31-4.56,8.63-9.12,12.96-13.67l-4.24-4.24c-3.77,3.98-7.55,7.96-11.32,11.94-.55.57-1.09,1.15-1.64,1.72-1.08,1.14-1.22,3.13,0,4.24s3.09,1.22,4.24,0Z"/>
        </g>
        <g>
          <path class="cls-6" d="M1200.12,439.03l-130.37,137.54c44.26-45.2,85.68-90.27,130.37-137.54Z"/>
          <path class="cls-4" d="M1198,436.91c-1.16,1.22-2.32,2.45-3.48,3.67-3.16,3.33-6.31,6.66-9.47,9.99-4.69,4.95-9.39,9.9-14.08,14.85-5.7,6.02-11.4,12.03-17.11,18.05-6.24,6.59-12.49,13.18-18.73,19.76s-12.61,13.3-18.91,19.95c-5.88,6.2-11.76,12.4-17.64,18.6-4.97,5.24-9.94,10.49-14.91,15.73-3.59,3.79-7.18,7.57-10.77,11.36-1.69,1.78-3.41,3.54-5.07,5.35-.07.08-.14.15-.22.23-2.65,2.8,1.53,7.01,4.24,4.24,17.18-17.55,34.15-35.3,51.02-53.14,16.81-17.78,33.53-35.66,50.27-53.5,9.68-10.31,19.36-20.62,29.08-30.9,2.65-2.8-1.58-7.06-4.24-4.24-17.16,18.16-34.23,36.4-51.33,54.62s-33.35,35.5-50.19,53.09c-9.57,10-19.18,19.94-28.86,29.83l4.24,4.24c1.16-1.22,2.32-2.45,3.48-3.67,3.16-3.33,6.31-6.66,9.47-9.99,4.69-4.95,9.39-9.9,14.08-14.85,5.7-6.02,11.4-12.03,17.11-18.05,6.24-6.59,12.49-13.18,18.73-19.76s12.61-13.3,18.91-19.95c5.88-6.2,11.76-12.4,17.64-18.6,4.97-5.24,9.94-10.49,14.91-15.73,3.59-3.79,7.18-7.57,10.77-11.36,1.69-1.78,3.41-3.54,5.07-5.35.07-.08.14-.15.22-.23,2.66-2.8-1.58-7.05-4.24-4.24Z"/>
        </g>
        <g>
          <path class="cls-6" d="M1348.59,558.43l13.41,13.18c-4.49-4.43-8.96-8.82-13.41-13.18Z"/>
          <path class="cls-4" d="M1346.47,560.55c3.91,3.85,7.83,7.69,11.74,11.54.56.55,1.11,1.09,1.67,1.64,1.12,1.1,3.14,1.2,4.24,0s1.19-3.07,0-4.24c-4.46-4.4-8.94-8.79-13.41-13.18-1.12-1.1-3.14-1.2-4.24,0s-1.2,3.07,0,4.24c4.48,4.39,8.95,8.78,13.41,13.18l4.24-4.24c-3.91-3.85-7.83-7.69-11.74-11.54-.56-.55-1.11-1.09-1.67-1.64-1.12-1.1-3.14-1.2-4.24,0s-1.2,3.07,0,4.24Z"/>
        </g>
        <g>
          <path class="cls-6" d="M1348.59,558.43l-135.09-132.76c44.39,45.07,88.66,87.25,135.09,132.76Z"/>
          <path class="cls-4" d="M1350.71,556.31c-1.2-1.18-2.41-2.37-3.61-3.55-3.28-3.22-6.55-6.44-9.83-9.66-4.85-4.76-9.69-9.52-14.54-14.29-5.91-5.81-11.82-11.62-17.74-17.43-6.48-6.36-12.95-12.73-19.43-19.09s-13.07-12.85-19.61-19.27c-6.1-5.99-12.19-11.98-18.29-17.97-5.15-5.06-10.3-10.12-15.45-15.19-3.7-3.64-7.41-7.28-11.11-10.92-1.75-1.72-3.47-3.49-5.26-5.17-.08-.07-.15-.15-.22-.22-2.76-2.71-6.96,1.49-4.24,4.24,17.23,17.49,34.66,34.77,52.19,51.95s35.02,34.14,52.55,51.19c10.13,9.85,20.25,19.72,30.35,29.61,2.76,2.71,7.01-1.53,4.24-4.24-17.83-17.48-35.75-34.86-53.65-52.27-17.45-16.97-34.87-33.96-52.14-51.11-9.82-9.74-19.59-19.53-29.3-29.39l-4.24,4.24c1.2,1.18,2.41,2.37,3.61,3.55,3.28,3.22,6.55,6.44,9.83,9.66,4.85,4.76,9.69,9.52,14.54,14.29,5.91,5.81,11.82,11.62,17.74,17.43,6.48,6.36,12.95,12.73,19.43,19.09s13.07,12.85,19.61,19.27c6.1,5.99,12.19,11.98,18.29,17.97,5.15,5.06,10.3,10.12,15.45,15.19,3.7,3.64,7.41,7.28,11.11,10.92,1.75,1.72,3.47,3.49,5.26,5.17.08.07.15.15.22.22,2.76,2.71,7-1.53,4.24-4.24Z"/>
        </g>
      </g>
      <g class="cls-8">
        <rect class="cls-7" x="1128.26" y="628.68" width="47.06" height="47.06"/>
        <rect class="cls-7" x="1197.28" y="628.68" width="106.67" height="47.06"/>
      </g>
      <g class="cls-8">
        <rect class="cls-7" x="1128.26" y="709.44" width="47.06" height="47.06"/>
        <rect class="cls-7" x="1197.28" y="709.44" width="106.67" height="47.06"/>
      </g>
    </g>
    <g class="cls-8">
      <rect class="cls-7" x="1128.26" y="792.12" width="47.06" height="47.06"/>
      <rect class="cls-7" x="1197.28" y="792.12" width="106.67" height="47.06"/>
    </g>
  </g>
  <polygon class="cls-2" points="1099.68 421.06 1094.25 415.74 1094.25 411.19 1089.63 411.19 863.4 189.12 680.61 411.19 678.73 411.19 678.73 413.48 673.3 420.08 678.73 420.09 678.73 996.48 1094.25 996.48 1094.25 421.05 1099.68 421.06"/>
  <g>
    <g>
      <path class="cls-6" d="M866.3,202.54l19.62-20.33c-6.6,6.81-13.12,13.58-19.62,20.33Z"/>
      <path class="cls-4" d="M869.49,205.72c5.73-5.94,11.46-11.87,17.19-17.81.81-.84,1.62-1.68,2.43-2.52,1.64-1.7,1.81-4.7,0-6.36s-4.61-1.81-6.36,0c-6.55,6.77-13.09,13.55-19.62,20.33-1.63,1.7-1.81,4.7,0,6.36s4.62,1.81,6.36,0c6.53-6.79,13.07-13.56,19.62-20.33l-6.36-6.36c-5.73,5.94-11.46,11.87-17.19,17.81-.81.84-1.62,1.68-2.43,2.52-1.64,1.7-1.81,4.7,0,6.36s4.62,1.81,6.36,0Z"/>
    </g>
    <g>
      <path class="cls-6" d="M866.3,202.54l-197.45,204.58c67.04-67.23,129.76-134.27,197.45-204.58Z"/>
      <path class="cls-4" d="M863.12,199.36c-1.77,1.83-3.54,3.66-5.31,5.5-4.78,4.95-9.55,9.9-14.33,14.84-7.1,7.36-14.21,14.72-21.31,22.08-8.61,8.92-17.23,17.85-25.84,26.77-9.49,9.83-18.98,19.67-28.47,29.5-9.55,9.9-19.1,19.79-28.66,29.69-8.91,9.23-17.81,18.45-26.72,27.68-7.53,7.8-15.05,15.59-22.58,23.39-5.41,5.61-10.82,11.21-16.23,16.82-2.56,2.65-5.15,5.29-7.69,7.96-.11.11-.22.23-.33.34-1.64,1.7-1.81,4.7,0,6.36s4.59,1.78,6.36,0c13.03-13.07,25.98-26.21,38.87-39.41s25.58-26.31,38.3-39.52,25.34-26.39,37.97-39.62,25.59-26.81,38.4-40.21c13-13.61,26.02-27.21,39.07-40.78,1.61-1.68,3.23-3.36,4.84-5.03s1.81-4.7,0-6.36-4.62-1.81-6.36,0c-13.09,13.59-26.14,27.22-39.18,40.87s-25.64,26.85-38.46,40.27-25.3,26.46-37.98,39.66c-12.71,13.22-25.46,26.41-38.26,39.55s-25.78,26.35-38.78,39.42c-1.6,1.61-3.2,3.21-4.8,4.82l6.36,6.36c1.77-1.83,3.54-3.66,5.31-5.5,4.78-4.95,9.55-9.9,14.33-14.84,7.1-7.36,14.21-14.72,21.31-22.08,8.61-8.92,17.23-17.85,25.84-26.77,9.49-9.83,18.98-19.67,28.47-29.5s19.1-19.79,28.66-29.69c8.91-9.23,17.81-18.45,26.72-27.68,7.53-7.8,15.05-15.59,22.58-23.39,5.41-5.61,10.82-11.21,16.23-16.82,2.56-2.65,5.15-5.29,7.69-7.96.11-.11.22-.23.33-.34,1.64-1.7,1.81-4.7,0-6.36s-4.62-1.81-6.36,0Z"/>
    </g>
    <g>
      <path class="cls-6" d="M1091.16,380.13l20.31,19.6c-6.81-6.59-13.57-13.11-20.31-19.6Z"/>
      <path class="cls-4" d="M1087.98,383.32c5.93,5.72,11.86,11.45,17.79,17.17.84.81,1.68,1.62,2.52,2.43,1.7,1.64,4.7,1.81,6.36,0s1.81-4.61,0-6.36c-6.76-6.55-13.53-13.08-20.31-19.6-1.7-1.63-4.7-1.81-6.36,0s-1.81,4.62,0,6.36c6.78,6.53,13.55,13.06,20.31,19.6l6.36-6.36c-5.93-5.72-11.86-11.45-17.79-17.17-.84-.81-1.68-1.62-2.52-2.43-1.7-1.64-4.7-1.81-6.36,0s-1.81,4.62,0,6.36Z"/>
    </g>
    <g>
      <path class="cls-6" d="M1091.16,380.13l-204.6-197.47c67.23,67.04,134.28,129.77,204.6,197.47Z"/>
      <path class="cls-4" d="M1094.34,376.95c-1.83-1.77-3.66-3.53-5.49-5.3-4.96-4.79-9.92-9.58-14.89-14.37-7.33-7.08-14.67-14.16-22-21.23-8.97-8.66-17.95-17.32-26.92-25.99-9.8-9.46-19.6-18.92-29.4-28.38s-19.78-19.09-29.68-28.64c-9.25-8.93-18.5-17.85-27.75-26.78-7.77-7.5-15.54-15-23.31-22.5-5.62-5.43-11.24-10.85-16.86-16.28-2.65-2.56-5.28-5.15-7.96-7.68-.11-.11-.23-.22-.34-.33-1.7-1.64-4.7-1.81-6.36,0s-1.78,4.59,0,6.36c13.07,13.03,26.21,25.98,39.41,38.87s26.31,25.58,39.53,38.3,26.39,25.34,39.62,37.98,26.81,25.6,40.21,38.4,27.22,26.02,40.79,39.07c1.68,1.61,3.36,3.23,5.03,4.84s4.7,1.81,6.36,0,1.81-4.62,0-6.36c-13.6-13.09-27.23-26.14-40.87-39.18s-26.85-25.64-40.28-38.46-26.47-25.3-39.66-37.99c-13.22-12.71-26.41-25.46-39.55-38.26s-26.35-25.79-39.42-38.78c-1.61-1.6-3.21-3.2-4.82-4.8l-6.36,6.36c1.83,1.77,3.66,3.53,5.49,5.3,4.96,4.79,9.92,9.58,14.89,14.37,7.33,7.08,14.67,14.16,22,21.23,8.97,8.66,17.95,17.32,26.92,25.99,9.8,9.46,19.6,18.92,29.4,28.38s19.78,19.09,29.68,28.64c9.25,8.93,18.5,17.85,27.75,26.78,7.77,7.5,15.54,15,23.31,22.5,5.62,5.43,11.24,10.85,16.86,16.28,2.65,2.56,5.28,5.15,7.96,7.68.11.11.23.22.34.33,1.7,1.64,4.7,1.81,6.36,0s1.81-4.62,0-6.36Z"/>
    </g>
  </g>
  <g class="cls-8">
    <rect class="cls-7" x="751.6" y="463.42" width="91.13" height="60.79"/>
    <rect class="cls-7" x="930.25" y="463.42" width="91.13" height="60.79"/>
  </g>
  <g class="cls-8">
    <rect class="cls-7" x="751.6" y="581.86" width="91.13" height="60.79"/>
    <rect class="cls-7" x="930.25" y="581.86" width="91.13" height="60.79"/>
  </g>
  <path class="cls-7" d="M944.66,935.2v-139.97c0-29.21-21.01-52.88-46.93-52.88h-25.12c-25.92,0-46.93,23.68-46.93,52.88v139.97h118.98Z"/>
  <g>
    <circle class="cls-7" cx="890.43" cy="367.76" r="53.14"/>
    <g>
      <path class="cls-5" d="M896.75,383.96v-30.19c0-6.3-2.76-11.41-6.17-11.41h-3.3c-3.41,0-6.17,5.11-6.17,11.41v30.19h15.65Z"/>
      <path class="cls-5" d="M881.1,383.97h30.19c6.3,0,11.41-2.76,11.41-6.17v-3.3c0-3.41-5.11-6.17-11.41-6.17h-30.19v15.65Z"/>
    </g>
  </g>
</svg>