<?xml version="1.0" encoding="UTF-8"?>
<svg xmlns="http://www.w3.org/2000/svg" xmlns:xlink="http://www.w3.org/1999/xlink" viewBox="0 0 1600 1000">
  <defs>
    <style>
      .cls-1 {
        fill: #7ce87c;
      }

      .cls-1, .cls-2, .cls-3, .cls-4, .cls-5, .cls-6, .cls-7, .cls-8, .cls-9, .cls-10, .cls-11, .cls-12, .cls-13, .cls-14, .cls-15, .cls-16, .cls-17, .cls-18, .cls-19, .cls-20, .cls-21, .cls-22, .cls-23, .cls-24, .cls-25, .cls-26, .cls-27, .cls-28, .cls-29, .cls-30, .cls-31, .cls-32, .cls-33, .cls-34, .cls-35, .cls-36, .cls-37, .cls-38, .cls-39, .cls-40, .cls-41, .cls-42, .cls-43, .cls-44, .cls-45, .cls-46, .cls-47, .cls-48, .cls-49, .cls-50, .cls-51, .cls-52, .cls-53, .cls-54, .cls-55, .cls-56, .cls-57, .cls-58, .cls-59, .cls-60, .cls-61, .cls-62, .cls-63, .cls-64, .cls-65, .cls-66, .cls-67, .cls-68, .cls-69, .cls-70, .cls-71, .cls-72, .cls-73, .cls-74, .cls-75, .cls-76, .cls-77, .cls-78, .cls-79, .cls-80, .cls-81, .cls-82, .cls-83, .cls-84, .cls-85, .cls-86, .cls-87, .cls-88, .cls-89, .cls-90, .cls-91, .cls-92, .cls-93, .cls-94, .cls-95, .cls-96, .cls-97, .cls-98, .cls-99, .cls-100, .cls-101, .cls-102, .cls-103, .cls-104, .cls-105, .cls-106, .cls-107, .cls-108, .cls-109, .cls-110, .cls-111, .cls-112, .cls-113, .cls-114 {
        stroke-width: 0px;
      }

      .cls-2 {
        fill: #86eae7;
      }

      .cls-3 {
        fill: #a88869;
      }

      .cls-4 {
        fill: url(#_무제_그라디언트_28-10);
      }

      .cls-5 {
        fill: url(#_무제_그라디언트_28-11);
      }

      .cls-6 {
        fill: url(#_무제_그라디언트_245-7);
      }

      .cls-7 {
        fill: url(#_무제_그라디언트_245-6);
      }

      .cls-8 {
        fill: url(#_무제_그라디언트_245-4);
      }

      .cls-9 {
        fill: url(#_무제_그라디언트_245-3);
      }

      .cls-10 {
        fill: url(#_무제_그라디언트_245-2);
      }

      .cls-11 {
        fill: url(#_무제_그라디언트_245-8);
      }

      .cls-12 {
        fill: url(#_무제_그라디언트_245-5);
      }

      .cls-13 {
        fill: url(#_무제_그라디언트_126-2);
      }

      .cls-14 {
        fill: url(#_무제_그라디언트_126-3);
      }

      .cls-15 {
        fill: url(#_무제_그라디언트_138-2);
      }

      .cls-16 {
        fill: url(#_무제_그라디언트_129-2);
      }

      .cls-17 {
        fill: url(#_무제_그라디언트_129-3);
      }

      .cls-18 {
        fill: url(#_무제_그라디언트_129-4);
      }

      .cls-19 {
        fill: url(#_무제_그라디언트_129-9);
      }

      .cls-20 {
        fill: url(#_무제_그라디언트_129-5);
      }

      .cls-21 {
        fill: url(#_무제_그라디언트_129-6);
      }

      .cls-22 {
        fill: url(#_무제_그라디언트_129-7);
      }

      .cls-23 {
        fill: url(#_무제_그라디언트_129-8);
      }

      .cls-24 {
        fill: url(#_무제_그라디언트_142-2);
      }

      .cls-25 {
        fill: url(#_무제_그라디언트_46-11);
      }

      .cls-26 {
        fill: url(#_무제_그라디언트_46-13);
      }

      .cls-27 {
        fill: url(#_무제_그라디언트_46-10);
      }

      .cls-28 {
        fill: url(#_무제_그라디언트_46-12);
      }

      .cls-29 {
        fill: url(#_무제_그라디언트_363);
      }

      .cls-30 {
        fill: url(#_무제_그라디언트_134);
      }

      .cls-31 {
        fill: url(#_무제_그라디언트_133);
      }

      .cls-32 {
        fill: url(#_무제_그라디언트_140);
      }

      .cls-33 {
        fill: url(#_무제_그라디언트_142);
      }

      .cls-34 {
        fill: url(#_무제_그라디언트_141);
      }

      .cls-35 {
        fill: url(#_무제_그라디언트_138);
      }

      .cls-36 {
        fill: url(#_무제_그라디언트_139);
      }

      .cls-37 {
        fill: url(#_무제_그라디언트_135);
      }

      .cls-38 {
        fill: url(#_무제_그라디언트_125);
      }

      .cls-39 {
        fill: url(#_무제_그라디언트_128);
      }

      .cls-40 {
        fill: url(#_무제_그라디언트_126);
      }

      .cls-41 {
        fill: url(#_무제_그라디언트_127);
      }

      .cls-42 {
        fill: url(#_무제_그라디언트_129);
      }

      .cls-43 {
        fill: url(#_무제_그라디언트_245);
      }

      .cls-44 {
        fill: #3c8d4f;
      }

      .cls-45 {
        fill: url(#_무제_그라디언트_15);
      }

      .cls-46 {
        fill: url(#_무제_그라디언트_11);
      }

      .cls-47 {
        fill: url(#_무제_그라디언트_20);
      }

      .cls-48 {
        fill: url(#_무제_그라디언트_28);
      }

      .cls-49 {
        fill: url(#_무제_그라디언트_34);
      }

      .cls-50 {
        fill: url(#_무제_그라디언트_33);
      }

      .cls-51 {
        fill: url(#_무제_그라디언트_37);
      }

      .cls-52 {
        fill: url(#_무제_그라디언트_57);
      }

      .cls-53 {
        fill: url(#_무제_그라디언트_54);
      }

      .cls-54 {
        fill: url(#_무제_그라디언트_56);
      }

      .cls-55 {
        fill: url(#_무제_그라디언트_55);
      }

      .cls-56 {
        fill: url(#_무제_그라디언트_43);
      }

      .cls-57 {
        fill: url(#_무제_그라디언트_64);
      }

      .cls-58 {
        fill: url(#_무제_그라디언트_46);
      }

      .cls-59 {
        fill: url(#_무제_그라디언트_53);
      }

      .cls-60 {
        fill: url(#_무제_그라디언트_58);
      }

      .cls-61 {
        fill: url(#_무제_그라디언트_59);
      }

      .cls-62 {
        fill: url(#_무제_그라디언트_45);
      }

      .cls-63 {
        fill: url(#_무제_그라디언트_51);
      }

      .cls-64 {
        fill: url(#_무제_그라디언트_50);
      }

      .cls-65 {
        fill: #e5e5e7;
      }

      .cls-66 {
        fill: #50bc69;
      }

      .cls-67 {
        fill: #fddfab;
      }

      .cls-68 {
        fill: #efea41;
      }

      .cls-115, .cls-95 {
        opacity: .75;
      }

      .cls-69 {
        fill: #285e35;
      }

      .cls-70 {
        fill: #eacca0;
      }

      .cls-71 {
        fill: #ffedcf;
      }

      .cls-72 {
        fill: #189554;
      }

      .cls-73 {
        fill: #212121;
      }

      .cls-74 {
        fill: url(#_무제_그라디언트_46-8);
      }

      .cls-75 {
        fill: url(#_무제_그라디언트_46-2);
      }

      .cls-76 {
        fill: url(#_무제_그라디언트_46-3);
      }

      .cls-77 {
        fill: url(#_무제_그라디언트_46-5);
      }

      .cls-78 {
        fill: url(#_무제_그라디언트_46-9);
      }

      .cls-79 {
        fill: url(#_무제_그라디언트_46-6);
      }

      .cls-80 {
        fill: url(#_무제_그라디언트_46-7);
      }

      .cls-81 {
        fill: url(#_무제_그라디언트_46-4);
      }

      .cls-82 {
        fill: url(#_무제_그라디언트_55-4);
      }

      .cls-83 {
        fill: url(#_무제_그라디언트_55-3);
      }

      .cls-84 {
        fill: url(#_무제_그라디언트_55-2);
      }

      .cls-85 {
        fill: url(#_무제_그라디언트_64-2);
      }

      .cls-86 {
        fill: url(#_무제_그라디언트_28-8);
      }

      .cls-87 {
        fill: url(#_무제_그라디언트_28-3);
      }

      .cls-88 {
        fill: url(#_무제_그라디언트_28-2);
      }

      .cls-89 {
        fill: url(#_무제_그라디언트_28-4);
      }

      .cls-90 {
        fill: url(#_무제_그라디언트_28-6);
      }

      .cls-91 {
        fill: url(#_무제_그라디언트_28-7);
      }

      .cls-92 {
        fill: url(#_무제_그라디언트_28-5);
      }

      .cls-93 {
        fill: url(#_무제_그라디언트_28-9);
      }

      .cls-116 {
        fill: #000;
        font-family: Pretendard-Medium-KSCpc-EUC-H, Pretendard;
        font-size: 43.18px;
        font-weight: 500;
      }

      .cls-94 {
        fill: #d69029;
      }

      .cls-95, .cls-112 {
        fill: #fff;
      }

      .cls-96 {
        fill: url(#_무제_그라디언트_129-19);
      }

      .cls-97 {
        fill: url(#_무제_그라디언트_129-17);
      }

      .cls-98 {
        fill: url(#_무제_그라디언트_129-15);
      }

      .cls-99 {
        fill: url(#_무제_그라디언트_129-18);
      }

      .cls-100 {
        fill: url(#_무제_그라디언트_129-16);
      }

      .cls-101 {
        fill: url(#_무제_그라디언트_129-12);
      }

      .cls-102 {
        fill: url(#_무제_그라디언트_129-10);
      }

      .cls-103 {
        fill: url(#_무제_그라디언트_129-14);
      }

      .cls-104 {
        fill: url(#_무제_그라디언트_129-11);
      }

      .cls-105 {
        fill: url(#_무제_그라디언트_129-13);
      }

      .cls-106 {
        fill: url(#_무제_그라디언트_129-22);
      }

      .cls-107 {
        fill: url(#_무제_그라디언트_129-21);
      }

      .cls-108 {
        fill: url(#_무제_그라디언트_129-25);
      }

      .cls-109 {
        fill: url(#_무제_그라디언트_129-23);
      }

      .cls-110 {
        fill: url(#_무제_그라디언트_129-24);
      }

      .cls-111 {
        fill: url(#_무제_그라디언트_129-20);
      }

      .cls-113 {
        fill: #e6e6e6;
      }

      .cls-114 {
        fill: #f27d66;
      }
    </style>
    <linearGradient id="_무제_그라디언트_45" data-name="무제 그라디언트 45" x1="203.33" y1="301.72" x2="203.5" y2="372.44" gradientUnits="userSpaceOnUse">
      <stop offset="0" stop-color="#25a8f4"/>
      <stop offset="0" stop-color="#ffa409"/>
      <stop offset=".62" stop-color="#ffe66f"/>
    </linearGradient>
    <linearGradient id="_무제_그라디언트_46" data-name="무제 그라디언트 46" x1="203.48" y1="296.49" x2="203.46" y2="302.85" gradientUnits="userSpaceOnUse">
      <stop offset="0" stop-color="#25a8f4"/>
      <stop offset="0" stop-color="#ffa409"/>
      <stop offset=".76" stop-color="#ffe66f"/>
    </linearGradient>
    <linearGradient id="_무제_그라디언트_46-2" data-name="무제 그라디언트 46" x1="194.93" y1="366.44" x2="194.93" y2="361.25" xlink:href="#_무제_그라디언트_46"/>
    <linearGradient id="_무제_그라디언트_46-3" data-name="무제 그라디언트 46" x1="194.93" y1="371.45" x2="194.93" y2="367.31" xlink:href="#_무제_그라디언트_46"/>
    <linearGradient id="_무제_그라디언트_46-4" data-name="무제 그라디언트 46" x1="211.57" y1="344.82" x2="211.57" y2="341.48" xlink:href="#_무제_그라디언트_46"/>
    <linearGradient id="_무제_그라디언트_46-5" data-name="무제 그라디언트 46" x1="211.57" y1="347.8" x2="211.57" y2="344.28" xlink:href="#_무제_그라디언트_46"/>
    <linearGradient id="_무제_그라디언트_15" data-name="무제 그라디언트 15" x1="207.6" y1="138.32" x2="737.86" y2="704.19" gradientTransform="translate(-38.32 211.79) rotate(-47.03)" gradientUnits="userSpaceOnUse">
      <stop offset="0" stop-color="#ff2827"/>
      <stop offset=".07" stop-color="#ffbbb2"/>
    </linearGradient>
    <linearGradient id="_무제_그라디언트_20" data-name="무제 그라디언트 20" x1="236.27" y1="104" x2="315.68" y2="104" gradientTransform="translate(32.79 -32.96) rotate(10.55)" gradientUnits="userSpaceOnUse">
      <stop offset="0" stop-color="#ff2827"/>
      <stop offset=".84" stop-color="#ffbbb2"/>
    </linearGradient>
    <linearGradient id="_무제_그라디언트_43" data-name="무제 그라디언트 43" x1="983.97" y1="182.06" x2="985.39" y2="269.95" gradientUnits="userSpaceOnUse">
      <stop offset="0" stop-color="#25a8f4"/>
      <stop offset="0" stop-color="#ffa409"/>
      <stop offset="1" stop-color="#ffe66f"/>
    </linearGradient>
    <linearGradient id="_무제_그라디언트_363" data-name="무제 그라디언트 363" x1="838.75" y1="212.01" x2="838.75" y2="179.44" gradientUnits="userSpaceOnUse">
      <stop offset="0" stop-color="#25a8f4"/>
      <stop offset="0" stop-color="#f94b58"/>
      <stop offset="1" stop-color="#fc758b"/>
    </linearGradient>
    <linearGradient id="_무제_그라디언트_11" data-name="무제 그라디언트 11" x1="841.39" y1="201.13" x2="841.39" y2="112.46" gradientUnits="userSpaceOnUse">
      <stop offset="0" stop-color="#c0ecc0"/>
      <stop offset=".94" stop-color="#56c072"/>
    </linearGradient>
    <linearGradient id="_무제_그라디언트_58" data-name="무제 그라디언트 58" x1="508.92" y1="161.75" x2="509.2" y2="205.26" gradientUnits="userSpaceOnUse">
      <stop offset="0" stop-color="#ff2827"/>
      <stop offset="1" stop-color="#ffbbb2"/>
    </linearGradient>
    <linearGradient id="_무제_그라디언트_245" data-name="무제 그라디언트 245" x1="467.16" y1="200.87" x2="432.84" y2="141.42" gradientUnits="userSpaceOnUse">
      <stop offset="0" stop-color="#25a8f4"/>
      <stop offset="0" stop-color="#fff" stop-opacity=".55"/>
      <stop offset="1" stop-color="#2eaef1" stop-opacity=".55"/>
    </linearGradient>
    <linearGradient id="_무제_그라디언트_54" data-name="무제 그라디언트 54" x1="425.87" y1="143.7" x2="425.92" y2="155.42" gradientUnits="userSpaceOnUse">
      <stop offset="0" stop-color="#ff2827"/>
      <stop offset="1" stop-color="#ffbbb2"/>
    </linearGradient>
    <linearGradient id="_무제_그라디언트_55" data-name="무제 그라디언트 55" x1="439.58" y1="143.7" x2="439.63" y2="155.42" gradientUnits="userSpaceOnUse">
      <stop offset="0" stop-color="#ff2827"/>
      <stop offset="1" stop-color="#ffbbb2"/>
    </linearGradient>
    <linearGradient id="_무제_그라디언트_56" data-name="무제 그라디언트 56" x1="453.29" y1="143.7" x2="453.34" y2="155.42" gradientUnits="userSpaceOnUse">
      <stop offset="0" stop-color="#ff2827"/>
      <stop offset="1" stop-color="#ffbbb2"/>
    </linearGradient>
    <linearGradient id="_무제_그라디언트_57" data-name="무제 그라디언트 57" x1="467.31" y1="143.7" x2="467.36" y2="155.42" gradientUnits="userSpaceOnUse">
      <stop offset="0" stop-color="#ff2827"/>
      <stop offset="1" stop-color="#ffbbb2"/>
    </linearGradient>
    <linearGradient id="_무제_그라디언트_125" data-name="무제 그라디언트 125" x1="416.71" y1="208.9" x2="534" y2="208.9" gradientUnits="userSpaceOnUse">
      <stop offset="0" stop-color="#bb3434"/>
      <stop offset="1" stop-color="#be4248"/>
    </linearGradient>
    <linearGradient id="_무제_그라디언트_59" data-name="무제 그라디언트 59" x1="475.3" y1="109.71" x2="475.97" y2="226.99" gradientUnits="userSpaceOnUse">
      <stop offset="0" stop-color="#ff2827"/>
      <stop offset=".27" stop-color="#ffbbb2"/>
    </linearGradient>
    <linearGradient id="_무제_그라디언트_53" data-name="무제 그라디언트 53" x1="475.35" y1="126.64" x2="475.36" y2="139.2" gradientUnits="userSpaceOnUse">
      <stop offset="0" stop-color="#ff2827"/>
      <stop offset=".84" stop-color="#ffbbb2"/>
    </linearGradient>
    <linearGradient id="_무제_그라디언트_55-2" data-name="무제 그라디언트 55" x1="471.94" y1="196.89" x2="482.28" y2="196.89" xlink:href="#_무제_그라디언트_55"/>
    <linearGradient id="_무제_그라디언트_55-3" data-name="무제 그라디언트 55" x1="471.94" y1="197.14" x2="482.28" y2="197.14" xlink:href="#_무제_그라디언트_55"/>
    <linearGradient id="_무제_그라디언트_64" data-name="무제 그라디언트 64" x1="471.94" y1="196.7" x2="482.28" y2="196.7" gradientUnits="userSpaceOnUse">
      <stop offset="0" stop-color="#ff2827"/>
      <stop offset="1" stop-color="#ff3e46"/>
    </linearGradient>
    <linearGradient id="_무제_그라디언트_55-4" data-name="무제 그라디언트 55" x1="432.52" y1="197.14" x2="442.86" y2="197.14" xlink:href="#_무제_그라디언트_55"/>
    <linearGradient id="_무제_그라디언트_64-2" data-name="무제 그라디언트 64" x1="432.52" x2="442.86" xlink:href="#_무제_그라디언트_64"/>
    <linearGradient id="_무제_그라디언트_34" data-name="무제 그라디언트 34" x1="1146.95" y1="368.87" x2="1145.91" y2="289.41" gradientUnits="userSpaceOnUse">
      <stop offset=".21" stop-color="#c0ecc0"/>
      <stop offset=".88" stop-color="#56c072"/>
    </linearGradient>
    <linearGradient id="_무제_그라디언트_33" data-name="무제 그라디언트 33" x1="1145.52" y1="322.55" x2="1145.81" y2="247.82" gradientUnits="userSpaceOnUse">
      <stop offset=".42" stop-color="#c0ecc0"/>
      <stop offset=".88" stop-color="#56c072"/>
    </linearGradient>
    <linearGradient id="_무제_그라디언트_37" data-name="무제 그라디언트 37" x1="1145.59" y1="294.27" x2="1145.95" y2="221.56" gradientUnits="userSpaceOnUse">
      <stop offset="0" stop-color="#25a8f4"/>
      <stop offset=".07" stop-color="#fff" stop-opacity=".55"/>
      <stop offset=".74" stop-color="#6fbcca" stop-opacity=".55"/>
    </linearGradient>
    <linearGradient id="_무제_그라디언트_51" data-name="무제 그라디언트 51" x1="325" y1="219.39" x2="324.7" y2="298.37" gradientUnits="userSpaceOnUse">
      <stop offset="0" stop-color="#25a8f4"/>
      <stop offset="0" stop-color="#ffa409"/>
      <stop offset=".46" stop-color="#ffe66f"/>
    </linearGradient>
    <linearGradient id="_무제_그라디언트_46-6" data-name="무제 그라디언트 46" x1="304.51" y1="178.22" x2="304.23" y2="215.95" xlink:href="#_무제_그라디언트_46"/>
    <linearGradient id="_무제_그라디언트_46-7" data-name="무제 그라디언트 46" x1="347.74" y1="178.22" x2="347.46" y2="215.95" xlink:href="#_무제_그라디언트_46"/>
    <linearGradient id="_무제_그라디언트_50" data-name="무제 그라디언트 50" x1="382.32" y1="232.01" x2="382.46" y2="253.21" gradientUnits="userSpaceOnUse">
      <stop offset="0" stop-color="#25a8f4"/>
      <stop offset="0" stop-color="#ffa409"/>
      <stop offset=".99" stop-color="#ffe66f"/>
    </linearGradient>
    <linearGradient id="_무제_그라디언트_126" data-name="무제 그라디언트 126" x1="1041.12" y1="856.12" x2="1074.89" y2="855.74" gradientUnits="userSpaceOnUse">
      <stop offset="0" stop-color="#c0ecc0"/>
      <stop offset="1" stop-color="#56c072"/>
    </linearGradient>
    <linearGradient id="_무제_그라디언트_126-2" data-name="무제 그라디언트 126" x1="1141.39" x2="1175.16" xlink:href="#_무제_그라디언트_126"/>
    <linearGradient id="_무제_그라디언트_126-3" data-name="무제 그라디언트 126" x1="1084.02" y1="842.96" x2="1136.01" y2="841.87" xlink:href="#_무제_그라디언트_126"/>
    <linearGradient id="_무제_그라디언트_127" data-name="무제 그라디언트 127" x1="1379.87" y1="460.94" x2="1380.45" y2="577.59" gradientUnits="userSpaceOnUse">
      <stop offset="0" stop-color="#ff2827"/>
      <stop offset=".78" stop-color="#ffbbb2"/>
    </linearGradient>
    <linearGradient id="_무제_그라디언트_128" data-name="무제 그라디언트 128" x1="-1388.58" y1="-2243.38" x2="-1344.84" y2="-2281.44" gradientTransform="translate(826.95 3118.21) rotate(45)" gradientUnits="userSpaceOnUse">
      <stop offset="0" stop-color="#ff2827"/>
      <stop offset="1" stop-color="#ffbbb2"/>
    </linearGradient>
    <linearGradient id="_무제_그라디언트_140" data-name="무제 그라디언트 140" x1="1028.38" y1="617.59" x2="1029.68" y2="543.63" gradientUnits="userSpaceOnUse">
      <stop offset="0" stop-color="#c0ecc0"/>
      <stop offset=".88" stop-color="#56c072"/>
    </linearGradient>
    <linearGradient id="_무제_그라디언트_139" data-name="무제 그라디언트 139" x1="-1281.76" y1="-1927.83" x2="-1322.96" y2="-1887.05" gradientTransform="translate(675.36 2890.22) rotate(45)" gradientUnits="userSpaceOnUse">
      <stop offset="0" stop-color="#c0ecc0"/>
      <stop offset="1" stop-color="#56c072"/>
    </linearGradient>
    <linearGradient id="_무제_그라디언트_245-2" data-name="무제 그라디언트 245" x1="174.85" y1="892.12" x2="175.7" y2="815.08" gradientTransform="translate(2.05 -.97) rotate(.4)" xlink:href="#_무제_그라디언트_245"/>
    <linearGradient id="_무제_그라디언트_245-3" data-name="무제 그라디언트 245" x1="206.91" y1="855.69" x2="228.42" y2="809.7" gradientTransform="translate(2.05 -.97) rotate(.4)" xlink:href="#_무제_그라디언트_245"/>
    <linearGradient id="_무제_그라디언트_28" data-name="무제 그라디언트 28" x1="175.1" y1="786.1" x2="174.89" y2="873.39" gradientTransform="translate(-3.8 .24)" gradientUnits="userSpaceOnUse">
      <stop offset="0" stop-color="#25a8f4"/>
      <stop offset="0" stop-color="#f49308"/>
      <stop offset=".96" stop-color="#ffe66f"/>
    </linearGradient>
    <linearGradient id="_무제_그라디언트_245-4" data-name="무제 그라디언트 245" x1="539.06" y1="921.56" x2="539.91" y2="844.52" gradientTransform="translate(2.05 -.97) rotate(.4)" xlink:href="#_무제_그라디언트_245"/>
    <linearGradient id="_무제_그라디언트_245-5" data-name="무제 그라디언트 245" x1="571.13" y1="885.13" x2="592.63" y2="839.14" gradientTransform="translate(2.05 -.97) rotate(.4)" xlink:href="#_무제_그라디언트_245"/>
    <linearGradient id="_무제_그라디언트_28-2" data-name="무제 그라디언트 28" x1="539.32" y1="815.54" x2="539.1" y2="902.83" gradientTransform="translate(-4.02 2.8)" xlink:href="#_무제_그라디언트_28"/>
    <linearGradient id="_무제_그라디언트_129" data-name="무제 그라디언트 129" x1="683.23" y1="130.97" x2="682.55" y2="87.1" gradientUnits="userSpaceOnUse">
      <stop offset="0" stop-color="#c0ecc0"/>
      <stop offset=".9" stop-color="#56c072"/>
    </linearGradient>
    <linearGradient id="_무제_그라디언트_245-6" data-name="무제 그라디언트 245" x1="640.59" y1="119.64" x2="605.98" y2="59.68" xlink:href="#_무제_그라디언트_245"/>
    <linearGradient id="_무제_그라디언트_129-2" data-name="무제 그라디언트 129" x1="598.92" y1="73.86" x2="598.99" y2="63.65" xlink:href="#_무제_그라디언트_129"/>
    <linearGradient id="_무제_그라디언트_129-3" data-name="무제 그라디언트 129" x1="612.92" y1="73.86" x2="612.99" y2="63.65" xlink:href="#_무제_그라디언트_129"/>
    <linearGradient id="_무제_그라디언트_129-4" data-name="무제 그라디언트 129" x1="626.92" y1="73.86" x2="626.99" y2="63.65" xlink:href="#_무제_그라디언트_129"/>
    <linearGradient id="_무제_그라디언트_129-5" data-name="무제 그라디언트 129" x1="640.72" y1="73.86" x2="640.79" y2="63.65" xlink:href="#_무제_그라디언트_129"/>
    <linearGradient id="_무제_그라디언트_129-6" data-name="무제 그라디언트 129" x1="648.87" y1="45.11" x2="648.85" y2="32.76" xlink:href="#_무제_그라디언트_129"/>
    <linearGradient id="_무제_그라디언트_129-7" data-name="무제 그라디언트 129" x1="648.62" y1="57.44" x2="648.97" y2="44.78" xlink:href="#_무제_그라디언트_129"/>
    <linearGradient id="_무제_그라디언트_129-8" data-name="무제 그라디언트 129" x1="607.7" y1="115.5" x2="618.15" y2="115.5" xlink:href="#_무제_그라디언트_129"/>
    <linearGradient id="_무제_그라디언트_129-9" data-name="무제 그라디언트 129" x1="648.7" y1="115.5" x2="659.15" y2="115.5" xlink:href="#_무제_그라디언트_129"/>
    <linearGradient id="_무제_그라디언트_135" data-name="무제 그라디언트 135" x1="182.77" y1="538.72" x2="113.38" y2="538.89" gradientUnits="userSpaceOnUse">
      <stop offset="0" stop-color="#25a8f4"/>
      <stop offset="0" stop-color="#ffa409"/>
      <stop offset="1" stop-color="#ffe66f"/>
    </linearGradient>
    <linearGradient id="_무제_그라디언트_46-8" data-name="무제 그라디언트 46" x1="145.94" y1="501.32" x2="145.93" y2="494.96" xlink:href="#_무제_그라디언트_46"/>
    <linearGradient id="_무제_그라디언트_134" data-name="무제 그라디언트 134" x1="110.51" y1="520.23" x2="39.79" y2="520.27" gradientUnits="userSpaceOnUse">
      <stop offset="0" stop-color="#25a8f4"/>
      <stop offset="0" stop-color="#ffa409"/>
      <stop offset="1" stop-color="#ffe66f"/>
    </linearGradient>
    <linearGradient id="_무제_그라디언트_46-9" data-name="무제 그라디언트 46" x1="73.77" y1="464.13" x2="73.77" y2="458.16" xlink:href="#_무제_그라디언트_46"/>
    <linearGradient id="_무제_그라디언트_133" data-name="무제 그라디언트 133" x1="65.15" y1="478.88" x2="82.4" y2="478.88" gradientUnits="userSpaceOnUse">
      <stop offset="1" stop-color="#ff2827"/>
      <stop offset="1" stop-color="#ffbbb2"/>
    </linearGradient>
    <linearGradient id="_무제_그라디언트_46-10" data-name="무제 그라디언트 46" x1="621.12" y1="629.77" x2="621.12" y2="606.54" xlink:href="#_무제_그라디언트_46"/>
    <linearGradient id="_무제_그라디언트_46-11" data-name="무제 그라디언트 46" x1="624.47" y1="710.4" x2="620.92" y2="608.76" xlink:href="#_무제_그라디언트_46"/>
    <linearGradient id="_무제_그라디언트_28-3" data-name="무제 그라디언트 28" x1="657.2" y1="590.92" x2="657.67" y2="631.52" gradientTransform="matrix(1,0,0,1,0,0)" xlink:href="#_무제_그라디언트_28"/>
    <linearGradient id="_무제_그라디언트_28-4" data-name="무제 그라디언트 28" x1="657.27" y1="592.68" x2="657.34" y2="598.31" gradientTransform="matrix(1,0,0,1,0,0)" xlink:href="#_무제_그라디언트_28"/>
    <linearGradient id="_무제_그라디언트_28-5" data-name="무제 그라디언트 28" x1="657.21" y1="584.36" x2="657.29" y2="591.22" gradientTransform="matrix(1,0,0,1,0,0)" xlink:href="#_무제_그라디언트_28"/>
    <linearGradient id="_무제_그라디언트_46-12" data-name="무제 그라디언트 46" x1="729.36" y1="629.77" x2="729.36" y2="606.54" xlink:href="#_무제_그라디언트_46"/>
    <linearGradient id="_무제_그라디언트_46-13" data-name="무제 그라디언트 46" x1="732.71" y1="710.4" x2="729.16" y2="608.76" xlink:href="#_무제_그라디언트_46"/>
    <linearGradient id="_무제_그라디언트_28-6" data-name="무제 그라디언트 28" x1="765.45" y1="590.92" x2="765.92" y2="631.52" gradientTransform="matrix(1,0,0,1,0,0)" xlink:href="#_무제_그라디언트_28"/>
    <linearGradient id="_무제_그라디언트_28-7" data-name="무제 그라디언트 28" x1="765.52" y1="592.68" x2="765.58" y2="598.31" gradientTransform="matrix(1,0,0,1,0,0)" xlink:href="#_무제_그라디언트_28"/>
    <linearGradient id="_무제_그라디언트_28-8" data-name="무제 그라디언트 28" x1="765.45" y1="584.36" x2="765.53" y2="591.22" gradientTransform="matrix(1,0,0,1,0,0)" xlink:href="#_무제_그라디언트_28"/>
    <linearGradient id="_무제_그라디언트_28-9" data-name="무제 그라디언트 28" x1="295.27" y1="645.89" x2="296.63" y2="764.26" gradientTransform="matrix(1,0,0,1,0,0)" xlink:href="#_무제_그라디언트_28"/>
    <linearGradient id="_무제_그라디언트_28-10" data-name="무제 그라디언트 28" x1="295.47" y1="651.02" x2="295.66" y2="667.44" gradientTransform="matrix(1,0,0,1,0,0)" xlink:href="#_무제_그라디언트_28"/>
    <linearGradient id="_무제_그라디언트_28-11" data-name="무제 그라디언트 28" x1="295.28" y1="626.74" x2="295.51" y2="646.76" gradientTransform="matrix(1,0,0,1,0,0)" xlink:href="#_무제_그라디언트_28"/>
    <linearGradient id="_무제_그라디언트_129-10" data-name="무제 그라디언트 129" x1="1246.25" y1="703.16" x2="1245.78" y2="615.64" xlink:href="#_무제_그라디언트_129"/>
    <linearGradient id="_무제_그라디언트_138" data-name="무제 그라디언트 138" x1="1246.13" y1="680.71" x2="1245.89" y2="635.27" gradientUnits="userSpaceOnUse">
      <stop offset="0" stop-color="#c0ecc0"/>
      <stop offset="0" stop-color="#4d985f"/>
    </linearGradient>
    <linearGradient id="_무제_그라디언트_129-11" data-name="무제 그라디언트 129" x1="730.25" y1="477.16" x2="729.78" y2="389.64" xlink:href="#_무제_그라디언트_129"/>
    <linearGradient id="_무제_그라디언트_138-2" data-name="무제 그라디언트 138" x1="730.13" y1="454.71" x2="729.89" y2="409.27" xlink:href="#_무제_그라디언트_138"/>
    <linearGradient id="_무제_그라디언트_141" data-name="무제 그라디언트 141" x1="890.77" y1="883.44" x2="889" y2="768.79" gradientUnits="userSpaceOnUse">
      <stop offset="0" stop-color="#c0ecc0"/>
      <stop offset=".8" stop-color="#56c072"/>
    </linearGradient>
    <linearGradient id="_무제_그라디언트_129-12" data-name="무제 그라디언트 129" x1="601.87" y1="389.75" x2="601.41" y2="360.39" xlink:href="#_무제_그라디언트_129"/>
    <linearGradient id="_무제_그라디언트_129-13" data-name="무제 그라디언트 129" x1="513.24" y1="337.76" x2="513.38" y2="316.05" xlink:href="#_무제_그라디언트_129"/>
    <linearGradient id="_무제_그라디언트_129-14" data-name="무제 그라디언트 129" x1="543.2" y1="337.76" x2="543.35" y2="316.05" xlink:href="#_무제_그라디언트_129"/>
    <linearGradient id="_무제_그라디언트_129-15" data-name="무제 그라디언트 129" x1="573.17" y1="337.76" x2="573.31" y2="316.05" xlink:href="#_무제_그라디언트_129"/>
    <linearGradient id="_무제_그라디언트_129-16" data-name="무제 그라디언트 129" x1="602.71" y1="337.76" x2="602.85" y2="316.05" xlink:href="#_무제_그라디언트_129"/>
    <linearGradient id="_무제_그라디언트_129-17" data-name="무제 그라디언트 129" x1="565.37" y1="305.47" x2="565.35" y2="293.01" xlink:href="#_무제_그라디언트_129"/>
    <linearGradient id="_무제_그라디언트_129-18" data-name="무제 그라디언트 129" x1="565.12" y1="317.91" x2="565.47" y2="305.14" xlink:href="#_무제_그라디언트_129"/>
    <linearGradient id="_무제_그라디언트_245-7" data-name="무제 그라디언트 245" x1="525.46" y1="368.25" x2="525.54" y2="349.62" xlink:href="#_무제_그라디언트_245"/>
    <linearGradient id="_무제_그라디언트_142" data-name="무제 그라디언트 142" x1="562.58" y1="375.15" x2="562.46" y2="332.92" gradientUnits="userSpaceOnUse">
      <stop offset="0" stop-color="#25a8f4"/>
      <stop offset="0" stop-color="#fff" stop-opacity=".55"/>
      <stop offset=".73" stop-color="#2eaef1" stop-opacity=".55"/>
    </linearGradient>
    <linearGradient id="_무제_그라디언트_129-19" data-name="무제 그라디언트 129" x1="455.87" y1="523.75" x2="455.41" y2="494.39" xlink:href="#_무제_그라디언트_129"/>
    <linearGradient id="_무제_그라디언트_129-20" data-name="무제 그라디언트 129" x1="367.24" y1="471.76" x2="367.38" y2="450.05" xlink:href="#_무제_그라디언트_129"/>
    <linearGradient id="_무제_그라디언트_129-21" data-name="무제 그라디언트 129" x1="397.2" y1="471.76" x2="397.35" y2="450.05" xlink:href="#_무제_그라디언트_129"/>
    <linearGradient id="_무제_그라디언트_129-22" data-name="무제 그라디언트 129" x1="427.17" y1="471.76" x2="427.31" y2="450.05" xlink:href="#_무제_그라디언트_129"/>
    <linearGradient id="_무제_그라디언트_129-23" data-name="무제 그라디언트 129" x1="456.71" y1="471.76" x2="456.85" y2="450.05" xlink:href="#_무제_그라디언트_129"/>
    <linearGradient id="_무제_그라디언트_129-24" data-name="무제 그라디언트 129" x1="419.37" y1="439.47" x2="419.35" y2="427.01" xlink:href="#_무제_그라디언트_129"/>
    <linearGradient id="_무제_그라디언트_129-25" data-name="무제 그라디언트 129" x1="419.12" y1="451.91" x2="419.47" y2="439.14" xlink:href="#_무제_그라디언트_129"/>
    <linearGradient id="_무제_그라디언트_245-8" data-name="무제 그라디언트 245" x1="379.46" y1="502.25" x2="379.54" y2="483.62" xlink:href="#_무제_그라디언트_245"/>
    <linearGradient id="_무제_그라디언트_142-2" data-name="무제 그라디언트 142" x1="416.58" y1="509.15" x2="416.46" y2="466.92" xlink:href="#_무제_그라디언트_142"/>
  </defs>
  <g id="_길" data-name="길">
    <path class="cls-65" d="M386.51-38.41c32.45,37.55,65.31,74.75,98.56,111.6,33.25,36.85,66.9,73.33,100.94,109.45,34.04,36.12,68.46,71.88,103.27,107.26,34.81,35.38,69.99,70.39,105.55,105.01,35.56,34.62,71.49,68.87,107.79,102.72,4.57,4.26,9.14,8.52,13.72,12.76,5.75,5.34,15.59,6.12,21.21,0,5.33-5.8,6.14-15.51,0-21.21-36.38-33.76-72.41-67.9-108.06-102.43-35.65-34.53-70.93-69.44-105.83-104.73-34.9-35.29-69.42-70.95-103.56-106.98-34.13-36.03-67.88-72.43-101.23-109.18S452.55-8,420-45.46c-4.1-4.72-8.19-9.44-12.27-14.16-5.15-5.96-16.01-5.67-21.21,0-5.83,6.35-5.49,14.86,0,21.21h0Z"/>
    <path class="cls-65" d="M914.01,493.64c-23.09,44.14-45.71,88.52-67.85,133.15-22.04,44.43-43.59,89.09-64.67,133.98-21.17,45.09-41.86,90.41-62.05,135.95-20.45,46.11-40.38,92.45-59.84,138.99-19.22,45.96-37.94,92.12-56.16,138.48-2.28,5.8-4.55,11.59-6.81,17.39-2.86,7.33,3.14,16.78,10.48,18.45,8.61,1.96,15.39-2.63,18.45-10.48,18.02-46.2,36.53-92.21,55.53-138.02,4.77-11.5,9.58-22.99,14.41-34.47.26-.61.52-1.23.78-1.84.07-.17.93-2.21.28-.67-.71,1.68.38-.9.54-1.28.26-.61.52-1.23.78-1.84,1.21-2.87,2.43-5.73,3.64-8.6,2.43-5.73,4.87-11.46,7.32-17.18,9.8-22.9,19.71-45.75,29.76-68.54,19.99-45.38,40.47-90.55,61.44-135.49,20.87-44.74,42.22-89.26,64.04-133.54,21.92-44.48,44.32-88.73,67.19-132.73,2.87-5.52,5.75-11.05,8.64-16.56,3.63-6.95,2.01-16.62-5.38-20.52-6.91-3.65-16.64-2.04-20.52,5.38h0Z"/>
    <path class="cls-65" d="M1457.31,401.8c-41.11-29.66-82.03-59.58-122.84-89.65-40.36-29.74-80.61-59.62-120.84-89.53-39.83-29.61-79.64-59.24-119.53-88.77-39.37-29.15-78.82-58.2-118.44-87.03-39.47-28.72-79.1-57.21-118.98-85.34-4.93-3.48-9.86-6.94-14.79-10.41-6.44-4.52-16.95-1.37-20.52,5.38-4.06,7.69-1.49,15.7,5.38,20.52,39.91,28.02,79.56,56.41,119.04,85.05,39.77,28.85,79.37,57.95,118.88,87.16,39.86,29.47,79.64,59.06,119.42,88.64,40.02,29.75,80.04,59.5,120.16,89.11s81.55,59.99,122.55,89.67c5.12,3.7,10.24,7.41,15.36,11.1,6.38,4.61,16.99,1.31,20.52-5.38,4.1-7.77,1.43-15.61-5.38-20.52h0Z"/>
    <path class="cls-65" d="M693.01,280.64c-24.39,46.63-48.29,93.52-71.68,140.67-23.28,46.93-46.06,94.12-68.32,141.54-22.37,47.64-44.22,95.51-65.55,143.62-21.57,48.65-42.6,97.54-63.13,146.64-20.3,48.55-40.08,97.32-59.33,146.3-2.41,6.12-4.8,12.25-7.19,18.38-2.86,7.33,3.14,16.78,10.48,18.45,8.61,1.96,15.39-2.63,18.45-10.48,19.04-48.81,38.59-97.42,58.67-145.81,5.04-12.15,10.12-24.29,15.22-36.42.27-.65.55-1.3.82-1.95.04-.11.95-2.25.34-.81-.67,1.59.47-1.11.61-1.45.27-.65.55-1.3.82-1.95,1.28-3.03,2.56-6.06,3.85-9.09,2.57-6.06,5.15-12.11,7.74-18.16,10.35-24.19,20.83-48.33,31.44-72.41,21.12-47.94,42.76-95.66,64.91-143.14,22.05-47.27,44.6-94.3,67.66-141.08,23.16-46.99,46.82-93.74,70.98-140.23,3.03-5.84,6.08-11.67,9.13-17.5,3.63-6.95,2.01-16.62-5.38-20.52-6.91-3.65-16.64-2.04-20.52,5.38h0Z"/>
    <path class="cls-65" d="M1683.02,384.39c-49.68,3.94-99.33,8.4-148.91,13.4-49.34,4.98-98.63,10.49-147.85,16.53-50.31,6.17-100.55,12.88-150.71,20.13-49.08,7.09-98.09,14.71-147.01,22.85-49.16,8.18-98.24,16.9-147.21,26.14-6.09,1.15-12.18,2.31-18.27,3.47-7.72,1.48-12.83,11.17-10.48,18.45,2.67,8.24,10.18,12.06,18.45,10.48,97.41-18.65,195.23-35.22,293.35-49.67,24.53-3.61,49.08-7.09,73.65-10.44,2.95-.4,5.9-.8,8.85-1.2.18-.02,5.03-.68,1.91-.26,1.47-.2,2.95-.4,4.42-.59,6.39-.85,12.78-1.7,19.17-2.53,12.29-1.61,24.59-3.18,36.89-4.72,49.21-6.16,98.48-11.79,147.81-16.89,55.25-5.71,110.56-10.75,165.93-15.14,7.8-.62,15.38-6.46,15-15-.34-7.6-6.62-15.66-15-15h0Z"/>
    <path class="cls-65" d="M897.75,536.12c-45.67,4.53-91.29,9.54-136.86,15.05-46.48,5.62-92.9,11.74-139.25,18.34-45.51,6.48-90.96,13.45-136.32,20.91-45.4,7.46-90.72,15.41-135.96,23.84s-90.45,17.36-135.53,26.76c-5.61,1.17-11.22,2.35-16.82,3.53-7.69,1.62-12.87,11.07-10.48,18.45,2.63,8.12,10.21,12.22,18.45,10.48,44.84-9.47,89.77-18.47,134.79-26.99,44.99-8.51,90.07-16.55,135.23-24.1,45.35-7.59,90.78-14.69,136.28-21.3,11.31-1.64,22.63-3.26,33.95-4.84,5.66-.79,11.32-1.58,16.98-2.35,2.72-.37,5.44-.74,8.15-1.11,1.36-.18,2.72-.37,4.08-.55.68-.09,1.36-.18,2.04-.28.29-.04,3.12-.42,1.4-.19s.53-.07.72-.1c.68-.09,1.36-.18,2.04-.27,1.36-.18,2.72-.36,4.08-.54,2.95-.39,5.89-.78,8.84-1.17,5.66-.75,11.33-1.48,17-2.21,11.33-1.46,22.66-2.89,34-4.29,45.33-5.59,90.71-10.7,136.15-15.33,5.68-.58,11.35-1.15,17.03-1.71,7.78-.77,15.39-6.35,15-15-.33-7.46-6.64-15.83-15-15h0Z"/>
    <path class="cls-65" d="M1140.42,1032.33c32.3-37.86,64.2-76.06,95.68-114.61s62.54-77.43,93.19-116.64c31.07-39.77,61.74-79.85,91.96-120.28,29.8-39.86,59.17-80.04,88.1-120.53,28.93-40.49,57.43-81.3,85.48-122.4,3.47-5.08,6.92-10.16,10.38-15.25,4.42-6.51,1.45-16.91-5.38-20.52-7.59-4.01-15.81-1.57-20.52,5.38-27.84,41.02-56.11,81.75-84.82,122.16-28.71,40.41-57.85,80.52-87.43,120.31-14.79,19.89-29.68,39.71-44.68,59.44-7.56,9.94-15.14,19.87-22.75,29.77-1.76,2.29-3.51,4.57-5.27,6.85-.94,1.22-1.88,2.43-2.82,3.65-.47.61-.94,1.22-1.41,1.83-1.34,1.74,2.18-2.82-.12.16-3.76,4.86-7.53,9.72-11.3,14.58-30.43,39.14-61.27,77.95-92.53,116.43-31.26,38.48-62.93,76.62-95.01,114.41-3.98,4.69-7.96,9.37-11.96,14.05-5.09,5.96-6.29,15.44,0,21.21,5.6,5.14,15.77,6.37,21.21,0h0Z"/>
    <path class="cls-65" d="M461.39,823.48c20.58,1.65,41.18,3.01,61.79,4.11,19.7,1.05,39.42,1.85,59.14,2.49,19.49.63,38.98,1.09,58.47,1.48s39.09.71,58.63,1.04c20.26.35,40.52.72,60.78,1.21,2.6.06,5.2.13,7.8.19,3.78.1,7.95-1.74,10.61-4.39s4.56-6.87,4.39-10.61-1.45-7.9-4.39-10.61-6.51-4.29-10.61-4.39c-20.37-.51-40.74-.91-61.11-1.27-19.6-.35-39.19-.66-58.79-1.03s-38.97-.81-58.45-1.39c-19.65-.59-39.3-1.35-58.94-2.33-20.49-1.03-40.97-2.3-61.42-3.87-2.63-.2-5.27-.41-7.9-.62-3.65-.29-8.1,1.88-10.61,4.39s-4.56,6.87-4.39,10.61,1.45,7.9,4.39,10.61,6.45,4.06,10.61,4.39h0Z"/>
    <path class="cls-65" d="M-10.39,858.61c61.3-52.58,122.05-105.82,182.21-159.71,59.75-53.52,118.92-107.68,177.51-162.47,58.8-54.99,117.02-110.61,174.62-166.86,57.62-56.25,114.63-113.12,171.03-170.6,56.4-57.49,112.19-115.58,167.35-174.26,6.77-7.21,13.54-14.42,20.29-21.65,5.36-5.73,6.11-15.61,0-21.21s-15.49-6.12-21.21,0c-55.2,59.03-111.03,117.48-167.48,175.31-56.05,57.42-112.72,114.24-169.99,170.44-57.46,56.39-115.53,112.17-174.19,167.32-58.65,55.14-117.89,109.65-177.71,163.51-59.81,53.86-120.2,107.07-181.16,159.62-7.49,6.45-14.98,12.9-22.48,19.33-5.98,5.13-5.66,16.02,0,21.21,6.36,5.84,14.84,5.47,21.21,0h0Z"/>
    <g>
      <rect class="cls-62" x="167.19" y="300.61" width="72.56" height="117.28"/>
      <rect class="cls-58" x="164.17" y="296.45" width="78.59" height="6.36"/>
      <rect class="cls-95" x="172.97" y="310.79" width="10.67" height="13.44"/>
      <rect class="cls-95" x="189.61" y="310.79" width="10.67" height="13.44"/>
      <rect class="cls-95" x="222.88" y="310.79" width="10.67" height="13.44"/>
      <rect class="cls-95" x="172.97" y="334.36" width="10.67" height="13.44"/>
      <rect class="cls-95" x="189.61" y="334.44" width="10.67" height="13.44"/>
      <rect class="cls-95" x="206.23" y="334.36" width="10.67" height="13.44"/>
      <rect class="cls-95" x="222.85" y="334.36" width="10.67" height="13.44"/>
      <rect class="cls-95" x="172.97" y="357.93" width="10.67" height="13.44"/>
      <rect class="cls-95" x="206.24" y="358.01" width="10.67" height="13.44"/>
      <rect class="cls-95" x="222.88" y="357.93" width="10.67" height="13.44"/>
      <path class="cls-94" d="M213,418.03v-21.99c0-4.59-3.34-8.31-7.46-8.31h-4c-4.12,0-7.46,3.72-7.46,8.31v21.99h18.92Z"/>
      <rect class="cls-95" x="189.61" y="358.01" width="10.67" height="13.44"/>
      <g>
        <circle class="cls-75" cx="194.93" cy="363.85" r="2.59"/>
        <path class="cls-76" d="M194.93,367.31c-.58,0-1.13.1-1.65.28-1.69.6-2.89,2.1-2.91,3.85h9.12c-.02-2.29-2.05-4.14-4.56-4.14Z"/>
      </g>
      <path class="cls-112" d="M195.23,369.93l1.08-2.43c-.43-.13-.89-.19-1.37-.19s-.95.07-1.38.2l1.03,2.43h.65Z"/>
      <path class="cls-94" d="M195.35,367.48h-.85s-.05.04-.03.06l.29.28-.26,2.86h.82l-.23-2.86.29-.28s0-.06-.03-.06Z"/>
      <rect class="cls-81" x="207.36" y="341.48" width="8.4" height="3.34" rx="1.55" ry="1.55"/>
      <g>
        <rect class="cls-112" x="208.61" y="342.02" width="2.8" height="1.13" rx=".56" ry=".56"/>
        <rect class="cls-112" x="211.72" y="342.02" width="2.8" height="1.13" rx=".56" ry=".56"/>
      </g>
      <rect class="cls-112" x="208.22" y="343.42" width="6.68" height="1.13" rx=".56" ry=".56"/>
      <path class="cls-77" d="M215.78,344.28h-8.44c-.21,0-.39.17-.39.39v2.74c0,.21.17.39.39.39h.49c.21,0,.39-.17.39-.39v-1.42h6.68v1.42c0,.21.17.39.39.39h.49c.21,0,.39-.17.39-.39v-2.74c0-.21-.17-.39-.39-.39Z"/>
      <rect class="cls-95" x="206.23" y="310.58" width="10.67" height="13.44"/>
    </g>
  </g>
  <g id="_지하철_길" data-name="지하철 길">
    <rect class="cls-45" x="206.42" y="-363.2" width="27" height="1034.63" transform="translate(232.12 -114.16) rotate(57.58)"/>
  </g>
  <g id="_건물" data-name="건물">
    <g>
      <circle class="cls-47" cx="271.9" cy="117.35" r="39.7"/>
      <circle class="cls-112" cx="271.9" cy="117.35" r="32.28"/>
      <text class="cls-116" transform="translate(256.7 128.84) rotate(10.55)"><tspan x="0" y="0">2</tspan></text>
    </g>
    <g>
      <rect class="cls-56" x="947.92" y="183" width="74.28" height="132.9"/>
      <g class="cls-115">
        <g>
          <rect class="cls-112" x="953.73" y="271.79" width="7.77" height="7.77"/>
          <rect class="cls-112" x="965.13" y="271.79" width="17.61" height="7.77"/>
        </g>
        <g>
          <g>
            <g>
              <g>
                <rect class="cls-112" x="953.73" y="192.87" width="7.77" height="7.77"/>
                <rect class="cls-112" x="965.13" y="192.87" width="17.61" height="7.77"/>
              </g>
              <g>
                <rect class="cls-112" x="965.13" y="205.81" width="17.61" height="7.77"/>
                <rect class="cls-112" x="953.73" y="205.81" width="7.77" height="7.77"/>
              </g>
              <g>
                <rect class="cls-112" x="965.13" y="218.76" width="17.61" height="7.77"/>
                <rect class="cls-112" x="953.73" y="218.76" width="7.77" height="7.77"/>
              </g>
            </g>
            <g>
              <g>
                <rect class="cls-112" x="987.39" y="192.87" width="7.77" height="7.77"/>
                <rect class="cls-112" x="998.79" y="192.87" width="17.61" height="7.77"/>
              </g>
              <g>
                <rect class="cls-112" x="998.79" y="205.81" width="17.61" height="7.77"/>
                <rect class="cls-112" x="987.39" y="205.81" width="7.77" height="7.77"/>
              </g>
              <g>
                <rect class="cls-112" x="998.79" y="218.76" width="17.61" height="7.77"/>
                <rect class="cls-112" x="987.39" y="218.76" width="7.77" height="7.77"/>
              </g>
            </g>
          </g>
          <g>
            <g>
              <g>
                <rect class="cls-112" x="953.73" y="232.33" width="7.77" height="7.77"/>
                <rect class="cls-112" x="965.13" y="232.33" width="17.61" height="7.77"/>
              </g>
              <g>
                <rect class="cls-112" x="965.13" y="245.27" width="17.61" height="7.77"/>
                <rect class="cls-112" x="953.73" y="245.27" width="7.77" height="7.77"/>
              </g>
              <g>
                <rect class="cls-112" x="965.13" y="258.22" width="17.61" height="7.77"/>
                <rect class="cls-112" x="953.73" y="258.22" width="7.77" height="7.77"/>
              </g>
            </g>
            <g>
              <g>
                <rect class="cls-112" x="987.39" y="232.33" width="7.77" height="7.77"/>
                <rect class="cls-112" x="998.79" y="232.33" width="17.61" height="7.77"/>
              </g>
              <g>
                <rect class="cls-112" x="998.79" y="245.27" width="17.61" height="7.77"/>
                <rect class="cls-112" x="987.39" y="245.27" width="7.77" height="7.77"/>
              </g>
              <g>
                <rect class="cls-112" x="998.79" y="258.22" width="17.61" height="7.77"/>
                <rect class="cls-112" x="987.39" y="258.22" width="7.77" height="7.77"/>
              </g>
            </g>
          </g>
          <g>
            <rect class="cls-112" x="987.39" y="271.79" width="7.77" height="7.77"/>
            <rect class="cls-112" x="998.79" y="271.79" width="17.61" height="7.77"/>
          </g>
        </g>
      </g>
      <path class="cls-94" d="M993.25,316.33v-19.27c0-4.02-2.89-7.28-6.46-7.28h-3.46c-3.57,0-6.46,3.26-6.46,7.28v19.27h16.38Z"/>
    </g>
    <g>
      <path class="cls-29" d="M848.8,212.01v-23.64c0-4.93-3.55-8.93-7.93-8.93h-4.24c-4.38,0-7.93,4-7.93,8.93v23.64h20.1Z"/>
      <rect class="cls-46" x="803.92" y="80.5" width="74.94" height="134.07"/>
      <g class="cls-115">
        <g>
          <rect class="cls-112" x="809.79" y="170.07" width="7.84" height="7.84"/>
          <rect class="cls-112" x="821.28" y="170.07" width="17.76" height="7.84"/>
        </g>
        <g>
          <g>
            <g>
              <g>
                <rect class="cls-112" x="809.79" y="90.45" width="7.84" height="7.84"/>
                <rect class="cls-112" x="821.28" y="90.45" width="17.76" height="7.84"/>
              </g>
              <g>
                <rect class="cls-112" x="821.28" y="103.51" width="17.76" height="7.84"/>
                <rect class="cls-112" x="809.79" y="103.51" width="7.84" height="7.84"/>
              </g>
              <g>
                <rect class="cls-112" x="821.28" y="116.57" width="17.76" height="7.84"/>
                <rect class="cls-112" x="809.79" y="116.57" width="7.84" height="7.84"/>
              </g>
            </g>
            <g>
              <g>
                <rect class="cls-112" x="843.74" y="90.45" width="7.84" height="7.84"/>
                <rect class="cls-112" x="855.23" y="90.45" width="17.76" height="7.84"/>
              </g>
              <g>
                <rect class="cls-112" x="855.23" y="103.51" width="17.76" height="7.84"/>
                <rect class="cls-112" x="843.74" y="103.51" width="7.84" height="7.84"/>
              </g>
              <g>
                <rect class="cls-112" x="855.23" y="116.57" width="17.76" height="7.84"/>
                <rect class="cls-112" x="843.74" y="116.57" width="7.84" height="7.84"/>
              </g>
            </g>
          </g>
          <g>
            <g>
              <g>
                <rect class="cls-112" x="809.79" y="130.26" width="7.84" height="7.84"/>
                <rect class="cls-112" x="821.28" y="130.26" width="17.76" height="7.84"/>
              </g>
              <g>
                <rect class="cls-112" x="821.28" y="143.32" width="17.76" height="7.84"/>
                <rect class="cls-112" x="809.79" y="143.32" width="7.84" height="7.84"/>
              </g>
              <g>
                <rect class="cls-112" x="821.28" y="156.38" width="17.76" height="7.84"/>
                <rect class="cls-112" x="809.79" y="156.38" width="7.84" height="7.84"/>
              </g>
            </g>
            <g>
              <g>
                <rect class="cls-112" x="843.74" y="130.26" width="7.84" height="7.84"/>
                <rect class="cls-112" x="855.23" y="130.26" width="17.76" height="7.84"/>
              </g>
              <g>
                <rect class="cls-112" x="855.23" y="143.32" width="17.76" height="7.84"/>
                <rect class="cls-112" x="843.74" y="143.32" width="7.84" height="7.84"/>
              </g>
              <g>
                <rect class="cls-112" x="855.23" y="156.38" width="17.76" height="7.84"/>
                <rect class="cls-112" x="843.74" y="156.38" width="7.84" height="7.84"/>
              </g>
            </g>
          </g>
          <g>
            <rect class="cls-112" x="843.74" y="170.07" width="7.84" height="7.84"/>
            <rect class="cls-112" x="855.23" y="170.07" width="17.76" height="7.84"/>
          </g>
        </g>
      </g>
      <path class="cls-66" d="M849.65,215v-19.44c0-4.06-2.92-7.34-6.52-7.34h-3.49c-3.6,0-6.52,3.29-6.52,7.34v19.44h16.52Z"/>
    </g>
    <g>
      <rect class="cls-71" x="416.71" y="134.62" width="117.29" height="71.15"/>
      <path class="cls-60" d="M522.53,206.27v-31.58c0-6.59-4.74-11.93-10.59-11.93h-5.67c-5.85,0-10.59,5.34-10.59,11.93v31.58h26.84Z"/>
      <g>
        <rect class="cls-43" x="425.93" y="145.41" width="48.14" height="51.48"/>
        <path class="cls-112" d="M473.57,145.91v50.48h-47.14v-50.48h47.14M474.57,144.91h-49.14v52.48h49.14v-52.48h0Z"/>
      </g>
      <path class="cls-53" d="M422.35,144v8.51c0,1.78,1.25,3.22,2.79,3.22h1.5c1.54,0,2.79-1.44,2.79-3.22v-8.51h-7.08Z"/>
      <path class="cls-55" d="M436.06,144v8.51c0,1.78,1.25,3.22,2.79,3.22h1.5c1.54,0,2.79-1.44,2.79-3.22v-8.51h-7.08Z"/>
      <path class="cls-54" d="M449.76,144v8.51c0,1.78,1.25,3.22,2.79,3.22h1.5c1.54,0,2.79-1.44,2.79-3.22v-8.51h-7.08Z"/>
      <path class="cls-52" d="M463.79,144v8.51c0,1.78,1.25,3.22,2.79,3.22h1.5c1.54,0,2.79-1.44,2.79-3.22v-8.51h-7.08Z"/>
      <path class="cls-112" d="M429.24,144v8.51c0,1.78,1.25,3.22,2.79,3.22h1.5c1.54,0,2.79-1.44,2.79-3.22v-8.51h-7.08Z"/>
      <path class="cls-112" d="M443.02,144v8.51c0,1.78,1.25,3.22,2.79,3.22h1.5c1.54,0,2.79-1.44,2.79-3.22v-8.51h-7.08Z"/>
      <path class="cls-112" d="M456.79,144v8.51c0,1.78,1.25,3.22,2.79,3.22h1.5c1.54,0,2.79-1.44,2.79-3.22v-8.51h-7.08Z"/>
      <path class="cls-112" d="M470.57,144v8.51c0,1.78,1.25,3.22,2.79,3.22h1.5c1.54,0,2.79-1.44,2.79-3.22v-8.51h-7.08Z"/>
      <path class="cls-38" d="M416.71,207.3c0,2.61,1.32,4.73,2.96,4.73h111.38c1.63,0,2.96-2.12,2.96-4.73v-1.53h-117.29v1.53Z"/>
      <rect class="cls-61" x="416.71" y="111.94" width="117.29" height="15.64"/>
      <rect class="cls-59" x="416.71" y="126.8" width="117.29" height="7.82"/>
      <g>
        <rect class="cls-3" x="455.53" y="188.22" width="2.13" height="15.98"/>
        <g>
          <ellipse class="cls-70" cx="456.59" cy="187.79" rx="9.59" ry=".8"/>
          <rect class="cls-70" x="447" y="186.19" width="19.18" height="1.6"/>
          <ellipse class="cls-67" cx="456.59" cy="186.19" rx="9.59" ry=".8"/>
        </g>
        <path class="cls-3" d="M448.8,206.2c2.89.95,6.06-.23,7.67-2.79.52-.82-.78-1.57-1.3-.76-1.27,2.01-3.73,2.84-5.98,2.1-.92-.3-1.31,1.14-.4,1.45h0Z"/>
        <path class="cls-3" d="M464.15,204.75c-2.24.74-4.71-.09-5.98-2.1-.51-.81-1.81-.06-1.3.76,1.61,2.56,4.78,3.74,7.67,2.79.38-.13.64-.52.52-.92-.1-.38-.54-.65-.92-.52h0Z"/>
      </g>
      <ellipse class="cls-84" cx="477.11" cy="196.89" rx="5.17" ry=".43"/>
      <g>
        <g>
          <path class="cls-3" d="M474.55,197.86c.97,2.87.14,6.16-2.09,8.23-.47.44.24,1.14.71.71,2.47-2.29,3.42-6.01,2.35-9.2-.2-.61-1.17-.35-.96.27h0Z"/>
          <path class="cls-3" d="M478.71,197.59c-1.08,3.19-.13,6.91,2.35,9.2.47.44,1.18-.27.71-.71-2.23-2.06-3.06-5.35-2.09-8.23.21-.61-.76-.87-.96-.27h0Z"/>
        </g>
        <rect class="cls-83" x="471.94" y="196.7" width="10.34" height=".86"/>
        <ellipse class="cls-57" cx="477.11" cy="196.7" rx="5.17" ry=".43"/>
        <rect class="cls-3" x="475.47" y="200.46" width="3.4" height=".85"/>
        <polygon class="cls-3" points="479.99 204.66 474.25 204.66 474.57 203.87 479.73 203.87 479.99 204.66"/>
      </g>
      <g>
        <g>
          <path class="cls-3" d="M435.13,197.86c.97,2.87.14,6.16-2.09,8.23-.47.44.24,1.14.71.71,2.47-2.29,3.42-6.01,2.35-9.2-.2-.61-1.17-.35-.96.27h0Z"/>
          <path class="cls-3" d="M439.29,197.59c-1.08,3.19-.13,6.91,2.35,9.2.47.44,1.18-.27.71-.71-2.23-2.06-3.06-5.35-2.09-8.23.21-.61-.76-.87-.96-.27h0Z"/>
        </g>
        <rect class="cls-82" x="432.52" y="196.7" width="10.34" height=".86"/>
        <ellipse class="cls-85" cx="437.69" cy="196.7" rx="5.17" ry=".43"/>
        <rect class="cls-3" x="436.05" y="200.46" width="3.4" height=".85"/>
        <polygon class="cls-3" points="440.57 204.66 434.83 204.66 435.15 203.87 440.31 203.87 440.57 204.66"/>
      </g>
    </g>
    <g>
      <path class="cls-112" d="M1105.19,272.73l8.46,76.74c.37,3.37,2.31,6.37,5.22,8.11,5.57,3.33,14.95,7.53,27.07,7.43,11.73-.1,20.79-4.18,26.24-7.45,2.89-1.73,4.81-4.7,5.2-8.04l8.87-76.72c.74-6.42-27.02,6.51-33.49,6.51l-16.9,3.33c-6.44,0-31.37-16.3-30.67-9.9Z"/>
      <g>
        <path class="cls-49" d="M1109.36,275.84l7.59,70.77c.33,3.11,2.07,5.87,4.68,7.48,5,3.07,13.41,6.94,24.28,6.85,10.52-.09,18.65-3.86,23.54-6.87,2.59-1.6,4.31-4.33,4.66-7.41l7.96-70.76c.67-5.92-3.84-11.11-9.63-11.11h-53.43c-4.96,0-8.98,3.81-9.61,8.63-.1.79-.12,1.6-.03,2.43Z"/>
        <ellipse class="cls-50" cx="1145.71" cy="272.75" rx="36.35" ry="15.59"/>
      </g>
      <g>
        <path class="cls-112" d="M1107.79,271.89l-.28.27c-.45.43-.71,1.04-.71,1.66v6.53c0,.92.55,1.76,1.4,2.12,4.32,1.84,18.5,6.94,40.7,5.83,1.22-.06,2.18-1.08,2.18-2.3v-4.26c0-1.29-1.06-2.33-2.35-2.3-7.22.13-30.26.23-38.96-7.28-.91-.78-1.11-1.1-1.98-.27Z"/>
        <path class="cls-112" d="M1183.64,271.89l.28.27c.45.43.71,1.04.71,1.66v6.53c0,.92-.55,1.76-1.4,2.12-4.32,1.84-18.5,6.94-40.7,5.83-1.22-.06-2.18-1.08-2.18-2.3v-4.26c0-1.29,1.06-2.33,2.35-2.3,7.22.13,29.12-.11,37.83-7.62.91-.78,2.25-.76,3.11.07Z"/>
      </g>
      <g>
        <g>
          <path class="cls-112" d="M1146.69,264.41c-.08.41-.37.74-.76.86-1.09.35-3,.75-5.25.23-1.93-.44-3.31-1.37-4.12-2.05-.31-.26-.46-.68-.38-1.08,3.01-15.54,6.01-31.08,9.02-46.62.12-.62.71-1.02,1.33-.9l8.29,1.6c.62.12,1.02.71.9,1.33l-9.02,46.62Z"/>
          <path class="cls-51" d="M1145.71,229.1c-22.43,0-40.61,17.93-40.61,40.04s81.21,22.11,81.21,0-18.18-40.04-40.61-40.04ZM1145.71,242.96c-5.52,0-10-2.01-10-4.48s4.48-4.48,10-4.48,10,2.01,10,4.48-4.48,4.48-10,4.48Z"/>
          <polygon class="cls-112" points="1142.59 229.22 1141.59 234.39 1152.35 235.12 1153.46 229.34 1142.65 228.9 1142.59 229.22"/>
        </g>
        <ellipse class="cls-113" cx="1150.51" cy="216.62" rx="2.38" ry="5.31" transform="translate(719.34 1305.06) rotate(-79.05)"/>
      </g>
    </g>
    <g>
      <rect class="cls-63" x="285.34" y="221.12" width="79.12" height="52.2"/>
      <path class="cls-79" d="M304.37,179c-10.42,0-18.86,8.45-18.86,18.86s8.45,18.86,18.86,18.86,18.86-8.45,18.86-18.86-8.45-18.86-18.86-18.86ZM304.37,208.03c-5.61,0-10.17-4.55-10.17-10.17s4.55-10.17,10.17-10.17,10.17,4.55,10.17,10.17-4.55,10.17-10.17,10.17Z"/>
      <path class="cls-80" d="M347.59,179c-10.42,0-18.86,8.45-18.86,18.86s8.45,18.86,18.86,18.86,18.86-8.45,18.86-18.86-8.45-18.86-18.86-18.86ZM347.59,208.03c-5.61,0-10.17-4.55-10.17-10.17s4.55-10.17,10.17-10.17,10.17,4.55,10.17,10.17-4.55,10.17-10.17,10.17Z"/>
      <path class="cls-64" d="M380.77,240.41h-8.97v13.62h8.97c2.37,4.38,6.94,7.4,12.23,7.55v-28.73c-5.29.16-9.87,3.17-12.23,7.55Z"/>
    </g>
    <g>
      <g>
        <g>
          <polygon class="cls-40" points="1079.1 838.99 1078.57 838.47 1078.57 838.03 1078.11 838.03 1055.94 816.26 1038.02 838.03 1037.83 838.03 1037.83 838.25 1037.3 838.9 1037.83 838.9 1037.83 895.4 1078.57 895.4 1078.57 838.99 1079.1 838.99"/>
          <g>
            <g>
              <path class="cls-69" d="M1055.79,818.93l1.96-2.06c-.66.69-1.31,1.38-1.96,2.06Z"/>
              <path class="cls-44" d="M1057.91,821.06c.57-.6,1.14-1.2,1.71-1.8.08-.09.16-.17.25-.26.29-.27.5-.59.62-.97.19-.36.27-.74.26-1.16.02-.41-.07-.8-.26-1.16-.12-.37-.33-.69-.62-.97l-.61-.47c-.47-.27-.97-.41-1.51-.41l-.8.11c-.51.14-.95.4-1.32.77-.65.69-1.3,1.37-1.96,2.06-.29.27-.5.59-.62.97-.19.36-.27.74-.26,1.16-.02.41.07.8.26,1.16.12.37.33.69.62.97l.61.47c.47.27.97.41,1.51.41l.8-.11c.51-.14.95-.4,1.32-.77.65-.69,1.3-1.38,1.96-2.06l-4.24-4.24c-.57.6-1.14,1.2-1.71,1.8-.08.09-.16.17-.25.26-.29.27-.5.59-.62.97-.19.36-.27.74-.26,1.16-.02.41.07.8.26,1.16.12.37.33.69.62.97l.61.47c.47.27.97.41,1.51.41l.8-.11c.51-.14.95-.4,1.32-.77Z"/>
            </g>
            <g>
              <path class="cls-69" d="M1055.79,818.93l-19.68,20.76c6.68-6.82,12.93-13.63,19.68-20.76Z"/>
              <path class="cls-44" d="M1053.66,816.81c-5.73,6.05-11.47,12.1-17.2,18.14-.83.87-1.66,1.75-2.48,2.62-1.11,1.18-1.17,3.08,0,4.24s3.11,1.16,4.24,0c6.67-6.82,13.13-13.83,19.68-20.76,1.11-1.18,1.17-3.07,0-4.24s-3.13-1.18-4.24,0c-6.55,6.93-13.01,13.95-19.68,20.76l4.24,4.24c5.73-6.05,11.47-12.1,17.2-18.14.83-.87,1.66-1.75,2.48-2.62,1.11-1.18,1.17-3.08,0-4.24s-3.12-1.18-4.24,0Z"/>
            </g>
            <g>
              <path class="cls-69" d="M1078.2,836.96l2.02,1.99c-.68-.67-1.35-1.33-2.02-1.99Z"/>
              <path class="cls-44" d="M1076.08,839.08c.59.58,1.18,1.16,1.77,1.74.08.08.17.16.25.25.27.29.59.5.97.62.36.19.74.27,1.16.26.41.02.8-.07,1.16-.26.37-.12.69-.33.97-.62l.47-.61c.27-.47.41-.97.41-1.51l-.11-.8c-.14-.51-.4-.95-.77-1.32-.67-.66-1.35-1.33-2.02-1.99-.27-.29-.59-.5-.97-.62-.36-.19-.74-.27-1.16-.26-.41-.02-.8.07-1.16.26-.37.12-.69.33-.97.62l-.47.61c-.27.47-.41.97-.41,1.51l.11.8c.14.51.4.95.77,1.32.68.66,1.35,1.33,2.02,1.99l4.24-4.24c-.59-.58-1.18-1.16-1.77-1.74-.08-.08-.17-.16-.25-.25-.27-.29-.59-.5-.97-.62-.36-.19-.74-.27-1.16-.26-.41-.02-.8.07-1.16.26-.37.12-.69.33-.97.62l-.47.61c-.27.47-.41.97-.41,1.51l.11.8c.14.51.4.95.77,1.32Z"/>
            </g>
            <g>
              <path class="cls-69" d="M1078.2,836.96l-20.39-20.04c6.7,6.8,13.38,13.17,20.39,20.04Z"/>
              <path class="cls-44" d="M1080.32,834.84c-5.95-5.85-11.91-11.7-17.86-17.55-.85-.83-1.69-1.66-2.54-2.49-2.76-2.71-6.96,1.49-4.24,4.24,6.69,6.79,13.59,13.37,20.39,20.04,1.16,1.13,3.09,1.15,4.24,0s1.16-3.1,0-4.24c-6.81-6.67-13.7-13.25-20.39-20.04l-4.24,4.24c5.95,5.85,11.91,11.7,17.86,17.55.85.83,1.69,1.66,2.54,2.49,1.16,1.14,3.09,1.15,4.24,0s1.16-3.1,0-4.24Z"/>
            </g>
          </g>
          <g class="cls-115">
            <rect class="cls-112" x="1044.94" y="847.56" width="7.1" height="7.1"/>
            <rect class="cls-112" x="1055.36" y="847.56" width="16.1" height="7.1"/>
          </g>
          <g class="cls-115">
            <rect class="cls-112" x="1044.94" y="859.76" width="7.1" height="7.1"/>
            <rect class="cls-112" x="1055.36" y="859.76" width="16.1" height="7.1"/>
          </g>
        </g>
        <g class="cls-115">
          <rect class="cls-112" x="1044.94" y="872.24" width="7.1" height="7.1"/>
          <rect class="cls-112" x="1055.36" y="872.24" width="16.1" height="7.1"/>
        </g>
      </g>
      <g>
        <g>
          <polygon class="cls-13" points="1179.37 838.99 1178.83 838.47 1178.83 838.03 1178.38 838.03 1156.2 816.26 1138.28 838.03 1138.1 838.03 1138.1 838.25 1137.57 838.9 1138.1 838.9 1138.1 895.4 1178.83 895.4 1178.83 838.99 1179.37 838.99"/>
          <g>
            <g>
              <path class="cls-69" d="M1156.05,818.93l1.96-2.06c-.66.69-1.31,1.38-1.96,2.06Z"/>
              <path class="cls-44" d="M1158.17,821.06c.57-.6,1.14-1.2,1.71-1.8.08-.09.16-.17.25-.26.29-.27.5-.59.62-.97.19-.36.27-.74.26-1.16.02-.41-.07-.8-.26-1.16-.12-.37-.33-.69-.62-.97l-.61-.47c-.47-.27-.97-.41-1.51-.41l-.8.11c-.51.14-.95.4-1.32.77-.65.69-1.3,1.37-1.96,2.06-.29.27-.5.59-.62.97-.19.36-.27.74-.26,1.16-.02.41.07.8.26,1.16.12.37.33.69.62.97l.61.47c.47.27.97.41,1.51.41l.8-.11c.51-.14.95-.4,1.32-.77.65-.69,1.3-1.38,1.96-2.06l-4.24-4.24c-.57.6-1.14,1.2-1.71,1.8-.08.09-.16.17-.25.26-.29.27-.5.59-.62.97-.19.36-.27.74-.26,1.16-.02.41.07.8.26,1.16.12.37.33.69.62.97l.61.47c.47.27.97.41,1.51.41l.8-.11c.51-.14.95-.4,1.32-.77Z"/>
            </g>
            <g>
              <path class="cls-69" d="M1156.05,818.93l-19.68,20.76c6.68-6.82,12.93-13.63,19.68-20.76Z"/>
              <path class="cls-44" d="M1153.93,816.81c-5.73,6.05-11.47,12.1-17.2,18.14-.83.87-1.66,1.75-2.48,2.62-1.11,1.18-1.17,3.08,0,4.24s3.11,1.16,4.24,0c6.67-6.82,13.13-13.83,19.68-20.76,1.11-1.18,1.17-3.07,0-4.24s-3.13-1.18-4.24,0c-6.55,6.93-13.01,13.95-19.68,20.76l4.24,4.24c5.73-6.05,11.47-12.1,17.2-18.14.83-.87,1.66-1.75,2.48-2.62,1.11-1.18,1.17-3.08,0-4.24s-3.12-1.18-4.24,0Z"/>
            </g>
            <g>
              <path class="cls-69" d="M1178.47,836.96l2.02,1.99c-.68-.67-1.35-1.33-2.02-1.99Z"/>
              <path class="cls-44" d="M1176.34,839.08c.59.58,1.18,1.16,1.77,1.74.08.08.17.16.25.25.27.29.59.5.97.62.36.19.74.27,1.16.26.41.02.8-.07,1.16-.26.37-.12.69-.33.97-.62l.47-.61c.27-.47.41-.97.41-1.51l-.11-.8c-.14-.51-.4-.95-.77-1.32-.67-.66-1.35-1.33-2.02-1.99-.27-.29-.59-.5-.97-.62-.36-.19-.74-.27-1.16-.26-.41-.02-.8.07-1.16.26-.37.12-.69.33-.97.62l-.47.61c-.27.47-.41.97-.41,1.51l.11.8c.14.51.4.95.77,1.32.68.66,1.35,1.33,2.02,1.99l4.24-4.24c-.59-.58-1.18-1.16-1.77-1.74-.08-.08-.17-.16-.25-.25-.27-.29-.59-.5-.97-.62-.36-.19-.74-.27-1.16-.26-.41-.02-.8.07-1.16.26-.37.12-.69.33-.97.62l-.47.61c-.27.47-.41.97-.41,1.51l.11.8c.14.51.4.95.77,1.32Z"/>
            </g>
            <g>
              <path class="cls-69" d="M1178.47,836.96l-20.39-20.04c6.7,6.8,13.38,13.17,20.39,20.04Z"/>
              <path class="cls-44" d="M1180.59,834.84c-5.95-5.85-11.91-11.7-17.86-17.55-.85-.83-1.69-1.66-2.54-2.49-2.76-2.71-6.96,1.49-4.24,4.24,6.69,6.79,13.59,13.37,20.39,20.04,1.16,1.13,3.09,1.15,4.24,0s1.16-3.1,0-4.24c-6.81-6.67-13.7-13.25-20.39-20.04l-4.24,4.24c5.95,5.85,11.91,11.7,17.86,17.55.85.83,1.69,1.66,2.54,2.49,1.16,1.14,3.09,1.15,4.24,0s1.16-3.1,0-4.24Z"/>
            </g>
          </g>
          <g class="cls-115">
            <rect class="cls-112" x="1145.2" y="847.56" width="7.1" height="7.1"/>
            <rect class="cls-112" x="1155.62" y="847.56" width="16.1" height="7.1"/>
          </g>
          <g class="cls-115">
            <rect class="cls-112" x="1145.2" y="859.76" width="7.1" height="7.1"/>
            <rect class="cls-112" x="1155.62" y="859.76" width="16.1" height="7.1"/>
          </g>
        </g>
        <g class="cls-115">
          <rect class="cls-112" x="1145.2" y="872.24" width="7.1" height="7.1"/>
          <rect class="cls-112" x="1155.62" y="872.24" width="16.1" height="7.1"/>
        </g>
      </g>
      <polygon class="cls-14" points="1140.89 816.22 1140.07 815.42 1140.07 814.73 1139.37 814.73 1105.22 781.21 1077.63 814.73 1077.34 814.73 1077.34 815.08 1076.52 816.07 1077.34 816.08 1077.34 903.09 1140.07 903.09 1140.07 816.22 1140.89 816.22"/>
      <g>
        <g>
          <path class="cls-69" d="M1105.66,783.23l2.96-3.07c-1,1.03-1.98,2.05-2.96,3.07Z"/>
          <path class="cls-44" d="M1108.84,786.42c.86-.9,1.73-1.79,2.59-2.69.12-.13.24-.25.37-.38.44-.41.75-.89.93-1.45.28-.54.41-1.11.39-1.73.02-.62-.11-1.2-.39-1.73-.18-.56-.49-1.04-.93-1.45l-.91-.7c-.7-.41-1.46-.61-2.27-.61l-1.2.16c-.76.21-1.42.6-1.99,1.16-.99,1.02-1.98,2.04-2.96,3.07-.44.41-.75.89-.93,1.45-.28.54-.41,1.11-.39,1.73-.02.62.11,1.2.39,1.73.18.56.49,1.04.93,1.45l.91.7c.7.41,1.46.61,2.27.61l1.2-.16c.76-.21,1.42-.6,1.99-1.16.99-1.02,1.97-2.05,2.96-3.07l-6.36-6.36c-.86.9-1.73,1.79-2.59,2.69-.12.13-.24.25-.37.38-.44.41-.75.89-.93,1.45-.28.54-.41,1.11-.39,1.73-.02.62.11,1.2.39,1.73.18.56.49,1.04.93,1.45l.91.7c.7.41,1.46.61,2.27.61l1.2-.16c.76-.21,1.42-.6,1.99-1.16Z"/>
        </g>
        <g>
          <path class="cls-69" d="M1105.66,783.23l-29.81,30.88c10.12-10.15,19.59-20.27,29.81-30.88Z"/>
          <path class="cls-44" d="M1102.48,780.05c-3.35,3.47-6.7,6.94-10.05,10.41-5.35,5.54-10.69,11.08-16.04,16.62-1.24,1.29-2.48,2.57-3.72,3.86-1.64,1.7-1.81,4.7,0,6.36s4.59,1.78,6.36,0c10.1-10.14,19.89-20.57,29.81-30.88,1.63-1.7,1.81-4.7,0-6.36s-4.62-1.81-6.36,0c-9.92,10.31-19.71,20.75-29.81,30.88,2.12,2.12,4.24,4.24,6.36,6.36,3.35-3.47,6.7-6.94,10.05-10.41,5.35-5.54,10.69-11.08,16.04-16.62,1.24-1.29,2.48-2.57,3.72-3.86,1.64-1.7,1.81-4.7,0-6.36s-4.62-1.81-6.36,0Z"/>
        </g>
        <g>
          <path class="cls-69" d="M1139.6,810.04l3.07,2.96c-1.03-1-2.05-1.98-3.07-2.96Z"/>
          <path class="cls-44" d="M1136.42,813.23c.9.86,1.79,1.73,2.69,2.59.13.12.25.24.38.37.41.44.89.75,1.45.93.54.28,1.11.41,1.73.39.62.02,1.2-.11,1.73-.39.56-.18,1.04-.49,1.45-.93l.7-.91c.41-.7.61-1.46.61-2.27l-.16-1.2c-.21-.76-.6-1.42-1.16-1.99-1.02-.99-2.04-1.97-3.07-2.96-.41-.44-.89-.75-1.45-.93-.54-.28-1.11-.41-1.73-.39-.62-.02-1.2.11-1.73.39-.56.18-1.04.49-1.45.93l-.7.91c-.41.7-.61,1.46-.61,2.27l.16,1.2c.21.76.6,1.42,1.16,1.99,1.02.99,2.05,1.97,3.07,2.96l6.36-6.36c-.9-.86-1.79-1.73-2.69-2.59-.13-.12-.25-.24-.38-.37-.41-.44-.89-.75-1.45-.93-.54-.28-1.11-.41-1.73-.39-.62-.02-1.2.11-1.73.39-.56.18-1.04.49-1.45.93l-.7.91c-.41.7-.61,1.46-.61,2.27l.16,1.2c.21.76.6,1.42,1.16,1.99Z"/>
        </g>
        <g>
          <path class="cls-69" d="M1139.6,810.04l-30.89-29.81c10.15,10.12,20.27,19.59,30.89,29.81Z"/>
          <path class="cls-44" d="M1142.79,806.86c-3.47-3.35-6.94-6.7-10.41-10.05-5.54-5.35-11.08-10.69-16.62-16.04-1.29-1.24-2.57-2.48-3.86-3.72-1.7-1.64-4.7-1.81-6.36,0s-1.78,4.59,0,6.36c10.14,10.1,20.58,19.89,30.89,29.81,1.7,1.63,4.7,1.81,6.36,0s1.81-4.62,0-6.36c-10.31-9.92-20.75-19.71-30.89-29.81-2.12,2.12-4.24,4.24-6.36,6.36,3.47,3.35,6.94,6.7,10.41,10.05,5.54,5.35,11.08,10.69,16.62,16.04,1.29,1.24,2.57,2.48,3.86,3.72,1.7,1.64,4.7,1.81,6.36,0s1.81-4.62,0-6.36Z"/>
        </g>
      </g>
      <g class="cls-115">
        <rect class="cls-112" x="1088.34" y="822.62" width="13.76" height="9.18"/>
        <rect class="cls-112" x="1115.31" y="822.62" width="13.76" height="9.18"/>
      </g>
      <g class="cls-115">
        <rect class="cls-112" x="1088.34" y="840.5" width="13.76" height="9.18"/>
        <rect class="cls-112" x="1115.31" y="840.5" width="13.76" height="9.18"/>
      </g>
      <path class="cls-112" d="M1117.49,893.84v-21.13c0-4.41-3.17-7.98-7.08-7.98h-3.79c-3.91,0-7.08,3.57-7.08,7.98v21.13h17.96Z"/>
      <g>
        <circle class="cls-112" cx="1109.3" cy="808.18" r="8.02"/>
        <g>
          <path class="cls-66" d="M1110.26,810.62v-4.56c0-.95-.42-1.72-.93-1.72h-.5c-.51,0-.93.77-.93,1.72v4.56h2.36Z"/>
          <path class="cls-66" d="M1107.89,810.62h4.56c.95,0,1.72-.42,1.72-.93v-.5c0-.51-.77-.93-1.72-.93h-4.56v2.36Z"/>
        </g>
      </g>
    </g>
    <g>
      <path class="cls-41" d="M1438.39,508.71c-.82,18.88-15.86,38.97-28.38,38.25-14.14-.81-18.53-27.77-30.85-27.15-12.63.63-14.62,29.28-27.76,30.85-12.09,1.45-29.29-20.55-29.62-41.96-.42-27.21,26.37-56.14,58.31-56.15,32.18-.01,59.47,29.34,58.31,56.15Z"/>
      <circle class="cls-112" cx="1339.67" cy="503.16" r="9.87"/>
      <circle class="cls-68" cx="1357.57" cy="480.33" r="9.87"/>
      <circle class="cls-1" cx="1387.18" cy="472.31" r="9.87"/>
      <circle class="cls-2" cx="1416.18" cy="488.35" r="9.87"/>
      <rect class="cls-39" x="1415.33" y="545.8" width="75.74" height="11.5" rx="4.58" ry="4.58" transform="translate(815.63 -866.03) rotate(45)"/>
      <path class="cls-71" d="M1404.87,508.52c1.47,6.81,8.68,34.45,26.12,20.59,2.59-2.06,4.11-5.24,4-8.55-.17-5.33-3.12-12.19-18.15-9.35-1.78.34-3.63.1-5.25-.7l-5.69-2.8c-.55-.27-1.17.21-1.04.81Z"/>
    </g>
    <g>
      <path class="cls-32" d="M1087.39,577.71c-.82,18.88-15.86,38.97-28.38,38.25-14.14-.81-18.53-27.77-30.85-27.15-12.63.63-14.62,29.28-27.76,30.85-12.09,1.45-29.29-20.55-29.62-41.96-.42-27.21,26.37-56.14,58.31-56.15,32.18-.01,59.47,29.34,58.31,56.15Z"/>
      <circle class="cls-112" cx="988.67" cy="572.16" r="9.87"/>
      <circle class="cls-68" cx="1006.57" cy="549.33" r="9.87"/>
      <circle class="cls-114" cx="1036.18" cy="541.31" r="9.87"/>
      <circle class="cls-2" cx="1065.18" cy="557.35" r="9.87"/>
      <rect class="cls-36" x="1064.33" y="614.8" width="75.74" height="11.5" rx="4.58" ry="4.58" transform="translate(761.62 -597.62) rotate(45)"/>
      <path class="cls-71" d="M1053.87,577.52c1.47,6.81,8.68,34.45,26.12,20.59,2.59-2.06,4.11-5.24,4-8.55-.17-5.33-3.12-12.19-18.15-9.35-1.78.34-3.63.1-5.25-.7l-5.69-2.8c-.55-.27-1.17.21-1.04.81Z"/>
    </g>
    <g>
      <path class="cls-10" d="M209.92,880.43l-4.02-.03c.11-.24.18-.5.18-.77l.66-93.52c0-1.11-1.02-2.02-2.29-2.03l-65.96-.46c-1.27,0-2.31.89-2.32,2l-.66,93.52c0,.27.06.53.17.77l-4.02-.03c-1.27,0-2.31.89-2.32,2l-.03,4.57c0,1.11,1.02,2.02,2.29,2.03l78.25.55c1.27,0,2.31-.89,2.32-2l.03-4.57c0-1.11-1.02-2.02-2.29-2.03Z"/>
      <path class="cls-9" d="M202.83,810.81c0,1.31.95,2.43,2.24,2.62,13.68,2.02,23.43,3.45,23.32,18.32s-9.6,17.38-23.3,19.2c-1.31.17-2.29,1.27-2.3,2.59h0c-.01,1.6,1.39,2.84,2.97,2.63,16.14-2.17,27.53-6.87,27.66-24.39.12-17.52-11.48-21.17-27.59-23.57-1.58-.23-3,.99-3.01,2.59h0Z"/>
      <rect class="cls-48" x="142.69" y="787" width="56.99" height="89.88" rx="12" ry="12" transform="translate(5.86 -1.18) rotate(.4)"/>
      <g>
        <ellipse class="cls-112" cx="184.97" cy="765.45" rx="10.19" ry="9.84" transform="translate(-581.76 945.02) rotate(-89.6)"/>
        <ellipse class="cls-112" cx="172.13" cy="768.33" rx="10.19" ry="9.84" transform="translate(-597.39 935.05) rotate(-89.6)"/>
        <ellipse class="cls-112" cx="158.6" cy="771.67" rx="10.19" ry="9.84" transform="translate(-614.17 924.84) rotate(-89.6)"/>
        <ellipse class="cls-112" cx="195.44" cy="773.76" rx="10.19" ry="9.84" transform="translate(-579.68 963.75) rotate(-89.6)"/>
        <ellipse class="cls-112" cx="201.68" cy="781.39" rx="7.7" ry="7.44" transform="translate(-581.11 977.57) rotate(-89.6)"/>
        <ellipse class="cls-112" cx="138.36" cy="801.74" rx="30.1" ry="5.61" transform="translate(-664.34 934.46) rotate(-89.6)"/>
        <ellipse class="cls-112" cx="172.26" cy="782.75" rx="18.88" ry="4.58" transform="translate(-611.69 949.5) rotate(-89.6)"/>
        <ellipse class="cls-112" cx="189.56" cy="795.46" rx="22.78" ry="4.58" transform="translate(-607.21 979.43) rotate(-89.6)"/>
        <path class="cls-112" d="M140.16,773.03s3.58-4.78,10.66-2.67l31.7-3.63,16.19,17.28s-3.17,6.57-7.51,5.63c0,0-11.49,6.1-16.24-1.26,0,0-24.62,9.88-29.93,4.24-5.31-5.64-5.52-9.53-5.52-9.53l.64-10.07Z"/>
      </g>
    </g>
    <g>
      <path class="cls-8" d="M573.92,912.43l-4.02-.03c.11-.24.18-.5.18-.77l.66-93.52c0-1.11-1.02-2.02-2.29-2.03l-65.96-.46c-1.27,0-2.31.89-2.32,2l-.66,93.52c0,.27.06.53.17.77l-4.02-.03c-1.27,0-2.31.89-2.32,2l-.03,4.57c0,1.11,1.02,2.02,2.29,2.03l78.25.55c1.27,0,2.31-.89,2.32-2l.03-4.57c0-1.11-1.02-2.02-2.29-2.03Z"/>
      <path class="cls-12" d="M566.83,842.81c0,1.31.95,2.43,2.24,2.62,13.68,2.02,23.43,3.45,23.32,18.32s-9.6,17.38-23.3,19.2c-1.31.17-2.29,1.27-2.3,2.59h0c-.01,1.6,1.39,2.84,2.97,2.63,16.14-2.17,27.53-6.87,27.66-24.39.12-17.52-11.48-21.17-27.59-23.57-1.58-.23-3,.99-3.01,2.59h0Z"/>
      <rect class="cls-88" x="506.69" y="819" width="56.99" height="89.88" rx="12" ry="12" transform="translate(6.09 -3.74) rotate(.4)"/>
      <g>
        <ellipse class="cls-112" cx="548.97" cy="797.45" rx="10.19" ry="9.84" transform="translate(-252.32 1340.79) rotate(-89.6)"/>
        <ellipse class="cls-112" cx="536.13" cy="800.33" rx="10.19" ry="9.84" transform="translate(-267.95 1330.82) rotate(-89.6)"/>
        <ellipse class="cls-112" cx="522.6" cy="803.67" rx="10.19" ry="9.84" transform="translate(-284.73 1320.6) rotate(-89.6)"/>
        <ellipse class="cls-112" cx="559.44" cy="805.76" rx="10.19" ry="9.84" transform="translate(-250.24 1359.52) rotate(-89.6)"/>
        <ellipse class="cls-112" cx="565.68" cy="813.39" rx="7.7" ry="7.44" transform="translate(-251.67 1373.33) rotate(-89.6)"/>
        <ellipse class="cls-112" cx="502.36" cy="833.74" rx="30.1" ry="5.61" transform="translate(-334.9 1330.22) rotate(-89.6)"/>
        <ellipse class="cls-112" cx="536.26" cy="814.75" rx="18.88" ry="4.58" transform="translate(-282.25 1345.26) rotate(-89.6)"/>
        <ellipse class="cls-112" cx="553.56" cy="827.46" rx="22.78" ry="4.58" transform="translate(-277.77 1375.19) rotate(-89.6)"/>
        <path class="cls-112" d="M504.16,805.03s3.58-4.78,10.66-2.67l31.7-3.63,16.19,17.28s-3.17,6.57-7.51,5.63c0,0-11.49,6.1-16.24-1.26,0,0-24.62,9.88-29.93,4.24-5.31-5.64-5.52-9.53-5.52-9.53l.64-10.07Z"/>
      </g>
    </g>
    <g>
      <rect class="cls-71" x="589.71" y="52.82" width="118.29" height="71.76"/>
      <path class="cls-42" d="M696.43,125.08v-31.85c0-6.65-4.78-12.03-10.68-12.03h-5.72c-5.9,0-10.68,5.39-10.68,12.03v31.85h27.07Z"/>
      <g>
        <rect class="cls-7" x="599.01" y="63.7" width="48.54" height="51.91"/>
        <path class="cls-112" d="M647.06,64.2v50.91h-47.54v-50.91h47.54M648.06,63.2h-49.54v52.91h49.54v-52.91h0Z"/>
      </g>
      <path class="cls-16" d="M595.4,62.28v8.59c0,1.79,1.26,3.24,2.82,3.24h1.51c1.56,0,2.82-1.45,2.82-3.24v-8.59h-7.14Z"/>
      <path class="cls-17" d="M609.4,62.28v8.59c0,1.79,1.26,3.24,2.82,3.24h1.51c1.56,0,2.82-1.45,2.82-3.24v-8.59h-7.14Z"/>
      <path class="cls-18" d="M623.4,62.28v8.59c0,1.79,1.26,3.24,2.82,3.24h1.51c1.56,0,2.82-1.45,2.82-3.24v-8.59h-7.14Z"/>
      <path class="cls-20" d="M637,62.28v8.59c0,1.79,1.33,3.24,2.97,3.24h1.59c1.64,0,2.97-1.45,2.97-3.24v-8.59h-7.54Z"/>
      <path class="cls-112" d="M602.35,62.28v8.59c0,1.79,1.26,3.24,2.82,3.24h1.51c1.56,0,2.82-1.45,2.82-3.24v-8.59h-7.14Z"/>
      <path class="cls-112" d="M616.24,62.28v8.59c0,1.79,1.26,3.24,2.82,3.24h1.51c1.56,0,2.82-1.45,2.82-3.24v-8.59h-7.14Z"/>
      <path class="cls-112" d="M630.13,62.28v8.59c0,1.79,1.26,3.24,2.82,3.24h1.51c1.56,0,2.82-1.45,2.82-3.24v-8.59h-7.14Z"/>
      <path class="cls-112" d="M644.03,62.28v8.59c0,1.79,1.26,3.24,2.82,3.24h1.51c1.56,0,2.82-1.45,2.82-3.24v-8.59h-7.14Z"/>
      <rect class="cls-21" x="589.71" y="29.95" width="118.29" height="15.77"/>
      <rect class="cls-22" x="589.71" y="44.93" width="118.29" height="7.89"/>
      <g>
        <rect class="cls-3" x="632.26" y="106.96" width="2.15" height="16.15"/>
        <g>
          <ellipse class="cls-70" cx="633.34" cy="106.52" rx="9.69" ry=".81"/>
          <rect class="cls-70" x="623.65" y="104.91" width="19.38" height="1.61"/>
          <ellipse class="cls-67" cx="633.34" cy="104.91" rx="9.69" ry=".81"/>
        </g>
        <path class="cls-3" d="M625.47,125.12c2.91.96,6.11-.24,7.74-2.82.52-.82-.78-1.57-1.3-.76-1.28,2.03-3.78,2.88-6.05,2.13-.92-.3-1.31,1.14-.4,1.45h0Z"/>
        <path class="cls-3" d="M640.97,123.67c-2.27.75-4.76-.09-6.05-2.13-.51-.81-1.81-.06-1.3.76,1.63,2.58,4.83,3.78,7.74,2.82.91-.3.52-1.75-.4-1.45h0Z"/>
      </g>
      <g>
        <g>
          <path class="cls-3" d="M610.34,116.01c.98,2.91.14,6.23-2.11,8.32-.47.44.24,1.14.71.71,2.5-2.31,3.46-6.06,2.37-9.29-.2-.61-1.17-.35-.96.27h0Z"/>
          <path class="cls-3" d="M614.55,115.74c-1.09,3.22-.13,6.98,2.37,9.29.47.44,1.18-.27.71-.71-2.25-2.08-3.09-5.41-2.11-8.32.21-.61-.76-.87-.96-.27h0Z"/>
        </g>
        <path class="cls-23" d="M607.7,114.84v.87c0,.24,2.34.44,5.22.44s5.22-.19,5.22-.44v-.87h-10.44Z"/>
        <ellipse class="cls-72" cx="612.93" cy="114.84" rx="5.22" ry=".44"/>
        <rect class="cls-3" x="611.27" y="118.64" width="3.44" height=".86"/>
        <polygon class="cls-3" points="615.83 122.88 610.04 122.88 610.36 122.08 615.57 122.08 615.83 122.88"/>
      </g>
      <g>
        <g>
          <path class="cls-3" d="M651.34,116.01c.98,2.91.14,6.23-2.11,8.32-.47.44.24,1.14.71.71,2.5-2.31,3.46-6.06,2.37-9.29-.2-.61-1.17-.35-.96.27h0Z"/>
          <path class="cls-3" d="M655.55,115.74c-1.09,3.22-.13,6.98,2.37,9.29.47.44,1.18-.27.71-.71-2.25-2.08-3.09-5.41-2.11-8.32.21-.61-.76-.87-.96-.27h0Z"/>
        </g>
        <path class="cls-19" d="M648.7,114.84v.87c0,.24,2.34.44,5.22.44s5.22-.19,5.22-.44v-.87h-10.44Z"/>
        <ellipse class="cls-72" cx="653.93" cy="114.84" rx="5.22" ry=".44"/>
        <rect class="cls-3" x="652.27" y="118.64" width="3.44" height=".86"/>
        <polygon class="cls-3" points="656.83 122.88 651.04 122.88 651.36 122.08 656.57 122.08 656.83 122.88"/>
      </g>
      <path class="cls-72" d="M589.71,126.12c0,2.63,1.33,4.77,2.98,4.77h112.33c1.65,0,2.98-2.14,2.98-4.77v-1.54h-118.29v1.54Z"/>
    </g>
    <g>
      <rect class="cls-37" x="109.65" y="498.61" width="72.56" height="80.39"/>
      <rect class="cls-74" x="106.64" y="494.45" width="78.59" height="6.36"/>
      <g>
        <rect class="cls-95" x="115.64" y="520.36" width="10.67" height="13.44"/>
        <rect class="cls-95" x="132.28" y="520.44" width="10.67" height="13.44"/>
        <rect class="cls-95" x="148.91" y="520.36" width="10.67" height="13.44"/>
        <rect class="cls-95" x="165.53" y="520.36" width="10.67" height="13.44"/>
        <rect class="cls-95" x="115.64" y="543.93" width="10.67" height="13.44"/>
        <rect class="cls-95" x="148.92" y="544.01" width="10.67" height="13.44"/>
        <rect class="cls-95" x="165.55" y="543.93" width="10.67" height="13.44"/>
        <rect class="cls-95" x="132.28" y="544.01" width="10.67" height="13.44"/>
      </g>
      <rect class="cls-30" x="37.49" y="461.61" width="72.56" height="117.28"/>
      <rect class="cls-78" x="34.47" y="457.45" width="78.59" height="6.36"/>
      <rect class="cls-95" x="42.97" y="495.36" width="10.67" height="13.44"/>
      <rect class="cls-95" x="59.61" y="495.44" width="10.67" height="13.44"/>
      <rect class="cls-95" x="76.23" y="495.36" width="10.67" height="13.44"/>
      <rect class="cls-95" x="92.85" y="495.36" width="10.67" height="13.44"/>
      <rect class="cls-95" x="42.97" y="518.93" width="10.67" height="13.44"/>
      <rect class="cls-95" x="76.24" y="519.01" width="10.67" height="13.44"/>
      <rect class="cls-95" x="92.88" y="518.93" width="10.67" height="13.44"/>
      <path class="cls-94" d="M83,579.03v-21.99c0-4.59-3.34-8.31-7.46-8.31h-4c-4.12,0-7.46,3.72-7.46,8.31v21.99h18.92Z"/>
      <rect class="cls-95" x="59.61" y="519.01" width="10.67" height="13.44"/>
      <path class="cls-31" d="M81.02,477.09h-5.46v-5.46c0-.76-.62-1.38-1.38-1.38h-.8c-.76,0-1.38.62-1.38,1.38v5.46h-5.46c-.76,0-1.38.62-1.38,1.38v.81c0,.76.62,1.38,1.38,1.38h5.46v5.46c0,.76.62,1.38,1.38,1.38h.8c.76,0,1.38-.62,1.38-1.38v-5.46h5.46c.76,0,1.38-.62,1.38-1.38v-.81c0-.76-.62-1.38-1.38-1.38Z"/>
    </g>
    <g>
      <g>
        <circle class="cls-27" cx="621.12" cy="618.15" r="11.62"/>
        <path class="cls-25" d="M657.24,610.78c-1.92-1.42-4.64-.99-6.24.78l-19.54,21.82c-1.49,1.66-3.61,2.61-5.85,2.61h-8.47c-2.56,0-5.01-1.09-6.72-3l-19.19-21.43c-1.59-1.78-4.31-2.2-6.24-.78-2.2,1.63-2.49,4.75-.7,6.74l21.59,24.1v29.5c-.01.12-.04.23-.04.35v34.66c0,2.21,1.79,4,4,4h5.21c2.21,0,4-1.79,4-4v-26.47h4.06v26.47c0,2.21,1.79,4,4,4h5.21c2.21,0,4-1.79,4-4v-26.47h.04v-38.04l21.59-24.1c1.78-1.99,1.5-5.11-.7-6.74Z"/>
      </g>
      <g>
        <path class="cls-87" d="M658.03,632.77h-1.92c-2.18,0-4.01-1.66-4.23-3.83l-2.96-30.05c-.25-2.5,1.72-4.66,4.23-4.66h8.27c2.53,0,4.5,2.2,4.22,4.72l-3.39,30.05c-.24,2.15-2.06,3.77-4.22,3.77Z"/>
        <g>
          <path class="cls-112" d="M665.71,598.39c.67-1.27,1.04-2.71,1.04-4.23,0-5.11-4.24-9.26-9.46-9.26s-9.46,4.14-9.46,9.26c0,1.52.38,2.96,1.04,4.23h16.84Z"/>
          <g>
            <path class="cls-89" d="M647.87,593.24c-.03.3-.05.61-.05.92,0,1.52.38,2.96,1.04,4.23h16.84c.67-1.27,1.04-2.71,1.04-4.23,0-.31-.02-.62-.05-.92h-18.84Z"/>
            <path class="cls-92" d="M666.3,591.33c-1.22-3.73-4.8-6.42-9.01-6.42s-7.79,2.7-9.01,6.42h18.03Z"/>
          </g>
        </g>
        <rect class="cls-112" x="648.61" y="598.39" width="17.36" height="1.91"/>
      </g>
    </g>
    <g>
      <g>
        <circle class="cls-28" cx="729.36" cy="618.15" r="11.62"/>
        <path class="cls-26" d="M765.49,610.78c-1.92-1.42-4.64-.99-6.24.78l-19.54,21.82c-1.49,1.66-3.61,2.61-5.85,2.61h-8.47c-2.56,0-5.01-1.09-6.72-3l-19.19-21.43c-1.59-1.78-4.31-2.2-6.24-.78-2.2,1.63-2.49,4.75-.7,6.74l21.59,24.1v29.5c-.01.12-.04.23-.04.35v34.66c0,2.21,1.79,4,4,4h5.21c2.21,0,4-1.79,4-4v-26.47h4.06v26.47c0,2.21,1.79,4,4,4h5.21c2.21,0,4-1.79,4-4v-26.47h.04v-38.04l21.59-24.1c1.78-1.99,1.5-5.11-.7-6.74Z"/>
      </g>
      <g>
        <path class="cls-90" d="M766.28,632.77h-1.92c-2.18,0-4.01-1.66-4.23-3.83l-2.96-30.05c-.25-2.5,1.72-4.66,4.23-4.66h8.27c2.53,0,4.5,2.2,4.22,4.72l-3.39,30.05c-.24,2.15-2.06,3.77-4.22,3.77Z"/>
        <g>
          <path class="cls-112" d="M773.96,598.39c.67-1.27,1.04-2.71,1.04-4.23,0-5.11-4.24-9.26-9.46-9.26s-9.46,4.14-9.46,9.26c0,1.52.38,2.96,1.04,4.23h16.84Z"/>
          <g>
            <path class="cls-91" d="M756.12,593.24c-.03.3-.05.61-.05.92,0,1.52.38,2.96,1.04,4.23h16.84c.67-1.27,1.04-2.71,1.04-4.23,0-.31-.02-.62-.05-.92h-18.84Z"/>
            <path class="cls-86" d="M774.55,591.33c-1.22-3.73-4.8-6.42-9.01-6.42s-7.79,2.7-9.01,6.42h18.03Z"/>
          </g>
        </g>
        <rect class="cls-112" x="756.85" y="598.39" width="17.36" height="1.91"/>
      </g>
    </g>
    <g>
      <path class="cls-73" d="M293.47,765.48c-.86,9.96.23,20.74,4.03,30.05,1.65,4.04,4.71,8.42,9.66,8s7.95-4.8,9.18-9.06c1.44-5.01.93-10.29,1.34-15.42.3-3.78,1.33-8.14,4.6-10.09.75-.45,1.24-.67,2.18-.78-.33.04.76.03.88.05-.45-.06.77.24.47.12,1.57.6,2.62,2.27,3.17,3.85.78,2.24.84,4.62.87,6.97.04,2.78.06,5.57.09,8.36.13,12.2.26,24.4.38,36.59.04,3.86,6.04,3.87,6,0-.11-10.88-.23-21.76-.34-32.64-.06-5.32.22-10.77-.31-16.06-.47-4.72-2.23-10.03-6.84-12.25-4.3-2.07-9.25-.47-12.42,2.88-3.4,3.6-4.43,8.64-4.76,13.43s.37,9.95-1.44,14.44c-.54,1.35-1.57,2.81-2.74,3.43-.3.16-.3.12-.79.25.14-.04-.1,0-.36-.06-.6-.12-1.09-.53-1.65-1.2-1.16-1.39-1.87-3.59-2.47-5.5-.86-2.72-1.54-5.5-2.05-8.32-1-5.61-1.17-11.36-.68-17.03.14-1.62-1.48-3-3-3-1.74,0-2.86,1.38-3,3h0Z"/>
      <g>
        <path class="cls-93" d="M297.68,767.89h-5.59c-6.37,0-11.7-4.83-12.32-11.17l-8.62-87.62c-.72-7.28,5-13.59,12.32-13.59h24.1c7.39,0,13.13,6.43,12.3,13.77l-9.89,87.62c-.71,6.26-6,10.99-12.3,10.99Z"/>
        <g>
          <path class="cls-112" d="M320.07,667.66c1.94-3.7,3.04-7.89,3.04-12.33,0-14.9-12.35-26.99-27.59-26.99s-27.59,12.08-27.59,26.99c0,4.44,1.1,8.63,3.04,12.33h49.11Z"/>
          <g>
            <path class="cls-4" d="M268.06,652.65c-.09.88-.14,1.78-.14,2.68,0,4.44,1.1,8.63,3.04,12.33h49.11c1.94-3.7,3.04-7.89,3.04-12.33,0-.91-.05-1.8-.14-2.68h-54.92Z"/>
            <path class="cls-5" d="M321.8,647.07c-3.57-10.86-13.98-18.73-26.28-18.73s-22.71,7.86-26.28,18.73h52.55Z"/>
          </g>
        </g>
        <rect class="cls-112" x="270.21" y="667.66" width="50.61" height="5.58"/>
      </g>
    </g>
    <g>
      <g>
        <circle class="cls-102" cx="1246" cy="656.47" r="43.76"/>
        <circle class="cls-35" cx="1246" cy="656.47" r="22.72"/>
      </g>
      <path class="cls-112" d="M1221.8,612.82c0-12.28-7.48-22.24-16.71-22.24s-16.71,9.96-16.71,22.24c0,10.63,5.6,19.51,13.08,21.72l-1.34,74.14c0,1.24.96,2.26,2.14,2.26h8.37c1.18,0,2.14-1.02,2.14-2.26l-2.53-74.69c6.71-2.89,11.57-11.27,11.57-21.17Z"/>
      <path class="cls-112" d="M1294.61,595.91h-.37c-1.58,0-2.87,1.29-2.87,2.87v15.78c0,.87-.71,1.58-1.58,1.58s-1.58-.71-1.58-1.58v-15.78c0-1.58-1.29-2.87-2.87-2.87h-.37c-1.58,0-2.87,1.29-2.87,2.87v15.78c0,.87-.71,1.58-1.58,1.58s-1.58-.71-1.58-1.58v-15.78c0-1.58-1.29-2.87-2.87-2.87h-.37c-1.58,0-2.87,1.29-2.87,2.87v27.64c0,1.58,1.29,2.87,2.87,2.87h4.31l-1.43,79.31c0,1.29,1,2.35,2.22,2.35h8.7c1.22,0,2.22-1.06,2.22-2.35l-2.69-79.31h5.57c1.58,0,2.87-1.29,2.87-2.87v-27.64c0-1.58-1.29-2.87-2.87-2.87Z"/>
    </g>
    <g>
      <g>
        <circle class="cls-104" cx="730" cy="430.47" r="43.76"/>
        <circle class="cls-15" cx="730" cy="430.47" r="22.72"/>
      </g>
      <path class="cls-112" d="M705.8,386.82c0-12.28-7.48-22.24-16.71-22.24s-16.71,9.96-16.71,22.24c0,10.63,5.6,19.51,13.08,21.72l-1.34,74.14c0,1.24.96,2.26,2.14,2.26h8.37c1.18,0,2.14-1.02,2.14-2.26l-2.53-74.69c6.71-2.89,11.57-11.27,11.57-21.17Z"/>
      <path class="cls-112" d="M778.61,369.91h-.37c-1.58,0-2.87,1.29-2.87,2.87v15.78c0,.87-.71,1.58-1.58,1.58s-1.58-.71-1.58-1.58v-15.78c0-1.58-1.29-2.87-2.87-2.87h-.37c-1.58,0-2.87,1.29-2.87,2.87v15.78c0,.87-.71,1.58-1.58,1.58s-1.58-.71-1.58-1.58v-15.78c0-1.58-1.29-2.87-2.87-2.87h-.37c-1.58,0-2.87,1.29-2.87,2.87v27.64c0,1.58,1.29,2.87,2.87,2.87h4.31l-1.43,79.31c0,1.29,1,2.35,2.22,2.35h8.7c1.22,0,2.22-1.06,2.22-2.35l-2.69-79.31h5.57c1.58,0,2.87-1.29,2.87-2.87v-27.64c0-1.58-1.29-2.87-2.87-2.87Z"/>
    </g>
    <g>
      <rect class="cls-34" x="858" y="712.13" width="63" height="177.87"/>
      <g>
        <rect class="cls-112" x="861.81" y="717.12" width="55.38" height="31.65"/>
        <rect class="cls-112" x="861.81" y="752.57" width="55.38" height="31.65"/>
        <rect class="cls-112" x="861.81" y="788.03" width="55.38" height="31.65"/>
        <rect class="cls-112" x="861.81" y="823.48" width="55.38" height="31.65"/>
      </g>
    </g>
    <g>
      <rect class="cls-71" x="505.7" y="313.25" width="119.32" height="72.39"/>
      <path class="cls-101" d="M610.71,385.81v-21.31c0-4.45-3.2-8.05-7.16-8.05h-3.83c-3.95,0-7.16,3.6-7.16,8.05v21.31h18.14Z"/>
      <path class="cls-105" d="M505.69,313.13v18.26c0,3.81,2.7,6.9,6.03,6.9h3.23c3.33,0,6.03-3.09,6.03-6.9v-18.26h-15.29Z"/>
      <path class="cls-103" d="M535.66,313.13v18.26c0,3.81,2.7,6.9,6.03,6.9h3.23c3.33,0,6.03-3.09,6.03-6.9v-18.26h-15.29Z"/>
      <path class="cls-98" d="M565.63,313.13v18.26c0,3.81,2.7,6.9,6.03,6.9h3.23c3.33,0,6.03-3.09,6.03-6.9v-18.26h-15.29Z"/>
      <path class="cls-100" d="M594.74,313.13v18.26c0,3.81,2.85,6.9,6.37,6.9h3.41c3.52,0,6.37-3.09,6.37-6.9v-18.26h-16.15Z"/>
      <path class="cls-112" d="M520.56,313.13v18.26c0,3.81,2.7,6.9,6.03,6.9h3.23c3.33,0,6.03-3.09,6.03-6.9v-18.26h-15.29Z"/>
      <path class="cls-112" d="M550.3,313.13v18.26c0,3.81,2.7,6.9,6.03,6.9h3.23c3.33,0,6.03-3.09,6.03-6.9v-18.26h-15.29Z"/>
      <path class="cls-112" d="M580.04,313.13v18.26c0,3.81,2.7,6.9,6.03,6.9h3.23c3.33,0,6.03-3.09,6.03-6.9v-18.26h-15.29Z"/>
      <path class="cls-112" d="M609.78,313.13v18.26c0,3.81,2.7,6.9,6.03,6.9h3.23c3.33,0,6.03-3.09,6.03-6.9v-18.26h-15.29Z"/>
      <rect class="cls-97" x="505.7" y="290.18" width="119.32" height="15.91"/>
      <rect class="cls-99" x="505.7" y="305.29" width="119.32" height="7.95"/>
      <path class="cls-72" d="M505.7,387.19c0,2.66,1.35,4.81,3.01,4.81h113.31c1.66,0,3.01-2.15,3.01-4.81v-1.55h-119.32v1.55Z"/>
      <g>
        <g>
          <rect class="cls-6" x="516.18" y="349.26" width="18.63" height="18.63"/>
          <path class="cls-112" d="M534.32,349.76v17.63h-17.63v-17.63h17.63M535.32,348.76h-19.63v19.63h19.63v-19.63h0Z"/>
        </g>
        <g>
          <rect class="cls-33" x="542.05" y="349.26" width="40.97" height="18.63"/>
          <path class="cls-112" d="M582.52,349.76v17.63h-39.97v-17.63h39.97M583.52,348.76h-41.97v19.63h41.97v-19.63h0Z"/>
        </g>
      </g>
    </g>
    <g>
      <rect class="cls-71" x="359.7" y="447.25" width="119.32" height="72.39"/>
      <path class="cls-96" d="M464.71,519.81v-21.31c0-4.45-3.2-8.05-7.16-8.05h-3.83c-3.95,0-7.16,3.6-7.16,8.05v21.31h18.14Z"/>
      <path class="cls-111" d="M359.69,447.13v18.26c0,3.81,2.7,6.9,6.03,6.9h3.23c3.33,0,6.03-3.09,6.03-6.9v-18.26h-15.29Z"/>
      <path class="cls-107" d="M389.66,447.13v18.26c0,3.81,2.7,6.9,6.03,6.9h3.23c3.33,0,6.03-3.09,6.03-6.9v-18.26h-15.29Z"/>
      <path class="cls-106" d="M419.63,447.13v18.26c0,3.81,2.7,6.9,6.03,6.9h3.23c3.33,0,6.03-3.09,6.03-6.9v-18.26h-15.29Z"/>
      <path class="cls-109" d="M448.74,447.13v18.26c0,3.81,2.85,6.9,6.37,6.9h3.41c3.52,0,6.37-3.09,6.37-6.9v-18.26h-16.15Z"/>
      <path class="cls-112" d="M374.56,447.13v18.26c0,3.81,2.7,6.9,6.03,6.9h3.23c3.33,0,6.03-3.09,6.03-6.9v-18.26h-15.29Z"/>
      <path class="cls-112" d="M404.3,447.13v18.26c0,3.81,2.7,6.9,6.03,6.9h3.23c3.33,0,6.03-3.09,6.03-6.9v-18.26h-15.29Z"/>
      <path class="cls-112" d="M434.04,447.13v18.26c0,3.81,2.7,6.9,6.03,6.9h3.23c3.33,0,6.03-3.09,6.03-6.9v-18.26h-15.29Z"/>
      <path class="cls-112" d="M463.78,447.13v18.26c0,3.81,2.7,6.9,6.03,6.9h3.23c3.33,0,6.03-3.09,6.03-6.9v-18.26h-15.29Z"/>
      <rect class="cls-110" x="359.7" y="424.18" width="119.32" height="15.91"/>
      <rect class="cls-108" x="359.7" y="439.29" width="119.32" height="7.95"/>
      <path class="cls-72" d="M359.7,521.19c0,2.66,1.35,4.81,3.01,4.81h113.31c1.66,0,3.01-2.15,3.01-4.81v-1.55h-119.32v1.55Z"/>
      <g>
        <g>
          <rect class="cls-11" x="370.18" y="483.26" width="18.63" height="18.63"/>
          <path class="cls-112" d="M388.32,483.76v17.63h-17.63v-17.63h17.63M389.32,482.76h-19.63v19.63h19.63v-19.63h0Z"/>
        </g>
        <g>
          <rect class="cls-24" x="396.05" y="483.26" width="40.97" height="18.63"/>
          <path class="cls-112" d="M436.52,483.76v17.63h-39.97v-17.63h39.97M437.52,482.76h-41.97v19.63h41.97v-19.63h0Z"/>
        </g>
      </g>
    </g>
  </g>
</svg>